<?xml  version="1.0" encoding="UTF-8"?>
<!DOCTYPE svg PUBLIC "-//W3C//DTD SVG 1.0//EN" "http://www.w3.org/TR/2001/REC-SVG-20010904/DTD/svg10.dtd" >
<svg xmlns="http://www.w3.org/2000/svg" >
<metadata>
<version>1.0</version>
<id><![CDATA[DIN Next W02 Light]]></id>
<vendor>Monotype Imaging Inc.</vendor>
<credits>
<name>Fonts.com WebFonts</name>
<URL>http://webfonts.fonts.com</URL>
<role>Home of the Web fonts</role>
</credits>
<license>
<URL>http://webfonts.fonts.com/Legal</URL>
</license>
<copyright><![CDATA[Copyright © 2010 Linotype GmbH, www.linotype.com. All rights reserved. This font software may not be reproduced, modified, disclosed or transferred without the express written approval of Linotype GmbH.]]></copyright>
<trademark></trademark>
<licensee>
<name></name>
</licensee>
</metadata>
<defs >
<font horiz-adv-x="494" id="9f774d17-c03a-418e-a375-34f3beecbc7a">
<font-face font-family="" panose-1="2 11 3 3 2 2 3 5 2 3" ascent="914" descent="-213" units-per-em="1000" alphabetic="0">
</font-face>
<missing-glyph horiz-adv-x="470" d="M0 670Q0 680 10 680H460Q470 680 470 670V10Q470 0 460 0H10Q0 0 0 10V670ZM39 43Q39 37 45 37H425Q431 37 431 43V637Q431 643 425 643H45Q39 643 39 637V43ZM215 224Q205 224 205 234V258Q205 281 210 295T227 325L264 373Q287 400 294 416T301 453Q301 485 281 504T229 523Q167 523 152 456Q150 447 140 448L119 452Q109 454 111 463Q119 507 150 534T230 562Q281 562 311 531T342 453Q342 424 333 404T304 359L267 311Q254 295 251 285T247 256V234Q247 224 237 224H215ZM200 162Q200 172 210 172H241Q251 172 251 162V123Q251 113 241 113H210Q200 113 200 123V162Z"  />

<glyph unicode="&#xA;" />
<glyph unicode="&#xD;" horiz-adv-x="0" />
<glyph unicode=" " horiz-adv-x="246" />
<glyph unicode="!" horiz-adv-x="266" d="M122 177Q112 177 112 187L104 670Q104 680 114 680H153Q163 680 163 670L155 187Q155 177 145 177H122ZM98 77Q98 87 108 87H158Q168 87 168 77V10Q168 0 158 0H108Q98 0 98 10V77Z"  />
<glyph unicode="&quot;" horiz-adv-x="314" d="M204 520Q194 520 194 530V670Q194 680 204 680H230Q240 680 240 670V530Q240 520 230 520H204ZM84 520Q74 520 74 530V670Q74 680 84 680H110Q120 680 120 670V530Q120 520 110 520H84Z"  />
<glyph unicode="#" horiz-adv-x="518" d="M117 219H37Q27 219 27 229V253Q27 263 37 263H123L146 432H62Q52 432 52 442V467Q52 477 62 477H152L179 670Q181 680 190 680H217Q228 680 226 670L199 477H349L376 670Q378 680 387 680H414Q425 680 423 670L396 477H481Q491 477 491 467V442Q491 432 481 432H390L367 263H457Q467 263 467 253V229Q467 219 457 219H361L333 10Q331 0 322 0H295Q284 0 286 10L314 219H164L136 10Q134 0 125 0H98Q87 0 89 10L117 219ZM320 263L343 432H193L170 263H320Z"  />
<glyph unicode="$" horiz-adv-x="532" d="M65 50Q62 52 62 56T64 64L85 92Q90 98 99 93Q128 74 166 59T252 42V319Q162 333 120 381T77 500Q77 541 90 574T126 632T181 671T252 689V741Q252 751 262 751H281Q291 751 291 741V689Q333 687 370 675T436 644Q440 642 441 638T439 630L422 603Q416 595 408 600Q377 617 350 626T291 637V369Q384 355 428 309T472 187Q472 146 460 112T425 53T368 12T291 -8V-61Q291 -71 281 -71H262Q252 -71 252 -61V-10Q196 -8 148 9T65 50ZM252 637Q196 632 163 597T130 505Q130 454 156 421T252 374V637ZM291 43Q351 50 385 86T419 184Q419 235 391 268T291 313V43Z"  />
<glyph unicode="%" horiz-adv-x="770" d="M558 680Q564 690 572 690H599Q610 690 605 680L211 0Q205 -10 197 -10H170Q159 -10 164 0L558 680ZM205 330Q163 330 135 349T96 404Q94 410 93 416T91 434T89 463T88 509Q88 537 88 554T90 583T93 601T96 614Q107 649 135 668T205 688Q246 688 274 669T313 614Q314 608 315 601T318 583T320 555T321 509Q321 481 321 464T319 435T316 417T313 404Q302 369 274 350T205 330ZM205 371Q229 371 245 381T269 414Q271 419 272 424T274 440T275 466T276 509Q276 536 276 552T275 578T273 593T269 604Q262 626 246 636T205 647Q153 647 140 604Q138 599 137 594T135 578T134 552T133 509Q133 482 133 466T134 440T136 425T140 414Q153 371 205 371ZM458 66Q456 72 455 78T452 96T451 125T450 171Q450 199 450 216T452 245T454 263T458 276Q469 311 497 330T566 350Q607 350 635 331T674 276Q676 270 677 263T680 245T681 217T682 171Q682 143 682 125T680 96T678 79T674 66Q663 31 635 12T566 -8Q525 -8 497 11T458 66ZM501 76Q516 33 566 33Q616 33 631 76Q632 81 633 86T636 101T637 127T638 171Q638 198 638 214T636 240T634 255T631 265Q616 308 566 308Q516 308 501 265Q499 260 498 255T496 240T495 214T494 171Q494 144 494 128T496 102T498 87T501 76Z"  />
<glyph unicode="&amp;" horiz-adv-x="618" d="M76 162Q76 221 112 272T217 380Q191 413 174 437T145 482T129 518T124 553Q124 583 135 608T165 651T211 680T269 690Q301 690 327 680T372 651T401 608T412 554Q412 532 407 512T387 471T348 426T288 372L440 175L511 264Q517 272 525 266L546 248Q555 242 548 234L470 135L517 74Q528 60 536 56T556 52H570Q580 52 580 42V10Q580 0 570 0H549Q523 0 508 8T476 40L436 93Q390 40 347 15T250 -10Q209 -10 177 2T123 37T88 92T76 162ZM257 413Q291 440 311 460T343 496T357 525T361 554Q361 592 335 616T269 640Q228 640 203 616T177 554Q177 541 180 530T193 503T217 466T257 413ZM128 164Q128 109 160 75T251 40Q294 40 329 62T406 133L247 340Q190 293 159 253T128 164Z"  />
<glyph unicode="&apos;" horiz-adv-x="194" d="M84 520Q74 520 74 530V670Q74 680 84 680H110Q120 680 120 670V530Q120 520 110 520H84Z"  />
<glyph unicode="(" horiz-adv-x="276" d="M185 -74Q131 17 103 121T75 328Q75 431 103 535T185 730Q192 740 200 740H220Q225 740 227 738T227 730Q180 639 154 535T128 328Q128 225 154 121T227 -74Q229 -79 227 -81T220 -84H200Q192 -84 185 -74Z"  />
<glyph unicode=")" horiz-adv-x="276" d="M49 -74Q96 16 122 120T148 328Q148 431 122 535T49 730Q47 735 49 737T56 740H77Q84 740 91 730Q145 639 173 535T201 328Q201 225 173 121T91 -74Q84 -84 77 -84H56Q51 -84 49 -82T49 -74Z"  />
<glyph unicode="*" horiz-adv-x="349" d="M166 402Q156 402 156 412V508L72 460Q63 455 58 464L50 479Q44 488 54 493L137 541L54 589Q44 594 50 603L58 618Q63 627 72 622L156 573V670Q156 680 166 680H183Q193 680 193 670V573L277 622Q286 627 291 618L299 603Q305 594 295 589L211 541L295 493Q305 488 299 479L291 464Q286 455 277 460L193 509V412Q193 402 183 402H166Z"  />
<glyph unicode="+" horiz-adv-x="532" d="M240 245Q240 251 234 251H76Q66 251 66 261V291Q66 301 76 301H234Q240 301 240 307V467Q240 477 250 477H282Q292 477 292 467V307Q292 301 298 301H456Q466 301 466 291V261Q466 251 456 251H298Q292 251 292 245V85Q292 75 282 75H250Q240 75 240 85V245Z"  />
<glyph unicode="&#x2c;" horiz-adv-x="213" d="M75 77Q75 87 85 87H128Q138 87 138 77V2Q138 -6 137 -10T133 -20L94 -97Q90 -105 82 -105Q75 -105 75 -96V77Z"  />
<glyph unicode="-" horiz-adv-x="374" d="M59 241Q49 241 49 251V282Q49 292 59 292H315Q325 292 325 282V251Q325 241 315 241H59Z"  />
<glyph unicode="." horiz-adv-x="219" d="M75 77Q75 87 85 87H134Q144 87 144 77V10Q144 0 134 0H85Q75 0 75 10V77Z"  />
<glyph unicode="/" horiz-adv-x="407" d="M289 680Q292 690 302 690H332Q342 690 339 680L118 0Q115 -10 105 -10H75Q65 -10 68 0L289 680Z"  />
<glyph unicode="0" horiz-adv-x="532" d="M91 112Q88 121 86 135T81 174T77 239T76 340Q76 401 77 441T80 506T85 545T91 568Q111 628 156 659T266 690Q331 690 376 659T441 568Q444 559 446 545T451 506T455 441T456 340Q456 279 455 239T452 174T447 135T441 112Q421 52 376 21T266 -10Q201 -10 156 21T91 112ZM144 124Q158 81 189 61T266 41Q311 41 342 61T388 124Q391 132 393 145T398 181T401 243T402 340Q402 399 401 437T398 498T394 535T388 556Q374 599 343 619T266 639Q221 639 190 619T144 556Q141 548 139 535T134 499T131 437T130 340Q130 281 131 243T134 182T138 145T144 124Z"  />
<glyph unicode="1" horiz-adv-x="532" d="M257 607H255L132 520Q128 517 125 518T121 526V568Q121 577 128 583L254 674Q261 680 269 680H301Q311 680 311 670V10Q311 0 301 0H267Q257 0 257 10V607Z"  />
<glyph unicode="2" horiz-adv-x="532" d="M83 36Q83 44 87 49L338 378Q364 411 379 443T394 511Q394 567 358 602T264 638Q207 638 175 607T134 521Q132 512 122 513L91 521Q81 523 83 532Q87 563 100 591T137 642T192 677T265 690Q306 690 340 677T398 640T435 583T448 511Q448 466 430 427T379 345L155 53V52H438Q448 52 448 42V10Q448 0 438 0H93Q83 0 83 10V36Z"  />
<glyph unicode="3" horiz-adv-x="532" d="M73 130Q70 140 80 143L112 151Q122 154 125 144Q130 126 140 108T167 75T208 51T265 42Q329 42 366 81T404 183Q404 214 394 241T365 287T320 317T261 328H230Q220 328 220 338V370Q220 380 230 380H260Q318 380 353 416T389 511Q389 568 355 603T261 638Q232 638 210 630T173 609T147 577T133 540Q131 530 122 532L89 541Q79 543 81 553Q86 579 100 604T136 648T190 678T262 690Q304 690 337 677T395 640T431 584T444 512Q444 482 436 458T415 415T386 382T353 359V357Q370 350 388 336T422 301T448 251T458 185Q458 142 444 106T405 45T344 5T265 -10Q222 -10 189 2T132 33T94 78T73 130Z"  />
<glyph unicode="4" horiz-adv-x="532" d="M67 136Q57 136 57 146V176Q57 179 57 181T59 187L280 672Q284 680 293 680H330Q341 680 337 671L118 189V188H328Q334 188 334 194V380Q334 390 344 390H378Q388 390 388 380V194Q388 188 394 188H469Q479 188 479 178V146Q479 136 469 136H394Q388 136 388 130V10Q388 0 378 0H344Q334 0 334 10V130Q334 136 328 136H67Z"  />
<glyph unicode="5" horiz-adv-x="532" d="M91 134Q89 143 98 146L130 154Q139 157 143 146Q151 101 183 72T273 42Q315 42 346 61T392 120Q402 151 402 218Q402 253 399 277T390 318Q378 356 348 375T275 394Q227 394 196 370T155 313Q152 303 145 303H112Q102 303 102 313V670Q102 680 112 680H433Q443 680 443 670V638Q443 628 433 628H160Q154 628 154 622V387H156Q169 409 201 427T280 446Q340 446 381 419T440 338Q447 317 451 289T456 218Q456 180 453 152T442 104Q424 49 380 20T274 -10Q235 -10 203 1T148 31T110 76T91 134Z"  />
<glyph unicode="6" horiz-adv-x="532" d="M68 195Q68 236 80 274T112 348L281 673Q285 680 294 680H331Q336 680 337 677T337 671L184 376L186 375Q199 386 222 392T274 399Q315 399 350 385T410 344T450 280T465 197Q465 149 450 111T409 46T347 5T267 -10Q223 -10 187 4T124 45T83 110T68 195ZM122 194Q122 126 162 84T267 42Q299 42 325 53T371 84T400 132T411 194Q411 228 401 256T371 304T326 335T267 347Q202 347 162 305T122 194Z"  />
<glyph unicode="7" horiz-adv-x="532" d="M400 625V628H154Q148 628 148 622V529Q148 519 138 519H104Q94 519 94 529V670Q94 680 104 680H448Q458 680 458 670V633Q458 629 456 623L212 9Q210 4 208 2T199 0H162Q152 0 157 11L400 625Z"  />
<glyph unicode="8" horiz-adv-x="532" d="M66 184Q66 247 96 292T175 357V359Q135 379 110 418T84 511Q84 549 97 581T134 638T191 676T266 690Q307 690 340 676T398 638T435 582T448 511Q448 457 423 418T357 359V357Q405 337 435 292T466 184Q466 141 451 106T410 45T347 5T266 -10Q222 -10 186 4T123 44T81 105T66 184ZM266 384Q295 384 318 393T359 420T385 461T394 511Q394 538 385 561T359 602T318 628T266 638Q237 638 214 629T174 602T148 562T138 511Q138 484 147 461T172 421T213 394T266 384ZM120 186Q120 155 130 129T160 83T206 53T266 42Q299 42 326 53T372 83T401 128T412 186Q412 217 402 244T372 290T326 321T266 332Q233 332 206 321T160 291T131 244T120 186Z"  />
<glyph unicode="9" horiz-adv-x="532" d="M348 304L346 305Q333 294 310 288T258 281Q217 281 182 295T122 336T82 400T67 483Q67 531 82 569T123 634T185 675T265 690Q308 690 345 676T408 635T449 570T464 485Q464 444 452 406T420 332L251 7Q247 0 238 0H201Q196 0 195 3T195 9L348 304ZM265 333Q330 333 370 375T410 486Q410 554 370 596T265 638Q233 638 207 627T161 596T132 548T121 486Q121 452 131 424T161 376T206 344T265 333Z"  />
<glyph unicode=":" horiz-adv-x="227" d="M89 389Q79 389 79 399V467Q79 477 89 477H138Q148 477 148 467V399Q148 389 138 389H89ZM79 77Q79 87 89 87H138Q148 87 148 77V10Q148 0 138 0H89Q79 0 79 10V77Z"  />
<glyph unicode=";" horiz-adv-x="227" d="M89 389Q79 389 79 399V467Q79 477 89 477H138Q148 477 148 467V399Q148 389 138 389H89ZM82 77Q82 87 92 87H135Q145 87 145 77V2Q145 -6 144 -10T140 -20L101 -97Q97 -105 89 -105Q82 -105 82 -96V77Z"  />
<glyph unicode="&lt;" horiz-adv-x="532" d="M76 250Q66 254 66 263V289Q66 298 76 302L456 457Q466 460 466 450V415Q466 406 456 402L140 277V275L456 150Q466 146 466 137V102Q466 92 456 95L76 250Z"  />
<glyph unicode="=" horiz-adv-x="532" d="M76 348Q66 348 66 358V388Q66 398 76 398H456Q466 398 466 388V358Q466 348 456 348H76ZM76 154Q66 154 66 164V194Q66 204 76 204H456Q466 204 466 194V164Q466 154 456 154H76Z"  />
<glyph unicode="&gt;" horiz-adv-x="532" d="M66 137Q66 146 76 150L392 275V277L76 402Q66 406 66 415V450Q66 460 76 457L456 302Q466 298 466 289V263Q466 254 456 250L76 95Q66 92 66 102V137Z"  />
<glyph unicode="?" horiz-adv-x="446" d="M196 223Q196 254 202 275T228 321L283 394Q302 417 313 434T332 467T341 495T344 525Q344 579 311 608T226 638Q176 638 145 609T102 526Q100 516 91 518L57 524Q47 526 49 536Q60 604 106 647T227 690Q266 690 297 678T351 644T386 592T399 525Q399 484 385 453T338 381L283 307Q273 295 267 285T257 265T252 244T251 219V184Q251 174 241 174H206Q196 174 196 184V223ZM188 77Q188 87 198 87H248Q258 87 258 77V10Q258 0 248 0H198Q188 0 188 10V77Z"  />
<glyph unicode="@" horiz-adv-x="884" d="M49 267Q49 354 78 426T159 551T283 631T442 660Q529 660 601 631T726 551T807 427T836 267Q836 211 824 171T791 106T742 68T682 56Q640 56 610 77T565 134H564Q547 96 512 76T427 56Q374 56 339 80T286 156Q280 176 277 200T273 262Q273 300 276 324T286 368Q303 419 338 443T425 468Q473 468 503 451T547 409H549V448Q549 458 558 458H588Q597 458 597 448V203Q597 177 604 158T624 127T651 108T684 102Q704 102 722 110T755 137T778 188T787 267Q787 345 762 408T692 518T584 589T442 614Q364 614 301 589T192 518T123 409T98 267Q98 189 122 125T192 15T300 -56T442 -81Q517 -81 569 -68T661 -33Q669 -28 674 -37L684 -60Q687 -69 679 -73Q634 -99 578 -113T442 -127Q355 -127 283 -98T159 -17T78 107T49 267ZM332 174Q355 103 435 103Q516 103 539 174Q544 190 546 210T549 262Q549 293 547 313T539 350Q516 421 435 421Q355 421 332 350Q327 334 325 314T322 262Q322 231 324 211T332 174Z"  />
<glyph unicode="A" horiz-adv-x="596" d="M269 670Q272 680 281 680H317Q326 680 329 670L565 10Q568 0 558 0H519Q508 0 506 10L446 177H150L90 10Q86 0 77 0H38Q28 0 31 10L269 670ZM427 232L300 588H297L169 232H427Z"  />
<glyph unicode="B" horiz-adv-x="601" d="M94 670Q94 680 104 680H332Q429 680 479 633T530 504Q530 441 502 403T425 351V349Q444 345 464 334T502 302T530 253T541 187Q541 99 487 50T332 0H104Q94 0 94 10V670ZM331 373Q400 373 436 408T473 499Q473 558 437 592T331 626H157Q151 626 151 620V379Q151 373 157 373H331ZM151 60Q151 54 157 54H336Q409 54 446 90T484 186Q484 246 447 282T336 319H157Q151 319 151 313V60Z"  />
<glyph unicode="C" horiz-adv-x="556" d="M83 142Q79 155 76 170T70 209T67 263T65 340Q65 385 66 416T70 471T75 509T83 538Q109 615 163 652T298 690Q368 690 421 659T503 564Q507 555 500 551L467 535Q459 530 454 539Q431 583 394 609T298 636Q235 636 197 608T138 523Q135 513 132 499T127 464T124 413T123 340Q123 297 124 267T127 216T132 181T138 157Q158 101 196 73T298 44Q356 44 393 70T454 141Q459 150 467 145L500 129Q507 125 503 116Q474 53 421 22T298 -10Q217 -10 163 27T83 142Z"  />
<glyph unicode="D" horiz-adv-x="620" d="M94 670Q94 680 104 680H317Q489 680 534 542Q539 527 542 511T548 473T552 418T553 340Q553 293 552 262T549 208T543 169T534 138Q489 0 317 0H104Q94 0 94 10V670ZM151 60Q151 54 157 54H309Q375 54 418 78T479 157Q483 169 486 183T491 217T494 267T495 340Q495 383 494 412T491 462T486 497T479 523Q461 577 418 601T309 626H157Q151 626 151 620V60Z"  />
<glyph unicode="E" horiz-adv-x="556" d="M94 670Q94 680 104 680H493Q503 680 503 670V636Q503 626 493 626H157Q151 626 151 620V378Q151 372 157 372H446Q456 372 456 362V328Q456 318 446 318H157Q151 318 151 312V60Q151 54 157 54H493Q503 54 503 44V10Q503 0 493 0H104Q94 0 94 10V670Z"  />
<glyph unicode="F" horiz-adv-x="551" d="M94 670Q94 680 104 680H493Q503 680 503 670V636Q503 626 493 626H157Q151 626 151 620V371Q151 365 157 365H446Q456 365 456 355V321Q456 311 446 311H157Q151 311 151 305V10Q151 0 141 0H104Q94 0 94 10V670Z"  />
<glyph unicode="G" horiz-adv-x="609" d="M84 143Q80 156 77 171T71 210T67 264T65 340Q65 384 66 415T70 470T76 508T84 537Q109 613 165 651T306 690Q348 690 381 681T441 654T487 614T519 564Q523 555 515 551L483 535Q474 532 470 539Q444 586 405 611T305 636Q177 636 139 521Q136 511 133 498T128 463T124 412T123 340Q123 298 124 268T127 217T133 183T139 159Q177 44 305 44Q367 44 409 72T471 157Q478 177 482 207T487 287Q487 293 481 293H327Q317 293 317 303V336Q317 346 327 346H534Q544 346 544 336V295Q544 244 539 206T526 144Q502 68 445 29T306 -10Q222 -10 166 28T84 143Z"  />
<glyph unicode="H" horiz-adv-x="650" d="M94 670Q94 680 104 680H141Q151 680 151 670V378Q151 372 157 372H493Q499 372 499 378V670Q499 680 509 680H546Q556 680 556 670V10Q556 0 546 0H509Q499 0 499 10V312Q499 318 493 318H157Q151 318 151 312V10Q151 0 141 0H104Q94 0 94 10V670Z"  />
<glyph unicode="I" horiz-adv-x="245" d="M94 670Q94 680 104 680H141Q151 680 151 670V10Q151 0 141 0H104Q94 0 94 10V670Z"  />
<glyph unicode="J" horiz-adv-x="474" d="M40 46Q32 53 39 60L66 85Q73 92 81 85Q99 70 127 57T188 44Q253 44 291 81T329 204V670Q329 680 339 680H376Q386 680 386 670V204Q386 94 332 42T187 -10Q142 -10 103 6T40 46Z"  />
<glyph unicode="K" horiz-adv-x="597" d="M94 670Q94 680 104 680H141Q151 680 151 670V278L475 671Q484 680 492 680H539Q544 680 545 677T543 669L328 412L560 11Q563 6 562 3T555 0H510Q501 0 495 9L290 366L151 200V10Q151 0 141 0H104Q94 0 94 10V670Z"  />
<glyph unicode="L" horiz-adv-x="530" d="M94 670Q94 680 104 680H141Q151 680 151 670V60Q151 54 157 54H493Q503 54 503 44V10Q503 0 493 0H104Q94 0 94 10V670Z"  />
<glyph unicode="M" horiz-adv-x="755" d="M94 670Q94 680 104 680H142Q153 680 157 670L378 183H382L598 670Q602 680 612 680H651Q661 680 661 670V10Q661 0 651 0H614Q604 0 604 10V542H601L405 111Q402 105 399 103T387 100H367Q355 100 350 111L154 542H151V10Q151 0 141 0H104Q94 0 94 10V670Z"  />
<glyph unicode="N" horiz-adv-x="651" d="M94 670Q94 680 104 680H141Q153 680 158 670L497 111H500V670Q500 680 510 680H547Q557 680 557 670V10Q557 0 547 0H508Q497 0 491 10L155 570H151V10Q151 0 141 0H104Q94 0 94 10V670Z"  />
<glyph unicode="O" horiz-adv-x="609" d="M305 -10Q221 -10 166 29T85 143Q80 156 77 172T71 211T67 265T65 340Q65 384 66 415T70 468T76 507T85 537Q110 612 165 651T305 690Q388 690 443 651T524 537Q528 523 532 507T538 469T542 415T544 340Q544 296 543 265T539 212T532 173T524 143Q499 68 444 29T305 -10ZM486 340Q486 381 485 411T481 462T476 497T469 521Q431 636 305 636Q178 636 140 521Q137 511 134 497T128 462T125 411T123 340Q123 299 124 269T128 218T133 183T140 159Q178 44 305 44Q431 44 469 159Q472 169 475 183T481 218T484 269T486 340Z"  />
<glyph unicode="P" horiz-adv-x="585" d="M104 0Q94 0 94 10V670Q94 680 104 680H331Q429 680 484 629T540 487Q540 397 485 346T331 295H157Q151 295 151 289V10Q151 0 141 0H104ZM329 349Q404 349 443 385T483 487Q483 553 444 589T329 626H157Q151 626 151 620V355Q151 349 157 349H329Z"  />
<glyph unicode="Q" horiz-adv-x="609" d="M537 -32Q529 -39 522 -32L456 39Q396 -10 305 -10Q221 -10 166 29T85 143Q80 156 77 172T71 211T67 265T65 340Q65 384 66 415T70 468T76 507T85 537Q110 612 165 651T305 690Q388 690 443 651T524 537Q528 523 532 507T538 469T542 415T544 340Q544 296 543 265T539 212T532 173T524 143Q518 124 510 108T492 78L562 5Q569 -2 561 -9L537 -32ZM305 44Q374 44 418 80L336 168Q329 175 336 182L361 205Q369 211 375 204L452 121Q457 130 461 139T469 159Q472 169 475 183T481 218T484 269T486 340Q486 381 485 411T481 462T476 497T469 521Q431 636 305 636Q178 636 140 521Q137 511 134 497T128 462T125 411T123 340Q123 299 124 269T128 218T133 183T140 159Q178 44 305 44Z"  />
<glyph unicode="R" horiz-adv-x="615" d="M497 0Q489 0 485 9L342 304H332H157Q151 304 151 298V10Q151 0 141 0H104Q94 0 94 10V670Q94 680 104 680H332Q429 680 484 630T539 492Q539 421 503 375T400 312L548 11Q551 6 550 3T543 0H497ZM331 358Q404 358 443 392T482 492Q482 556 443 591T331 626H157Q151 626 151 620V364Q151 358 157 358H331Z"  />
<glyph unicode="S" horiz-adv-x="596" d="M290 -10Q257 -10 224 -4T162 14T108 39T65 69Q57 76 64 83L88 113Q95 121 102 114Q136 88 186 66T297 44Q379 44 426 82T473 183Q473 208 465 229T439 268T389 297T310 315L279 319Q179 332 131 378T83 499Q83 588 141 639T297 690Q354 690 405 675T491 633Q500 628 493 619L473 588Q467 581 459 586Q418 611 378 623T294 636Q221 636 181 600T140 503Q140 451 176 418T300 374L331 370Q435 356 482 310T530 187Q530 144 515 108T469 46T394 5T290 -10Z"  />
<glyph unicode="T" horiz-adv-x="525" d="M244 0Q234 0 234 10V620Q234 626 228 626H32Q22 626 22 636V670Q22 680 32 680H493Q503 680 503 670V636Q503 626 493 626H297Q291 626 291 620V10Q291 0 281 0H244Z"  />
<glyph unicode="U" horiz-adv-x="635" d="M144 234Q144 137 190 91T317 44Q399 44 445 90T491 234V670Q491 680 501 680H538Q548 680 548 670V235Q548 173 532 127T485 51T413 5T317 -10Q212 -10 150 50T87 235V670Q87 680 97 680H134Q144 680 144 670V234Z"  />
<glyph unicode="V" horiz-adv-x="560" d="M263 0Q255 0 252 10L27 666Q21 680 34 680H69Q80 680 84 670L281 95H283L475 670Q479 680 489 680H525Q538 680 533 666L309 10Q306 0 297 0H263Z"  />
<glyph unicode="W" horiz-adv-x="817" d="M580 0Q572 0 569 10L410 567H408L248 10Q245 0 237 0H205Q196 0 193 10L32 669Q29 680 40 680H76Q88 680 89 670L223 110H225L382 670Q385 680 394 680H424Q433 680 436 670L595 110H597L728 670Q730 680 741 680H777Q788 680 785 669L624 10Q622 0 613 0H580Z"  />
<glyph unicode="X" horiz-adv-x="545" d="M461 0Q452 0 448 9L273 300H272L96 9Q91 0 83 0H38Q27 0 33 11L240 357L54 669Q51 674 52 677T59 680H104Q112 680 117 671L272 414H273L428 671Q434 680 441 680H486Q496 680 491 669L304 357L512 11Q517 0 506 0H461Z"  />
<glyph unicode="Y" horiz-adv-x="515" d="M239 0Q229 0 229 10V279L25 669Q23 673 25 676T33 680H72Q82 680 87 670L258 345H261L429 670Q434 680 444 680H482Q488 680 490 677T490 669L286 279V10Q286 0 276 0H239Z"  />
<glyph unicode="Z" horiz-adv-x="540" d="M63 0Q53 0 53 10V43Q53 50 58 58L419 625V626H76Q66 626 66 636V670Q66 680 76 680H476Q486 680 486 670V637Q486 629 481 622L120 55V54H476Q486 54 486 44V10Q486 0 476 0H63Z"  />
<glyph unicode="[" horiz-adv-x="283" d="M110 -84Q100 -84 100 -74V730Q100 740 110 740H229Q239 740 239 730V703Q239 693 229 693H158Q152 693 152 687V-31Q152 -37 158 -37H229Q239 -37 239 -47V-74Q239 -84 229 -84H110Z"  />
<glyph unicode="\" horiz-adv-x="407" d="M302 -10Q292 -10 289 0L68 680Q65 690 75 690H105Q115 690 118 680L339 0Q342 -10 332 -10H302Z"  />
<glyph unicode="]" horiz-adv-x="283" d="M54 -84Q44 -84 44 -74V-47Q44 -37 54 -37H125Q131 -37 131 -31V687Q131 693 125 693H54Q44 693 44 703V730Q44 740 54 740H173Q183 740 183 730V-74Q183 -84 173 -84H54Z"  />
<glyph unicode="^" horiz-adv-x="532" d="M426 282Q417 282 413 292L267 610H265L118 292Q114 282 105 282H74Q69 282 67 284T67 292L240 670Q245 680 254 680H278Q287 680 292 670L464 292Q469 282 458 282H426Z"  />
<glyph unicode="_" horiz-adv-x="459" d="M0 -123V-82H459V-123H0Z"  />
<glyph unicode="`" horiz-adv-x="421" d="M248 558Q242 558 239 560T230 568L142 690Q139 694 140 697T147 700H185Q195 700 201 690L278 568Q281 563 280 561T273 558H248Z"  />
<glyph unicode="a" horiz-adv-x="513" d="M250 437Q206 437 179 428T130 401Q121 394 115 402L98 427Q93 435 101 441Q127 463 164 475T253 487Q299 487 332 479T386 452T417 403T427 329V10Q427 0 417 0H385Q375 0 375 10V60H374Q360 30 323 10T226 -10Q154 -10 110 25T66 131Q66 203 112 237T247 272H368Q374 272 374 278V327Q374 356 369 377T349 411T310 431T250 437ZM237 40Q299 40 336 69T374 147V220Q374 226 368 226H254Q182 226 151 203T119 132Q119 87 149 64T237 40Z"  />
<glyph unicode="b" horiz-adv-x="531" d="M292 -10Q232 -10 198 12T147 68H146V10Q146 0 136 0H102Q92 0 92 10V670Q92 680 102 680H136Q146 680 146 670V409H147Q164 443 198 465T292 487Q416 487 454 373Q463 344 467 312T471 238Q471 198 467 166T454 104Q416 -10 292 -10ZM281 42Q329 42 359 63T403 126Q411 149 413 177T416 238Q416 270 414 299T403 351Q389 392 359 413T281 435Q236 435 205 414T159 351Q152 331 149 304T146 238Q146 199 149 173T159 126Q173 84 204 63T281 42Z"  />
<glyph unicode="c" horiz-adv-x="470" d="M60 238Q60 281 64 310T75 363Q94 422 140 454T253 487Q310 487 349 464T414 397Q419 389 411 384L383 366Q375 361 370 370Q349 403 322 419T253 435Q206 435 174 413T128 345Q121 325 118 300T115 238Q115 201 118 177T128 132Q142 87 174 65T253 42Q295 42 322 58T370 107Q375 116 383 111L411 93Q419 88 414 80Q388 36 349 13T253 -10Q187 -10 141 22T75 114Q68 137 64 166T60 238Z"  />
<glyph unicode="d" horiz-adv-x="531" d="M395 0Q385 0 385 10V68H384Q367 34 333 12T239 -10Q113 -10 77 104Q67 133 64 165T60 238Q60 279 63 311T77 373Q113 487 239 487Q299 487 333 465T384 409H385V670Q385 680 395 680H429Q439 680 439 670V10Q439 0 429 0H395ZM250 42Q295 42 326 63T372 126Q379 146 382 172T385 238Q385 277 382 304T372 351Q358 393 327 414T250 435Q203 435 173 414T128 351Q120 328 118 299T115 238Q115 206 117 178T128 126Q142 85 172 64T250 42Z"  />
<glyph unicode="e" horiz-adv-x="502" d="M257 -10Q187 -10 141 22T74 116Q67 138 64 165T60 239Q60 284 63 312T74 363Q94 423 140 455T251 487Q316 487 362 455T429 363Q437 340 440 313T443 236Q443 226 432 226H121Q115 226 115 219Q115 189 117 171T125 135Q142 87 176 65T260 42Q307 42 339 59T393 103Q399 111 407 105L430 84Q437 78 431 70Q405 35 361 13T257 -10ZM382 272Q388 272 388 278Q388 300 386 316T379 347Q365 392 332 414T251 437Q204 437 171 415T124 347Q119 333 117 317T115 278Q115 272 121 272H382Z"  />
<glyph unicode="f" horiz-adv-x="308" d="M118 0Q108 0 108 10V423Q108 429 102 429H51Q41 429 41 439V467Q41 477 51 477H102Q108 477 108 483V534Q108 577 115 605T138 649T179 673T241 680H269Q279 680 279 670V638Q279 628 269 628H248Q221 628 204 625T178 612T165 585T162 541V483Q162 477 168 477H269Q279 477 279 467V439Q279 429 269 429H168Q162 429 162 423V10Q162 0 152 0H118Z"  />
<glyph unicode="g" horiz-adv-x="522" d="M239 -190Q187 -190 144 -170T81 -121Q76 -113 83 -107L108 -85Q116 -79 122 -87Q167 -138 240 -138Q304 -138 340 -105T376 7V76H375Q358 41 325 20T234 -2Q174 -2 134 27T75 112Q67 138 63 168T59 242Q59 285 63 315T75 372Q93 427 133 457T234 487Q292 487 325 466T375 409H376V467Q376 477 386 477H420Q430 477 430 467V9Q430 -91 380 -140T239 -190ZM245 49Q287 49 318 68T364 133Q371 153 373 178T376 242Q376 280 374 305T364 351Q349 396 318 415T245 435Q156 435 128 352Q120 331 117 305T114 242Q114 171 128 133Q155 49 245 49Z"  />
<glyph unicode="h" horiz-adv-x="541" d="M411 0Q401 0 401 10V292Q401 435 276 435Q221 435 184 400T146 302V10Q146 0 136 0H102Q92 0 92 10V670Q92 680 102 680H136Q146 680 146 670V410H147Q165 445 201 466T288 487Q368 487 411 440T455 305V10Q455 0 445 0H411Z"  />
<glyph unicode="i" horiz-adv-x="238" d="M97 604Q87 604 87 614V670Q87 680 97 680H141Q151 680 151 670V614Q151 604 141 604H97ZM102 0Q92 0 92 10V467Q92 477 102 477H136Q146 477 146 467V10Q146 0 136 0H102Z"  />
<glyph unicode="j" horiz-adv-x="238" d="M97 604Q87 604 87 614V670Q87 680 97 680H141Q151 680 151 670V614Q151 604 141 604H97ZM12 -180Q2 -180 2 -170V-138Q2 -128 12 -128H21Q61 -128 76 -114T92 -55V467Q92 477 102 477H136Q146 477 146 467V-54Q146 -124 118 -152T23 -180H12Z"  />
<glyph unicode="k" horiz-adv-x="500" d="M415 0Q406 0 400 10L248 257L146 137V10Q146 0 136 0H102Q92 0 92 10V670Q92 680 102 680H136Q146 680 146 670V212L362 467Q367 472 370 474T379 477H420Q425 477 426 474T425 467L284 300L462 10Q464 6 463 3T456 0H415Z"  />
<glyph unicode="l" horiz-adv-x="262" d="M190 -3Q136 -3 114 23T91 109V670Q91 680 101 680H135Q145 680 145 670V111Q145 76 157 63T196 49H213Q223 49 223 39V7Q223 -3 213 -3H190Z"  />
<glyph unicode="m" horiz-adv-x="850" d="M720 0Q710 0 710 10V292Q710 435 584 435Q529 435 492 400T455 302V10Q455 0 445 0H411Q401 0 401 10V292Q401 435 276 435Q221 435 184 400T146 302V10Q146 0 136 0H102Q92 0 92 10V467Q92 477 102 477H136Q146 477 146 467V410H147Q165 445 201 466T288 487Q399 487 436 398H437Q458 440 496 463T594 487Q675 487 719 440T764 305V10Q764 0 754 0H720Z"  />
<glyph unicode="n" horiz-adv-x="541" d="M411 0Q401 0 401 10V292Q401 435 276 435Q221 435 184 400T146 302V10Q146 0 136 0H102Q92 0 92 10V467Q92 477 102 477H136Q146 477 146 467V410H147Q165 445 201 466T288 487Q368 487 411 440T455 305V10Q455 0 445 0H411Z"  />
<glyph unicode="o" horiz-adv-x="509" d="M254 -10Q188 -10 142 22T76 114Q68 138 64 166T60 239Q60 282 64 310T76 363Q96 423 142 455T254 487Q320 487 366 455T433 363Q441 339 445 311T449 239Q449 195 445 167T433 114Q413 54 367 22T254 -10ZM254 42Q301 42 334 65T381 131Q388 151 391 175T394 239Q394 277 391 301T381 346Q367 389 334 412T254 435Q208 435 175 412T128 346Q121 326 118 302T115 239Q115 200 118 176T128 131Q142 88 175 65T254 42Z"  />
<glyph unicode="p" horiz-adv-x="531" d="M102 -180Q92 -180 92 -170V467Q92 477 102 477H136Q146 477 146 467V409H147Q164 443 198 465T292 487Q416 487 454 373Q463 344 467 312T471 238Q471 198 467 166T454 104Q416 -10 292 -10Q232 -10 198 12T147 68H146V-170Q146 -180 136 -180H102ZM281 42Q329 42 359 63T403 126Q411 149 413 177T416 238Q416 270 414 299T403 351Q389 392 359 413T281 435Q236 435 205 414T159 351Q152 331 149 304T146 238Q146 199 149 173T159 126Q173 84 204 63T281 42Z"  />
<glyph unicode="q" horiz-adv-x="531" d="M395 -180Q385 -180 385 -170V68H384Q367 34 333 12T239 -10Q114 -10 77 104Q68 133 64 165T60 238Q60 279 64 311T77 373Q114 487 239 487Q299 487 333 465T384 409H385V467Q385 477 395 477H429Q439 477 439 467V-170Q439 -180 429 -180H395ZM250 42Q295 42 326 63T372 126Q379 146 382 172T385 238Q385 277 382 304T372 351Q358 393 327 414T250 435Q202 435 172 414T128 351Q120 328 118 299T115 238Q115 206 117 178T128 126Q142 85 172 64T250 42Z"  />
<glyph unicode="r" horiz-adv-x="396" d="M102 0Q92 0 92 10V467Q92 477 102 477H136Q146 477 146 467V406H147Q161 441 192 464T275 487Q304 487 329 478T371 454Q379 449 373 441L353 413Q348 406 338 411Q321 422 303 428T262 435Q230 435 208 422T173 388T153 337T146 274V10Q146 0 136 0H102Z"  />
<glyph unicode="s" horiz-adv-x="481" d="M241 -10Q209 -10 181 -4T130 12T88 33T55 57Q48 64 55 71L77 96Q83 102 91 96Q119 73 158 57T246 40Q309 40 339 65T370 132Q370 150 366 164T349 188T315 205T261 216L213 221Q146 228 110 259T74 348Q74 414 118 450T242 487Q291 487 331 474T401 441Q409 435 403 427L385 403Q380 395 371 400Q348 414 313 425T239 437Q184 437 156 415T128 352Q128 317 152 298T238 272L286 267Q356 260 390 228T424 139Q424 70 378 30T241 -10Z"  />
<glyph unicode="t" horiz-adv-x="311" d="M229 -3Q161 -3 133 26T105 126V423Q105 429 99 429H49Q39 429 39 439V467Q39 477 49 477H99Q105 477 105 483V620Q105 630 115 630H149Q159 630 159 620V483Q159 477 165 477H255Q265 477 265 467V439Q265 429 255 429H165Q159 429 159 423V129Q159 81 176 65T236 49H255Q265 49 265 39V7Q265 -3 255 -3H229Z"  />
<glyph unicode="u" horiz-adv-x="535" d="M399 0Q389 0 389 10V66H388Q370 31 334 11T249 -10Q169 -10 127 37T84 171V467Q84 477 94 477H128Q138 477 138 467V185Q138 42 261 42Q288 42 311 51T352 77T379 119T389 175V467Q389 477 399 477H433Q443 477 443 467V10Q443 0 433 0H399Z"  />
<glyph unicode="v" horiz-adv-x="468" d="M218 0Q209 0 206 10L33 467Q30 477 41 477H78Q87 477 91 467L235 85H236L377 467Q381 477 390 477H427Q438 477 435 467L262 10Q259 0 250 0H218Z"  />
<glyph unicode="w" horiz-adv-x="736" d="M505 0Q496 0 493 10L369 391H368L242 10Q239 0 230 0H200Q191 0 188 10L39 467Q36 477 46 477H82Q91 477 95 467L217 86H218L342 467Q345 477 354 477H383Q392 477 395 467L521 86H522L641 467Q645 477 654 477H690Q700 477 697 467L548 10Q545 0 536 0H505Z"  />
<glyph unicode="x" horiz-adv-x="463" d="M378 0Q369 0 364 8L232 202H231L98 8Q93 0 84 0H44Q39 0 38 3T38 10L201 250L54 467Q52 471 53 474T60 477H101Q110 477 115 469L231 297H232L349 469Q354 477 363 477H403Q408 477 409 474T409 467L261 250L425 10Q427 6 426 3T419 0H378Z"  />
<glyph unicode="y" horiz-adv-x="467" d="M82 -180Q72 -180 72 -170V-138Q72 -128 82 -128H100Q115 -128 127 -124T150 -111T170 -84T190 -39L209 10L33 467Q30 477 40 477H78Q87 477 91 467L236 84H237L378 467Q381 477 390 477H428Q438 477 435 467L240 -46Q225 -87 210 -113T179 -154T145 -174T103 -180H82Z"  />
<glyph unicode="z" horiz-adv-x="467" d="M68 0Q58 0 58 10V40Q58 47 63 53L346 424V425H81Q71 425 71 435V467Q71 477 81 477H401Q411 477 411 467V435Q411 428 406 422L124 53V51H401Q411 51 411 41V10Q411 0 401 0H68Z"  />
<glyph unicode="{" horiz-adv-x="318" d="M230 -84Q182 -84 160 -60T138 21V220Q138 267 123 284T81 304Q71 306 71 314V346Q71 354 81 356Q107 358 122 375T138 440V635Q138 691 160 715T230 740H264Q274 740 274 730V703Q274 693 264 693H238Q213 693 201 680T189 637V446Q189 389 177 365T138 331V329Q151 324 161 316T177 295T186 263T189 214V19Q189 -11 201 -24T238 -37H264Q274 -37 274 -47V-74Q274 -84 264 -84H230Z"  />
<glyph unicode="|" horiz-adv-x="246" d="M109 -84Q99 -84 99 -74V730Q99 740 109 740H137Q147 740 147 730V-74Q147 -84 137 -84H109Z"  />
<glyph unicode="}" horiz-adv-x="318" d="M54 -84Q44 -84 44 -74V-47Q44 -37 54 -37H80Q105 -37 117 -24T129 19V214Q129 243 132 262T141 295T156 316T180 329V331Q153 341 141 365T129 446V637Q129 667 117 680T80 693H54Q44 693 44 703V730Q44 740 54 740H88Q136 740 158 716T180 635V440Q180 393 195 376T237 356Q247 354 247 346V314Q247 306 237 304Q211 302 196 285T180 220V21Q180 -35 158 -59T88 -84H54Z"  />
<glyph unicode="~" horiz-adv-x="532" d="M351 216Q320 216 297 228T253 255Q236 267 218 277T179 287Q153 287 135 274T98 230Q93 222 84 228L64 241Q57 246 61 255Q80 292 111 313T180 334Q212 334 235 322T278 295Q295 283 313 273T352 263Q378 263 396 277T433 320Q438 329 448 322L467 310Q475 305 470 296Q451 259 420 238T351 216Z"  />
<glyph unicode="&#xA0;" horiz-adv-x="246" />
<glyph unicode="&#xA1;" horiz-adv-x="266" d="M144 300Q154 300 154 290L162 -193Q162 -203 152 -203H113Q103 -203 103 -193L111 290Q111 300 121 300H144ZM168 400Q168 390 158 390H108Q98 390 98 400V467Q98 477 108 477H158Q168 477 168 467V400Z"  />
<glyph unicode="&#xA2;" horiz-adv-x="532" d="M296 487Q350 484 387 461T446 398Q451 390 443 384L419 364Q416 361 412 362T405 367Q385 400 361 416T296 435V42Q336 44 360 61T405 110Q407 114 411 115T419 113L443 93Q450 86 446 78Q424 41 387 17T296 -10V-92Q296 -102 286 -102H268Q258 -102 258 -92V-8Q199 -3 160 28T103 114Q96 136 92 166T87 238Q87 281 91 310T103 363Q120 416 159 448T258 485V568Q258 578 268 578H286Q296 578 296 568V487ZM142 238Q142 202 145 177T156 131Q180 54 258 43V433Q180 422 156 345Q149 325 146 300T142 238Z"  />
<glyph unicode="&#xA3;" horiz-adv-x="532" d="M112 0Q102 0 102 10V41Q102 47 107 52Q119 64 126 74T138 95T144 120T146 154V291Q146 297 140 297H90Q80 297 80 307V334Q80 344 90 344H140Q146 344 146 350V519Q146 602 187 646T298 690Q357 690 394 657T444 570Q445 561 436 558L404 549Q394 546 392 556Q383 595 359 616T297 638Q255 638 228 611T201 526V350Q201 344 207 344H343Q353 344 353 334V307Q353 297 343 297H207Q201 297 201 291V160Q201 122 194 98T169 53V52H440Q450 52 450 42V10Q450 0 440 0H112Z"  />
<glyph unicode="&#xA4;" horiz-adv-x="532" d="M462 106Q454 100 448 106L383 171Q359 153 330 143T267 133Q233 133 204 143T150 171L86 107Q79 100 72 107L52 129Q45 136 52 143L115 206Q78 255 78 323Q78 357 88 386T116 440L52 504Q45 511 52 518L72 540Q79 547 86 540L151 475Q174 493 203 503T267 513Q300 513 329 503T382 475L447 540Q455 548 461 540L481 518Q489 510 481 504L417 440Q435 416 445 387T455 323Q455 289 445 260T418 207L482 143Q488 135 482 129L462 106ZM267 180Q297 180 322 191T366 221T395 267T406 323Q406 353 396 379T367 424T323 455T267 466Q237 466 211 455T167 425T138 379T127 323Q127 293 137 267T166 222T211 191T267 180Z"  />
<glyph unicode="&#xA5;" horiz-adv-x="532" d="M249 0Q239 0 239 10V155Q239 161 233 161H101Q91 161 91 171V196Q91 206 101 206H233Q239 206 239 212V272Q239 278 233 278H101Q91 278 91 288V313Q91 323 101 323H221V324L60 667Q58 672 60 676T68 680H103Q114 680 118 670L266 343H268L415 670Q419 680 430 680H464Q470 680 472 676T472 667L311 324V323H431Q441 323 441 313V288Q441 278 431 278H299Q293 278 293 272V212Q293 206 299 206H431Q441 206 441 196V171Q441 161 431 161H299Q293 161 293 155V10Q293 0 283 0H249Z"  />
<glyph unicode="&#xA6;" horiz-adv-x="246" d="M109 388Q99 388 99 398V730Q99 740 109 740H137Q147 740 147 730V398Q147 388 137 388H109ZM109 -84Q99 -84 99 -74V262Q99 272 109 272H137Q147 272 147 262V-74Q147 -84 137 -84H109Z"  />
<glyph unicode="&#xA7;" horiz-adv-x="530" d="M262 -190Q189 -190 147 -152T103 -44Q103 -34 111 -33L143 -26Q152 -23 154 -33Q154 -62 162 -82T185 -116T219 -135T262 -141Q310 -141 340 -116T370 -40Q370 8 339 34T232 75Q158 90 125 135T92 253Q92 281 98 307T118 354T152 392T201 416V417Q156 439 135 468T114 548Q114 579 125 605T157 650T205 679T267 690Q304 690 332 679T378 649T407 606T417 555Q417 545 410 544L378 537Q368 534 368 544Q366 589 341 615T268 641Q221 641 194 617T167 548Q167 501 195 474T298 431Q438 399 438 253Q438 194 412 151T332 90V89Q371 73 396 43T422 -42Q422 -77 410 -104T376 -151T325 -180T262 -190ZM265 124Q318 124 352 157T386 253Q386 316 352 348T265 381Q211 381 178 349T144 253Q144 190 177 157T265 124Z"  />
<glyph unicode="&#xA8;" horiz-adv-x="421" d="M290 604Q280 604 280 614V670Q280 680 290 680H330Q340 680 340 670V614Q340 604 330 604H290ZM91 604Q81 604 81 614V670Q81 680 91 680H131Q141 680 141 670V614Q141 604 131 604H91Z"  />
<glyph unicode="&#xA9;" horiz-adv-x="830" d="M415 -10Q340 -10 276 16T165 90T92 201T65 340Q65 415 91 479T165 590T276 663T415 690Q490 690 554 664T665 590T738 479T765 340Q765 265 739 201T665 90T554 17T415 -10ZM415 32Q481 32 537 55T634 120T698 217T722 340Q722 406 699 462T634 560T537 624T415 648Q349 648 293 625T196 560T132 463T108 340Q108 274 131 218T196 120T293 56T415 32ZM422 144Q369 144 332 169T278 246Q273 262 270 282T267 340Q267 378 270 398T278 434Q294 485 331 510T422 536Q469 536 502 516T553 466Q558 458 549 453L532 437Q524 434 518 440Q502 464 480 478T422 493Q345 493 321 421Q316 407 314 391T312 340Q312 306 314 290T321 259Q345 187 422 187Q458 187 480 201T518 240Q524 246 532 243L549 227Q558 222 553 214Q535 184 502 164T422 144Z"  />
<glyph unicode="&#xAA;" horiz-adv-x="340" d="M251 392Q241 392 241 402V422H239Q228 405 205 396T146 386Q102 386 74 408T45 472Q45 519 76 541T165 563H234Q240 563 240 569V589Q240 619 225 632T164 645Q138 645 121 640T89 626Q81 619 75 627L65 646Q59 655 67 660Q83 672 108 679T168 687Q233 687 259 666T285 590V402Q285 392 275 392H251ZM158 426Q194 426 217 441T240 480V519Q240 525 234 525H169Q90 525 90 476Q90 452 108 439T158 426Z"  />
<glyph unicode="&#xAB;" horiz-adv-x="528" d="M271 257Q264 264 271 271L442 447Q445 450 448 449T452 443V398Q452 392 451 389T445 380L334 268Q330 264 334 260L445 148Q450 143 451 140T452 130V85Q452 80 449 79T442 81L271 257ZM69 257Q62 264 69 271L240 447Q243 450 246 449T250 443V398Q250 392 249 389T243 380L132 268Q128 264 132 260L243 148Q250 141 250 130V85Q250 80 247 79T240 81L69 257Z"  />
<glyph unicode="&#xAC;" horiz-adv-x="532" d="M424 117Q414 117 414 127V245Q414 251 408 251H76Q66 251 66 261V291Q66 301 76 301H456Q466 301 466 291V127Q466 117 456 117H424Z"  />
<glyph unicode="&#xAD;" horiz-adv-x="373" d="M59 241Q49 241 49 251V282Q49 292 59 292H315Q325 292 325 282V251Q325 241 315 241H59Z"  />
<glyph unicode="&#xAE;" horiz-adv-x="459" d="M230 300Q189 300 154 314T92 355T52 416T37 493Q37 534 51 569T92 630T153 670T230 685Q271 685 306 671T367 630T407 569T422 493Q422 452 408 417T367 355T306 315T230 300ZM230 329Q264 329 294 341T345 375T379 427T392 493Q392 528 380 558T346 609T294 643T230 656Q195 656 165 644T113 610T79 558T67 493Q67 457 79 427T113 376T165 342T230 329ZM166 386Q157 386 157 395V593Q157 602 166 602H245Q277 602 295 585T313 539Q313 517 303 502T271 480L313 396Q316 391 314 389T307 386H290Q286 386 284 388T280 393L238 476H193Q190 476 190 474V395Q190 386 181 386H166ZM244 506Q282 506 282 539Q282 573 244 573H193Q190 573 190 571V508Q190 506 193 506H244Z"  />
<glyph unicode="&#xAF;" horiz-adv-x="421" d="M90 618Q80 618 80 628V654Q80 664 90 664H330Q340 664 340 654V628Q340 618 330 618H90Z"  />
<glyph unicode="&#xB0;" horiz-adv-x="448" d="M223 401Q193 401 167 412T122 442T92 487T81 544Q81 575 92 601T122 646T167 676T223 687Q254 687 280 676T325 646T355 601T366 544Q366 513 355 487T325 442T280 412T223 401ZM223 439Q268 439 296 469T325 544Q325 566 318 585T297 618T264 641T223 649Q178 649 150 619T122 544Q122 499 150 469T223 439Z"  />
<glyph unicode="&#xB1;" horiz-adv-x="532" d="M250 108Q240 108 240 118V278Q240 284 234 284H76Q66 284 66 294V324Q66 334 76 334H234Q240 334 240 340V500Q240 510 250 510H282Q292 510 292 500V340Q292 334 298 334H456Q466 334 466 324V294Q466 284 456 284H298Q292 284 292 278V118Q292 108 282 108H250ZM76 0Q66 0 66 10V40Q66 50 76 50H456Q466 50 466 40V10Q466 0 456 0H76Z"  />
<glyph unicode="&#xB2;" horiz-adv-x="331" d="M53 430Q43 430 43 440V463Q43 469 49 477L205 658Q221 676 230 694T239 732Q239 761 220 780T169 800Q139 800 120 784T94 740Q92 730 82 732L59 737Q49 739 50 749Q53 767 62 783T87 813T122 835T169 843Q225 843 255 811T285 732Q285 704 274 681T241 631L104 475V473H278Q288 473 288 463V440Q288 430 278 430H53Z"  />
<glyph unicode="&#xB3;" horiz-adv-x="331" d="M166 423Q115 423 84 446T41 506Q38 515 47 518L72 525Q80 528 84 519Q93 498 113 482T165 466Q201 466 222 487T244 542Q244 575 222 597T163 619H145Q135 619 135 629V652Q135 662 145 662H160Q194 662 214 681T235 732Q235 762 216 781T162 800Q130 800 114 786T89 753Q86 744 78 745L55 751Q45 753 47 762Q55 794 83 818T163 843Q218 843 249 813T281 734Q281 702 266 680T229 644V643Q239 639 250 631T270 610T284 581T290 543Q290 490 256 457T166 423Z"  />
<glyph unicode="&#xB4;" horiz-adv-x="421" d="M148 558Q137 558 142 568L219 690Q225 700 236 700H274Q279 700 280 697T279 690L191 568Q186 563 183 561T173 558H148Z"  />
<glyph unicode="&#xB5;" horiz-adv-x="544" d="M407 0Q397 0 397 10V67H396Q380 32 345 11T262 -10Q222 -10 194 2T148 41H146V-170Q146 -180 136 -180H102Q92 -180 92 -170V467Q92 477 102 477H136Q146 477 146 467V175Q146 110 177 76T269 42Q324 42 360 77T397 175V467Q397 477 407 477H442Q452 477 452 467V10Q452 0 442 0H407Z"  />
<glyph unicode="&#xB6;" horiz-adv-x="570" d="M440 -180Q430 -180 430 -170V624Q430 630 424 630H328Q322 630 322 624V-170Q322 -180 312 -180H281Q271 -180 271 -170V266Q226 269 190 285T130 329T92 393T78 473Q78 516 92 554T134 620T203 664T298 680H471Q481 680 481 670V-170Q481 -180 471 -180H440Z"  />
<glyph unicode="&#xB7;" horiz-adv-x="219" d="M85 222Q75 222 75 232V299Q75 309 85 309H134Q144 309 144 299V232Q144 222 134 222H85Z"  />
<glyph unicode="&#xB8;" horiz-adv-x="421" d="M169 -148Q159 -148 162 -138L216 0Q220 10 229 10H255Q265 10 262 0L216 -138Q212 -148 200 -148H169Z"  />
<glyph unicode="&#xB9;" horiz-adv-x="331" d="M170 430Q160 430 160 440V779H159L90 732Q86 730 83 731T80 737V769Q80 779 87 783L155 830Q164 836 171 836H196Q206 836 206 826V440Q206 430 196 430H170Z"  />
<glyph unicode="&#xBA;" horiz-adv-x="346" d="M173 385Q81 385 54 465Q49 479 47 495T44 536Q44 560 46 576T54 607Q81 687 173 687Q265 687 292 607Q297 593 299 577T302 536Q302 512 300 496T292 465Q265 385 173 385ZM173 428Q230 428 246 480Q250 491 252 504T254 536Q254 555 252 568T246 592Q230 644 173 644Q116 644 100 592Q96 581 94 568T92 536Q92 517 94 504T100 480Q116 428 173 428Z"  />
<glyph unicode="&#xBB;" horiz-adv-x="528" d="M288 81Q285 78 282 79T278 85V130Q278 141 285 148L396 260Q400 264 396 268L285 380Q280 385 279 388T278 398V443Q278 448 281 449T288 447L459 271Q466 264 459 257L288 81ZM86 81Q83 78 80 79T76 85V130Q76 141 83 148L194 260Q198 264 194 268L83 380Q78 385 77 388T76 398V443Q76 448 79 449T86 447L257 271Q264 264 257 257L86 81Z"  />
<glyph unicode="&#xBC;" horiz-adv-x="828" d="M188 274Q178 274 178 284V623H177L108 576Q104 574 101 575T98 581V613Q98 623 105 627L173 674Q182 680 189 680H214Q224 680 224 670V284Q224 274 214 274H188ZM644 1Q634 1 634 11V71Q634 77 628 77H467Q457 77 457 87V109Q457 117 461 125L594 397Q598 407 607 407H636Q641 407 642 404T642 397L509 121V120H628Q634 120 634 126V224Q634 234 644 234H669Q679 234 679 224V126Q679 120 685 120H721Q731 120 731 110V87Q731 77 721 77H685Q679 77 679 71V11Q679 1 669 1H644ZM185 -10Q174 -10 179 0L573 680Q579 690 587 690H614Q625 690 620 680L226 0Q220 -10 212 -10H185Z"  />
<glyph unicode="&#xBD;" horiz-adv-x="859" d="M188 274Q178 274 178 284V623H177L108 576Q104 574 101 575T98 581V613Q98 623 105 627L173 674Q182 680 189 680H214Q224 680 224 670V284Q224 274 214 274H188ZM526 1Q516 1 516 11V34Q516 40 522 48L678 229Q694 247 703 265T712 303Q712 332 693 351T642 371Q612 371 593 355T567 311Q565 301 555 303L532 308Q522 310 523 320Q526 338 535 354T560 384T595 406T642 414Q698 414 728 382T758 303Q758 275 747 252T714 202L577 46V44H751Q761 44 761 34V11Q761 1 751 1H526ZM185 -10Q174 -10 179 0L573 680Q579 690 587 690H614Q625 690 620 680L226 0Q220 -10 212 -10H185Z"  />
<glyph unicode="&#xBE;" horiz-adv-x="897" d="M712 1Q702 1 702 11V71Q702 77 696 77H535Q525 77 525 87V109Q525 117 529 125L662 397Q666 407 675 407H704Q709 407 710 404T710 397L577 121V120H696Q702 120 702 126V224Q702 234 712 234H737Q747 234 747 224V126Q747 120 753 120H789Q799 120 799 110V87Q799 77 789 77H753Q747 77 747 71V11Q747 1 737 1H712ZM254 -10Q243 -10 248 0L642 680Q648 690 656 690H683Q694 690 689 680L295 0Q289 -10 281 -10H254ZM223 267Q172 267 141 290T98 350Q95 359 104 362L129 369Q137 372 141 363Q150 342 170 326T222 310Q258 310 279 331T301 386Q301 419 279 441T220 463H202Q192 463 192 473V496Q192 506 202 506H217Q251 506 271 525T292 576Q292 606 273 625T219 644Q187 644 171 630T146 597Q143 588 135 589L112 595Q102 597 104 606Q112 638 140 662T220 687Q275 687 306 657T338 578Q338 546 323 524T286 488V487Q296 483 307 475T327 454T341 425T347 387Q347 334 313 301T223 267Z"  />
<glyph unicode="&#xBF;" horiz-adv-x="446" d="M253 254Q253 223 247 202T221 156L166 83Q147 60 136 43T117 10T108 -18T105 -48Q105 -102 138 -131T223 -161Q273 -161 304 -132T347 -49Q349 -39 358 -41L392 -47Q402 -49 400 -59Q389 -127 343 -170T222 -213Q183 -213 152 -201T98 -167T63 -115T50 -48Q50 -7 64 24T111 96L166 170Q176 182 182 192T192 212T197 233T198 258V293Q198 303 208 303H243Q253 303 253 293V254ZM261 400Q261 390 251 390H201Q191 390 191 400V467Q191 477 201 477H251Q261 477 261 467V400Z"  />
<glyph unicode="&#xC0;" horiz-adv-x="596" d="M269 670Q272 680 281 680H317Q326 680 329 670L565 10Q568 0 558 0H519Q508 0 506 10L446 177H150L90 10Q86 0 77 0H38Q28 0 31 10L269 670ZM427 232L300 588H297L169 232H427ZM285 764Q279 764 276 765T267 773L171 878Q168 882 169 885T175 888H215Q226 888 233 878L315 774Q319 769 318 767T311 764H285Z"  />
<glyph unicode="&#xC1;" horiz-adv-x="596" d="M269 670Q272 680 281 680H317Q326 680 329 670L565 10Q568 0 558 0H519Q508 0 506 10L446 177H150L90 10Q86 0 77 0H38Q28 0 31 10L269 670ZM427 232L300 588H297L169 232H427ZM288 764Q283 764 282 766T284 774L366 878Q373 888 384 888H424Q429 888 430 885T428 878L332 773Q327 767 324 766T314 764H288Z"  />
<glyph unicode="&#xC2;" horiz-adv-x="596" d="M269 670Q272 680 281 680H317Q326 680 329 670L565 10Q568 0 558 0H519Q508 0 506 10L446 177H150L90 10Q86 0 77 0H38Q28 0 31 10L269 670ZM427 232L300 588H297L169 232H427ZM386 754Q376 754 369 764L298 849H296L226 764Q217 754 209 754H184Q179 754 178 757T180 764L270 887Q276 896 286 896H309Q318 896 324 887L415 764Q418 760 417 757T411 754H386Z"  />
<glyph unicode="&#xC3;" horiz-adv-x="596" d="M269 670Q272 680 281 680H317Q326 680 329 670L565 10Q568 0 558 0H519Q508 0 506 10L446 177H150L90 10Q86 0 77 0H38Q28 0 31 10L269 670ZM427 232L300 588H297L169 232H427ZM350 782Q332 782 318 788T290 803Q278 811 267 816T241 821Q224 821 211 812T183 788Q174 781 174 791V821Q174 828 182 836Q194 850 209 858T243 866Q261 866 275 860T303 846Q315 838 326 833T352 828Q369 828 383 837T411 861Q414 864 416 863T419 858V828Q419 823 418 820T412 812Q399 799 384 791T350 782Z"  />
<glyph unicode="&#xC4;" horiz-adv-x="596" d="M269 670Q272 680 281 680H317Q326 680 329 670L565 10Q568 0 558 0H519Q508 0 506 10L446 177H150L90 10Q86 0 77 0H38Q28 0 31 10L269 670ZM427 232L300 588H297L169 232H427ZM378 786Q368 786 368 796V852Q368 862 378 862H417Q427 862 427 852V796Q427 786 417 786H378ZM178 786Q168 786 168 796V852Q168 862 178 862H217Q227 862 227 852V796Q227 786 217 786H178Z"  />
<glyph unicode="&#xC5;" horiz-adv-x="596" d="M269 670Q272 680 281 680H317Q326 680 329 670L565 10Q568 0 558 0H519Q508 0 506 10L446 177H150L90 10Q86 0 77 0H38Q28 0 31 10L269 670ZM427 232L300 588H297L169 232H427ZM385 826Q385 788 360 763T297 738Q259 738 234 763T209 826Q209 864 234 889T297 914Q335 914 360 889T385 826ZM350 826Q350 850 336 866T297 882Q273 882 259 866T244 826Q244 802 258 786T297 770Q321 770 335 786T350 826Z"  />
<glyph unicode="&#xC6;" horiz-adv-x="941" d="M489 0Q479 0 479 10V171Q479 177 473 177H200L96 10Q91 0 82 0H38Q33 0 32 3T32 10L439 671Q445 680 454 680H878Q888 680 888 670V636Q888 626 878 626H542Q536 626 536 620V378Q536 372 542 372H831Q841 372 841 362V328Q841 318 831 318H542Q536 318 536 312V60Q536 54 542 54H878Q888 54 888 44V10Q888 0 878 0H489ZM234 232H473Q479 232 479 238V625H477L234 232Z"  />
<glyph unicode="&#xC7;" horiz-adv-x="556" d="M231 -148Q221 -148 224 -138L274 -9Q205 -4 156 33T83 142Q79 155 76 170T70 209T67 263T65 340Q65 385 66 416T70 471T75 509T83 538Q109 615 163 652T298 690Q368 690 421 659T503 564Q507 555 500 551L467 535Q459 530 454 539Q431 583 394 609T298 636Q235 636 197 608T138 523Q135 513 132 499T127 464T124 413T123 340Q123 297 124 267T127 216T132 181T138 157Q158 101 196 73T298 44Q356 44 393 70T454 141Q459 150 467 145L500 129Q507 125 503 116Q477 59 431 28T321 -9L278 -138Q274 -148 262 -148H231Z"  />
<glyph unicode="&#xC8;" horiz-adv-x="556" d="M302 764Q296 764 293 765T284 773L188 878Q185 882 186 885T192 888H232Q243 888 250 878L332 774Q336 769 335 767T328 764H302ZM94 670Q94 680 104 680H493Q503 680 503 670V636Q503 626 493 626H157Q151 626 151 620V378Q151 372 157 372H446Q456 372 456 362V328Q456 318 446 318H157Q151 318 151 312V60Q151 54 157 54H493Q503 54 503 44V10Q503 0 493 0H104Q94 0 94 10V670Z"  />
<glyph unicode="&#xC9;" horiz-adv-x="556" d="M257 764Q252 764 251 766T253 774L335 878Q342 888 353 888H393Q398 888 399 885T397 878L301 773Q296 767 293 766T283 764H257ZM94 670Q94 680 104 680H493Q503 680 503 670V636Q503 626 493 626H157Q151 626 151 620V378Q151 372 157 372H446Q456 372 456 362V328Q456 318 446 318H157Q151 318 151 312V60Q151 54 157 54H493Q503 54 503 44V10Q503 0 493 0H104Q94 0 94 10V670Z"  />
<glyph unicode="&#xCA;" horiz-adv-x="556" d="M94 670Q94 680 104 680H493Q503 680 503 670V636Q503 626 493 626H157Q151 626 151 620V378Q151 372 157 372H446Q456 372 456 362V328Q456 318 446 318H157Q151 318 151 312V60Q151 54 157 54H493Q503 54 503 44V10Q503 0 493 0H104Q94 0 94 10V670ZM387 754Q377 754 370 764L299 849H297L227 764Q218 754 210 754H185Q180 754 179 757T181 764L271 887Q277 896 287 896H310Q319 896 325 887L416 764Q419 760 418 757T412 754H387Z"  />
<glyph unicode="&#xCB;" horiz-adv-x="556" d="M374 786Q364 786 364 796V852Q364 862 374 862H413Q423 862 423 852V796Q423 786 413 786H374ZM174 786Q164 786 164 796V852Q164 862 174 862H213Q223 862 223 852V796Q223 786 213 786H174ZM94 670Q94 680 104 680H493Q503 680 503 670V636Q503 626 493 626H157Q151 626 151 620V378Q151 372 157 372H446Q456 372 456 362V328Q456 318 446 318H157Q151 318 151 312V60Q151 54 157 54H493Q503 54 503 44V10Q503 0 493 0H104Q94 0 94 10V670Z"  />
<glyph unicode="&#xCC;" horiz-adv-x="245" d="M94 670Q94 680 104 680H141Q151 680 151 670V10Q151 0 141 0H104Q94 0 94 10V670ZM115 764Q109 764 106 765T97 773L1 878Q-2 882 -1 885T5 888H45Q56 888 63 878L145 774Q149 769 148 767T141 764H115Z"  />
<glyph unicode="&#xCD;" horiz-adv-x="245" d="M94 670Q94 680 104 680H141Q151 680 151 670V10Q151 0 141 0H104Q94 0 94 10V670ZM113 764Q108 764 107 766T109 774L191 878Q198 888 209 888H249Q254 888 255 885T253 878L157 773Q152 767 149 766T139 764H113Z"  />
<glyph unicode="&#xCE;" horiz-adv-x="245" d="M94 670Q94 680 104 680H141Q151 680 151 670V10Q151 0 141 0H104Q94 0 94 10V670ZM213 754Q203 754 196 764L125 849H123L53 764Q44 754 36 754H11Q6 754 5 757T7 764L97 887Q103 896 113 896H136Q145 896 151 887L242 764Q245 760 244 757T238 754H213Z"  />
<glyph unicode="&#xCF;" horiz-adv-x="245" d="M94 670Q94 680 104 680H141Q151 680 151 670V10Q151 0 141 0H104Q94 0 94 10V670ZM205 786Q195 786 195 796V852Q195 862 205 862H244Q254 862 254 852V796Q254 786 244 786H205ZM5 786Q-5 786 -5 796V852Q-5 862 5 862H44Q54 862 54 852V796Q54 786 44 786H5Z"  />
<glyph unicode="&#xD0;" horiz-adv-x="620" d="M104 0Q94 0 94 10V314Q94 320 88 320H48Q38 320 38 330V360Q38 370 48 370H88Q94 370 94 376V670Q94 680 104 680H317Q489 680 534 542Q539 527 542 511T548 473T552 418T553 340Q553 293 552 262T549 208T543 169T534 138Q489 0 317 0H104ZM309 54Q375 54 418 78T479 157Q483 169 486 183T491 217T494 267T495 340Q495 383 494 412T491 462T486 497T479 523Q461 577 418 601T309 626H157Q151 626 151 620V376Q151 370 157 370H287Q297 370 297 360V330Q297 320 287 320H157Q151 320 151 314V60Q151 54 157 54H309Z"  />
<glyph unicode="&#xD1;" horiz-adv-x="651" d="M378 782Q360 782 346 788T318 803Q306 811 295 816T269 821Q252 821 239 812T211 788Q202 781 202 791V821Q202 828 210 836Q222 850 237 858T271 866Q289 866 303 860T331 846Q343 838 354 833T380 828Q397 828 411 837T439 861Q442 864 444 863T447 858V828Q447 823 446 820T440 812Q427 799 412 791T378 782ZM94 670Q94 680 104 680H141Q153 680 158 670L497 111H500V670Q500 680 510 680H547Q557 680 557 670V10Q557 0 547 0H508Q497 0 491 10L155 570H151V10Q151 0 141 0H104Q94 0 94 10V670Z"  />
<glyph unicode="&#xD2;" horiz-adv-x="609" d="M308 764Q302 764 299 765T290 773L194 878Q191 882 192 885T198 888H238Q249 888 256 878L338 774Q342 769 341 767T334 764H308ZM305 -10Q221 -10 166 29T85 143Q80 156 77 172T71 211T67 265T65 340Q65 384 66 415T70 468T76 507T85 537Q110 612 165 651T305 690Q388 690 443 651T524 537Q528 523 532 507T538 469T542 415T544 340Q544 296 543 265T539 212T532 173T524 143Q499 68 444 29T305 -10ZM486 340Q486 381 485 411T481 462T476 497T469 521Q431 636 305 636Q178 636 140 521Q137 511 134 497T128 462T125 411T123 340Q123 299 124 269T128 218T133 183T140 159Q178 44 305 44Q431 44 469 159Q472 169 475 183T481 218T484 269T486 340Z"  />
<glyph unicode="&#xD3;" horiz-adv-x="609" d="M274 764Q269 764 268 766T270 774L352 878Q359 888 370 888H410Q415 888 416 885T414 878L318 773Q313 767 310 766T300 764H274ZM305 -10Q221 -10 166 29T85 143Q80 156 77 172T71 211T67 265T65 340Q65 384 66 415T70 468T76 507T85 537Q110 612 165 651T305 690Q388 690 443 651T524 537Q528 523 532 507T538 469T542 415T544 340Q544 296 543 265T539 212T532 173T524 143Q499 68 444 29T305 -10ZM486 340Q486 381 485 411T481 462T476 497T469 521Q431 636 305 636Q178 636 140 521Q137 511 134 497T128 462T125 411T123 340Q123 299 124 269T128 218T133 183T140 159Q178 44 305 44Q431 44 469 159Q472 169 475 183T481 218T484 269T486 340Z"  />
<glyph unicode="&#xD4;" horiz-adv-x="609" d="M305 -10Q221 -10 166 29T85 143Q80 156 77 172T71 211T67 265T65 340Q65 384 66 415T70 468T76 507T85 537Q110 612 165 651T305 690Q388 690 443 651T524 537Q528 523 532 507T538 469T542 415T544 340Q544 296 543 265T539 212T532 173T524 143Q499 68 444 29T305 -10ZM486 340Q486 381 485 411T481 462T476 497T469 521Q431 636 305 636Q178 636 140 521Q137 511 134 497T128 462T125 411T123 340Q123 299 124 269T128 218T133 183T140 159Q178 44 305 44Q431 44 469 159Q472 169 475 183T481 218T484 269T486 340ZM393 754Q383 754 376 764L305 849H303L233 764Q224 754 216 754H191Q186 754 185 757T187 764L277 887Q283 896 293 896H316Q325 896 331 887L422 764Q425 760 424 757T418 754H393Z"  />
<glyph unicode="&#xD5;" horiz-adv-x="609" d="M358 782Q340 782 326 788T298 803Q286 811 275 816T249 821Q232 821 219 812T191 788Q182 781 182 791V821Q182 828 190 836Q202 850 217 858T251 866Q269 866 283 860T311 846Q323 838 334 833T360 828Q377 828 391 837T419 861Q422 864 424 863T427 858V828Q427 823 426 820T420 812Q407 799 392 791T358 782ZM305 -10Q221 -10 166 29T85 143Q80 156 77 172T71 211T67 265T65 340Q65 384 66 415T70 468T76 507T85 537Q110 612 165 651T305 690Q388 690 443 651T524 537Q528 523 532 507T538 469T542 415T544 340Q544 296 543 265T539 212T532 173T524 143Q499 68 444 29T305 -10ZM486 340Q486 381 485 411T481 462T476 497T469 521Q431 636 305 636Q178 636 140 521Q137 511 134 497T128 462T125 411T123 340Q123 299 124 269T128 218T133 183T140 159Q178 44 305 44Q431 44 469 159Q472 169 475 183T481 218T484 269T486 340Z"  />
<glyph unicode="&#xD6;" horiz-adv-x="609" d="M385 786Q375 786 375 796V852Q375 862 385 862H424Q434 862 434 852V796Q434 786 424 786H385ZM185 786Q175 786 175 796V852Q175 862 185 862H224Q234 862 234 852V796Q234 786 224 786H185ZM305 -10Q221 -10 166 29T85 143Q80 156 77 172T71 211T67 265T65 340Q65 384 66 415T70 468T76 507T85 537Q110 612 165 651T305 690Q388 690 443 651T524 537Q528 523 532 507T538 469T542 415T544 340Q544 296 543 265T539 212T532 173T524 143Q499 68 444 29T305 -10ZM486 340Q486 381 485 411T481 462T476 497T469 521Q431 636 305 636Q178 636 140 521Q137 511 134 497T128 462T125 411T123 340Q123 299 124 269T128 218T133 183T140 159Q178 44 305 44Q431 44 469 159Q472 169 475 183T481 218T484 269T486 340Z"  />
<glyph unicode="&#xD7;" horiz-adv-x="532" d="M412 109Q405 102 398 109L271 236Q267 240 263 236L135 109Q128 102 121 109L101 131Q94 138 101 145L228 272Q232 276 228 280L101 407Q94 414 101 421L121 443Q128 450 135 443L263 316Q267 312 271 316L398 443Q405 450 412 443L432 421Q439 414 432 407L305 280Q301 276 305 272L432 145Q439 138 432 131L412 109Z"  />
<glyph unicode="&#xD8;" horiz-adv-x="609" d="M305 -10Q213 -10 154 38L121 -20Q116 -30 106 -30H82Q71 -30 76 -20L125 66Q100 99 85 143Q80 156 77 172T71 211T67 265T65 340Q65 384 66 415T70 468T76 507T85 537Q110 612 165 651T305 690Q396 690 455 642L488 700Q493 710 503 710H527Q538 710 533 700L483 613Q509 581 524 537Q528 523 532 507T538 469T542 415T544 340Q544 296 543 265T539 212T532 173T524 143Q499 68 444 29T305 -10ZM140 159Q146 139 157 121L426 592Q380 636 305 636Q178 636 140 521Q137 511 134 497T128 462T125 411T123 340Q123 299 124 269T128 218T133 183T140 159ZM486 340Q486 381 485 411T481 462T476 497T469 521Q465 531 461 540T452 558L183 87Q227 44 305 44Q431 44 469 159Q472 169 475 183T481 218T484 269T486 340Z"  />
<glyph unicode="&#xD9;" horiz-adv-x="635" d="M320 764Q314 764 311 765T302 773L206 878Q203 882 204 885T210 888H250Q261 888 268 878L350 774Q354 769 353 767T346 764H320ZM144 234Q144 137 190 91T317 44Q399 44 445 90T491 234V670Q491 680 501 680H538Q548 680 548 670V235Q548 173 532 127T485 51T413 5T317 -10Q212 -10 150 50T87 235V670Q87 680 97 680H134Q144 680 144 670V234Z"  />
<glyph unicode="&#xDA;" horiz-adv-x="635" d="M286 764Q281 764 280 766T282 774L364 878Q371 888 382 888H422Q427 888 428 885T426 878L330 773Q325 767 322 766T312 764H286ZM144 234Q144 137 190 91T317 44Q399 44 445 90T491 234V670Q491 680 501 680H538Q548 680 548 670V235Q548 173 532 127T485 51T413 5T317 -10Q212 -10 150 50T87 235V670Q87 680 97 680H134Q144 680 144 670V234Z"  />
<glyph unicode="&#xDB;" horiz-adv-x="635" d="M144 234Q144 137 190 91T317 44Q399 44 445 90T491 234V670Q491 680 501 680H538Q548 680 548 670V235Q548 173 532 127T485 51T413 5T317 -10Q212 -10 150 50T87 235V670Q87 680 97 680H134Q144 680 144 670V234ZM406 754Q396 754 389 764L318 849H316L246 764Q237 754 229 754H204Q199 754 198 757T200 764L290 887Q296 896 306 896H329Q338 896 344 887L435 764Q438 760 437 757T431 754H406Z"  />
<glyph unicode="&#xDC;" horiz-adv-x="635" d="M398 786Q388 786 388 796V852Q388 862 398 862H437Q447 862 447 852V796Q447 786 437 786H398ZM198 786Q188 786 188 796V852Q188 862 198 862H237Q247 862 247 852V796Q247 786 237 786H198ZM144 234Q144 137 190 91T317 44Q399 44 445 90T491 234V670Q491 680 501 680H538Q548 680 548 670V235Q548 173 532 127T485 51T413 5T317 -10Q212 -10 150 50T87 235V670Q87 680 97 680H134Q144 680 144 670V234Z"  />
<glyph unicode="&#xDD;" horiz-adv-x="515" d="M239 0Q229 0 229 10V279L25 669Q23 673 25 676T33 680H72Q82 680 87 670L258 345H261L429 670Q434 680 444 680H482Q488 680 490 677T490 669L286 279V10Q286 0 276 0H239ZM235 764Q230 764 229 766T231 774L313 878Q320 888 331 888H371Q376 888 377 885T375 878L279 773Q274 767 271 766T261 764H235Z"  />
<glyph unicode="&#xDE;" horiz-adv-x="585" d="M104 0Q94 0 94 10V670Q94 680 104 680H141Q151 680 151 670V545Q151 539 157 539H331Q429 539 484 488T540 347Q540 257 485 206T331 154H157Q151 154 151 148V10Q151 0 141 0H104ZM329 208Q404 208 443 244T483 347Q483 413 444 449T329 485H157Q151 485 151 479V214Q151 208 157 208H329Z"  />
<glyph unicode="&#xDF;" horiz-adv-x="539" d="M282 -5Q272 -5 272 5V37Q272 47 282 47H296Q342 47 369 61T408 111Q410 117 412 125T415 145T416 176T417 221Q417 274 415 297T407 334Q396 370 368 384T294 399H282Q272 399 272 409V441Q272 451 282 451H297Q354 451 380 473T407 543Q407 589 376 614T283 639Q208 639 177 606T146 496V10Q146 0 136 0H102Q92 0 92 10V496Q92 543 102 579T135 640T194 677T282 690Q372 690 416 651T461 543Q461 497 443 469T390 427V425Q414 416 432 398T460 351Q463 342 465 332T468 307T470 272T471 221Q471 191 470 170T468 133T464 108T460 89Q443 37 402 16T297 -5H282Z"  />
<glyph unicode="&#xE0;" horiz-adv-x="513" d="M250 437Q206 437 179 428T130 401Q121 394 115 402L98 427Q93 435 101 441Q127 463 164 475T253 487Q299 487 332 479T386 452T417 403T427 329V10Q427 0 417 0H385Q375 0 375 10V60H374Q360 30 323 10T226 -10Q154 -10 110 25T66 131Q66 203 112 237T247 272H368Q374 272 374 278V327Q374 356 369 377T349 411T310 431T250 437ZM237 40Q299 40 336 69T374 147V220Q374 226 368 226H254Q182 226 151 203T119 132Q119 87 149 64T237 40ZM282 558Q276 558 273 560T264 568L176 690Q173 694 174 697T181 700H219Q229 700 235 690L312 568Q315 563 314 561T307 558H282Z"  />
<glyph unicode="&#xE1;" horiz-adv-x="513" d="M250 437Q206 437 179 428T130 401Q121 394 115 402L98 427Q93 435 101 441Q127 463 164 475T253 487Q299 487 332 479T386 452T417 403T427 329V10Q427 0 417 0H385Q375 0 375 10V60H374Q360 30 323 10T226 -10Q154 -10 110 25T66 131Q66 203 112 237T247 272H368Q374 272 374 278V327Q374 356 369 377T349 411T310 431T250 437ZM237 40Q299 40 336 69T374 147V220Q374 226 368 226H254Q182 226 151 203T119 132Q119 87 149 64T237 40ZM236 558Q225 558 230 568L307 690Q313 700 324 700H362Q367 700 368 697T367 690L279 568Q274 563 271 561T261 558H236Z"  />
<glyph unicode="&#xE2;" horiz-adv-x="513" d="M250 437Q206 437 179 428T130 401Q121 394 115 402L98 427Q93 435 101 441Q127 463 164 475T253 487Q299 487 332 479T386 452T417 403T427 329V10Q427 0 417 0H385Q375 0 375 10V60H374Q360 30 323 10T226 -10Q154 -10 110 25T66 131Q66 203 112 237T247 272H368Q374 272 374 278V327Q374 356 369 377T349 411T310 431T250 437ZM237 40Q299 40 336 69T374 147V220Q374 226 368 226H254Q182 226 151 203T119 132Q119 87 149 64T237 40ZM345 558Q335 558 328 568L257 653H255L185 568Q176 558 168 558H143Q138 558 137 561T139 568L229 691Q235 700 245 700H268Q277 700 283 691L374 568Q377 564 376 561T370 558H345Z"  />
<glyph unicode="&#xE3;" horiz-adv-x="513" d="M250 437Q206 437 179 428T130 401Q121 394 115 402L98 427Q93 435 101 441Q127 463 164 475T253 487Q299 487 332 479T386 452T417 403T427 329V10Q427 0 417 0H385Q375 0 375 10V60H374Q360 30 323 10T226 -10Q154 -10 110 25T66 131Q66 203 112 237T247 272H368Q374 272 374 278V327Q374 356 369 377T349 411T310 431T250 437ZM237 40Q299 40 336 69T374 147V220Q374 226 368 226H254Q182 226 151 203T119 132Q119 87 149 64T237 40ZM309 596Q291 596 277 602T249 617Q237 625 226 630T200 635Q183 635 170 626T142 602Q133 595 133 605V635Q133 642 141 650Q153 664 168 672T202 680Q220 680 234 674T262 660Q274 652 285 647T311 642Q328 642 342 651T370 675Q373 678 375 677T378 672V642Q378 637 377 634T371 626Q358 613 343 605T309 596Z"  />
<glyph unicode="&#xE4;" horiz-adv-x="513" d="M250 437Q206 437 179 428T130 401Q121 394 115 402L98 427Q93 435 101 441Q127 463 164 475T253 487Q299 487 332 479T386 452T417 403T427 329V10Q427 0 417 0H385Q375 0 375 10V60H374Q360 30 323 10T226 -10Q154 -10 110 25T66 131Q66 203 112 237T247 272H368Q374 272 374 278V327Q374 356 369 377T349 411T310 431T250 437ZM237 40Q299 40 336 69T374 147V220Q374 226 368 226H254Q182 226 151 203T119 132Q119 87 149 64T237 40ZM335 604Q325 604 325 614V670Q325 680 335 680H375Q385 680 385 670V614Q385 604 375 604H335ZM136 604Q126 604 126 614V670Q126 680 136 680H176Q186 680 186 670V614Q186 604 176 604H136Z"  />
<glyph unicode="&#xE5;" horiz-adv-x="513" d="M250 437Q206 437 179 428T130 401Q121 394 115 402L98 427Q93 435 101 441Q127 463 164 475T253 487Q299 487 332 479T386 452T417 403T427 329V10Q427 0 417 0H385Q375 0 375 10V60H374Q360 30 323 10T226 -10Q154 -10 110 25T66 131Q66 203 112 237T247 272H368Q374 272 374 278V327Q374 356 369 377T349 411T310 431T250 437ZM237 40Q299 40 336 69T374 147V220Q374 226 368 226H254Q182 226 151 203T119 132Q119 87 149 64T237 40ZM346 629Q346 591 321 566T258 541Q220 541 195 566T170 629Q170 667 195 692T258 717Q296 717 321 692T346 629ZM311 629Q311 653 297 669T258 685Q234 685 220 669T205 629Q205 605 219 589T258 573Q282 573 296 589T311 629Z"  />
<glyph unicode="&#xE6;" horiz-adv-x="814" d="M250 437Q206 437 179 428T130 401Q121 394 115 402L98 427Q93 435 101 441Q127 463 164 475T253 487Q318 487 357 469T410 407H412Q459 487 563 487Q628 487 674 455T741 363Q749 340 752 313T755 236Q755 226 744 226H433Q427 226 427 219Q427 189 429 171T437 135Q454 87 488 65T572 42Q619 42 651 59T705 103Q711 111 719 105L742 84Q749 78 743 70Q717 35 673 13T569 -10Q504 -10 464 16T402 83H401Q382 38 339 14T226 -10Q154 -10 110 25T66 131Q66 203 112 237T247 272H368Q374 272 374 278V327Q374 356 369 377T349 411T310 431T250 437ZM694 272Q700 272 700 278Q700 300 698 316T691 347Q677 392 644 414T563 437Q516 437 483 415T436 347Q431 333 429 317T427 278Q427 272 433 272H694ZM237 40Q299 40 336 69T374 147V220Q374 226 368 226H254Q182 226 151 203T119 132Q119 87 149 64T237 40Z"  />
<glyph unicode="&#xE7;" horiz-adv-x="470" d="M186 -148Q176 -148 179 -138L229 -8Q172 -3 132 28T75 114Q68 137 64 166T60 238Q60 281 64 310T75 363Q94 422 140 454T253 487Q310 487 349 464T414 397Q419 389 411 384L383 366Q375 361 370 370Q349 403 322 419T253 435Q206 435 174 413T128 345Q121 325 118 300T115 238Q115 201 118 177T128 132Q142 87 174 65T253 42Q295 42 322 58T370 107Q375 116 383 111L411 93Q419 88 414 80Q390 41 357 19T276 -9L233 -138Q229 -148 217 -148H186Z"  />
<glyph unicode="&#xE8;" horiz-adv-x="502" d="M257 -10Q187 -10 141 22T74 116Q67 138 64 165T60 239Q60 284 63 312T74 363Q94 423 140 455T251 487Q316 487 362 455T429 363Q437 340 440 313T443 236Q443 226 432 226H121Q115 226 115 219Q115 189 117 171T125 135Q142 87 176 65T260 42Q307 42 339 59T393 103Q399 111 407 105L430 84Q437 78 431 70Q405 35 361 13T257 -10ZM382 272Q388 272 388 278Q388 300 386 316T379 347Q365 392 332 414T251 437Q204 437 171 415T124 347Q119 333 117 317T115 278Q115 272 121 272H382ZM255 558Q249 558 246 560T237 568L149 690Q146 694 147 697T154 700H192Q202 700 208 690L285 568Q288 563 287 561T280 558H255Z"  />
<glyph unicode="&#xE9;" horiz-adv-x="502" d="M225 558Q214 558 219 568L296 690Q302 700 313 700H351Q356 700 357 697T356 690L268 568Q263 563 260 561T250 558H225ZM257 -10Q187 -10 141 22T74 116Q67 138 64 165T60 239Q60 284 63 312T74 363Q94 423 140 455T251 487Q316 487 362 455T429 363Q437 340 440 313T443 236Q443 226 432 226H121Q115 226 115 219Q115 189 117 171T125 135Q142 87 176 65T260 42Q307 42 339 59T393 103Q399 111 407 105L430 84Q437 78 431 70Q405 35 361 13T257 -10ZM382 272Q388 272 388 278Q388 300 386 316T379 347Q365 392 332 414T251 437Q204 437 171 415T124 347Q119 333 117 317T115 278Q115 272 121 272H382Z"  />
<glyph unicode="&#xEA;" horiz-adv-x="502" d="M339 558Q329 558 322 568L251 653H249L179 568Q170 558 162 558H137Q132 558 131 561T133 568L223 691Q229 700 239 700H262Q271 700 277 691L368 568Q371 564 370 561T364 558H339ZM257 -10Q187 -10 141 22T74 116Q67 138 64 165T60 239Q60 284 63 312T74 363Q94 423 140 455T251 487Q316 487 362 455T429 363Q437 340 440 313T443 236Q443 226 432 226H121Q115 226 115 219Q115 189 117 171T125 135Q142 87 176 65T260 42Q307 42 339 59T393 103Q399 111 407 105L430 84Q437 78 431 70Q405 35 361 13T257 -10ZM382 272Q388 272 388 278Q388 300 386 316T379 347Q365 392 332 414T251 437Q204 437 171 415T124 347Q119 333 117 317T115 278Q115 272 121 272H382Z"  />
<glyph unicode="&#xEB;" horiz-adv-x="502" d="M330 604Q320 604 320 614V670Q320 680 330 680H370Q380 680 380 670V614Q380 604 370 604H330ZM131 604Q121 604 121 614V670Q121 680 131 680H171Q181 680 181 670V614Q181 604 171 604H131ZM257 -10Q187 -10 141 22T74 116Q67 138 64 165T60 239Q60 284 63 312T74 363Q94 423 140 455T251 487Q316 487 362 455T429 363Q437 340 440 313T443 236Q443 226 432 226H121Q115 226 115 219Q115 189 117 171T125 135Q142 87 176 65T260 42Q307 42 339 59T393 103Q399 111 407 105L430 84Q437 78 431 70Q405 35 361 13T257 -10ZM382 272Q388 272 388 278Q388 300 386 316T379 347Q365 392 332 414T251 437Q204 437 171 415T124 347Q119 333 117 317T115 278Q115 272 121 272H382Z"  />
<glyph unicode="&#xEC;" horiz-adv-x="238" d="M102 0Q92 0 92 10V467Q92 477 102 477H136Q146 477 146 467V10Q146 0 136 0H102ZM109 558Q103 558 100 560T91 568L3 690Q0 694 1 697T8 700H46Q56 700 62 690L139 568Q142 563 141 561T134 558H109Z"  />
<glyph unicode="&#xED;" horiz-adv-x="238" d="M108 558Q97 558 102 568L179 690Q185 700 196 700H234Q239 700 240 697T239 690L151 568Q146 563 143 561T133 558H108ZM102 0Q92 0 92 10V467Q92 477 102 477H136Q146 477 146 467V10Q146 0 136 0H102Z"  />
<glyph unicode="&#xEE;" horiz-adv-x="238" d="M209 558Q199 558 192 568L121 653H119L49 568Q40 558 32 558H7Q2 558 1 561T3 568L93 691Q99 700 109 700H132Q141 700 147 691L238 568Q241 564 240 561T234 558H209ZM102 0Q92 0 92 10V467Q92 477 102 477H136Q146 477 146 467V10Q146 0 136 0H102Z"  />
<glyph unicode="&#xEF;" horiz-adv-x="238" d="M200 604Q190 604 190 614V670Q190 680 200 680H240Q250 680 250 670V614Q250 604 240 604H200ZM1 604Q-9 604 -9 614V670Q-9 680 1 680H41Q51 680 51 670V614Q51 604 41 604H1ZM102 0Q92 0 92 10V467Q92 477 102 477H136Q146 477 146 467V10Q146 0 136 0H102Z"  />
<glyph unicode="&#xF0;" horiz-adv-x="509" d="M293 576L332 529Q363 490 385 456T422 387T442 319T449 244Q449 195 445 166T434 114Q414 54 368 22T255 -10Q188 -10 142 22T76 114Q68 137 64 165T60 233Q60 273 64 301T76 353Q95 411 138 443T242 475Q267 475 287 469T330 448H331L241 560L145 531Q133 528 131 538L124 563Q123 572 132 575L210 598L153 670Q150 674 151 677T158 680H200Q206 680 209 678T217 670L262 614L356 642Q367 645 369 636L376 612Q378 602 369 599L293 576ZM255 42Q301 42 334 64T381 130Q388 150 391 174T394 233Q394 268 391 291T381 334Q367 377 335 401T255 425Q208 425 175 402T128 336Q121 316 118 292T115 233Q115 198 118 174T128 130Q142 87 175 65T255 42Z"  />
<glyph unicode="&#xF1;" horiz-adv-x="541" d="M411 0Q401 0 401 10V292Q401 435 276 435Q221 435 184 400T146 302V10Q146 0 136 0H102Q92 0 92 10V467Q92 477 102 477H136Q146 477 146 467V410H147Q165 445 201 466T288 487Q368 487 411 440T455 305V10Q455 0 445 0H411ZM323 596Q305 596 291 602T263 617Q251 625 240 630T214 635Q197 635 184 626T156 602Q147 595 147 605V635Q147 642 155 650Q167 664 182 672T216 680Q234 680 248 674T276 660Q288 652 299 647T325 642Q342 642 356 651T384 675Q387 678 389 677T392 672V642Q392 637 391 634T385 626Q372 613 357 605T323 596Z"  />
<glyph unicode="&#xF2;" horiz-adv-x="509" d="M254 -10Q188 -10 142 22T76 114Q68 138 64 166T60 239Q60 282 64 310T76 363Q96 423 142 455T254 487Q320 487 366 455T433 363Q441 339 445 311T449 239Q449 195 445 167T433 114Q413 54 367 22T254 -10ZM254 42Q301 42 334 65T381 131Q388 151 391 175T394 239Q394 277 391 301T381 346Q367 389 334 412T254 435Q208 435 175 412T128 346Q121 326 118 302T115 239Q115 200 118 176T128 131Q142 88 175 65T254 42ZM255 558Q249 558 246 560T237 568L149 690Q146 694 147 697T154 700H192Q202 700 208 690L285 568Q288 563 287 561T280 558H255Z"  />
<glyph unicode="&#xF3;" horiz-adv-x="509" d="M228 558Q217 558 222 568L299 690Q305 700 316 700H354Q359 700 360 697T359 690L271 568Q266 563 263 561T253 558H228ZM254 -10Q188 -10 142 22T76 114Q68 138 64 166T60 239Q60 282 64 310T76 363Q96 423 142 455T254 487Q320 487 366 455T433 363Q441 339 445 311T449 239Q449 195 445 167T433 114Q413 54 367 22T254 -10ZM254 42Q301 42 334 65T381 131Q388 151 391 175T394 239Q394 277 391 301T381 346Q367 389 334 412T254 435Q208 435 175 412T128 346Q121 326 118 302T115 239Q115 200 118 176T128 131Q142 88 175 65T254 42Z"  />
<glyph unicode="&#xF4;" horiz-adv-x="509" d="M342 558Q332 558 325 568L254 653H252L182 568Q173 558 165 558H140Q135 558 134 561T136 568L226 691Q232 700 242 700H265Q274 700 280 691L371 568Q374 564 373 561T367 558H342ZM254 -10Q188 -10 142 22T76 114Q68 138 64 166T60 239Q60 282 64 310T76 363Q96 423 142 455T254 487Q320 487 366 455T433 363Q441 339 445 311T449 239Q449 195 445 167T433 114Q413 54 367 22T254 -10ZM254 42Q301 42 334 65T381 131Q388 151 391 175T394 239Q394 277 391 301T381 346Q367 389 334 412T254 435Q208 435 175 412T128 346Q121 326 118 302T115 239Q115 200 118 176T128 131Q142 88 175 65T254 42Z"  />
<glyph unicode="&#xF5;" horiz-adv-x="509" d="M254 -10Q188 -10 142 22T76 114Q68 138 64 166T60 239Q60 282 64 310T76 363Q96 423 142 455T254 487Q320 487 366 455T433 363Q441 339 445 311T449 239Q449 195 445 167T433 114Q413 54 367 22T254 -10ZM254 42Q301 42 334 65T381 131Q388 151 391 175T394 239Q394 277 391 301T381 346Q367 389 334 412T254 435Q208 435 175 412T128 346Q121 326 118 302T115 239Q115 200 118 176T128 131Q142 88 175 65T254 42ZM307 596Q289 596 275 602T247 617Q235 625 224 630T198 635Q181 635 168 626T140 602Q131 595 131 605V635Q131 642 139 650Q151 664 166 672T200 680Q218 680 232 674T260 660Q272 652 283 647T309 642Q326 642 340 651T368 675Q371 678 373 677T376 672V642Q376 637 375 634T369 626Q356 613 341 605T307 596Z"  />
<glyph unicode="&#xF6;" horiz-adv-x="509" d="M333 604Q323 604 323 614V670Q323 680 333 680H373Q383 680 383 670V614Q383 604 373 604H333ZM134 604Q124 604 124 614V670Q124 680 134 680H174Q184 680 184 670V614Q184 604 174 604H134ZM254 -10Q188 -10 142 22T76 114Q68 138 64 166T60 239Q60 282 64 310T76 363Q96 423 142 455T254 487Q320 487 366 455T433 363Q441 339 445 311T449 239Q449 195 445 167T433 114Q413 54 367 22T254 -10ZM254 42Q301 42 334 65T381 131Q388 151 391 175T394 239Q394 277 391 301T381 346Q367 389 334 412T254 435Q208 435 175 412T128 346Q121 326 118 302T115 239Q115 200 118 176T128 131Q142 88 175 65T254 42Z"  />
<glyph unicode="&#xF7;" horiz-adv-x="532" d="M223 423Q223 441 235 453T266 466Q284 466 296 454T309 423Q309 405 297 393T266 380Q248 380 236 392T223 423ZM76 251Q66 251 66 261V291Q66 301 76 301H456Q466 301 466 291V261Q466 251 456 251H76ZM223 129Q223 147 235 159T266 172Q284 172 296 160T309 129Q309 111 297 99T266 86Q248 86 236 98T223 129Z"  />
<glyph unicode="&#xF8;" horiz-adv-x="509" d="M254 -10Q182 -10 134 29L101 -20Q94 -30 84 -30H67Q62 -30 61 -27T62 -20L109 52Q87 80 76 114Q68 138 64 166T60 239Q60 282 64 310T76 363Q96 423 142 455T254 487Q325 487 375 448L408 497Q415 507 425 507H442Q447 507 448 504T447 497L399 424Q420 400 433 363Q441 339 445 311T449 239Q449 195 445 167T433 114Q413 54 367 22T254 -10ZM128 131Q134 114 142 100L345 403Q310 435 254 435Q208 435 175 412T128 346Q121 326 118 302T115 239Q115 200 118 176T128 131ZM254 42Q301 42 334 65T381 131Q388 151 391 175T394 239Q394 277 391 301T381 346Q378 354 375 361T367 377L164 74Q199 42 254 42Z"  />
<glyph unicode="&#xF9;" horiz-adv-x="535" d="M399 0Q389 0 389 10V66H388Q370 31 334 11T249 -10Q169 -10 127 37T84 171V467Q84 477 94 477H128Q138 477 138 467V185Q138 42 261 42Q288 42 311 51T352 77T379 119T389 175V467Q389 477 399 477H433Q443 477 443 467V10Q443 0 433 0H399ZM271 558Q265 558 262 560T253 568L165 690Q162 694 163 697T170 700H208Q218 700 224 690L301 568Q304 563 303 561T296 558H271Z"  />
<glyph unicode="&#xFA;" horiz-adv-x="535" d="M239 558Q228 558 233 568L310 690Q316 700 327 700H365Q370 700 371 697T370 690L282 568Q277 563 274 561T264 558H239ZM399 0Q389 0 389 10V66H388Q370 31 334 11T249 -10Q169 -10 127 37T84 171V467Q84 477 94 477H128Q138 477 138 467V185Q138 42 261 42Q288 42 311 51T352 77T379 119T389 175V467Q389 477 399 477H433Q443 477 443 467V10Q443 0 433 0H399Z"  />
<glyph unicode="&#xFB;" horiz-adv-x="535" d="M355 558Q345 558 338 568L267 653H265L195 568Q186 558 178 558H153Q148 558 147 561T149 568L239 691Q245 700 255 700H278Q287 700 293 691L384 568Q387 564 386 561T380 558H355ZM399 0Q389 0 389 10V66H388Q370 31 334 11T249 -10Q169 -10 127 37T84 171V467Q84 477 94 477H128Q138 477 138 467V185Q138 42 261 42Q288 42 311 51T352 77T379 119T389 175V467Q389 477 399 477H433Q443 477 443 467V10Q443 0 433 0H399Z"  />
<glyph unicode="&#xFC;" horiz-adv-x="535" d="M346 604Q336 604 336 614V670Q336 680 346 680H386Q396 680 396 670V614Q396 604 386 604H346ZM147 604Q137 604 137 614V670Q137 680 147 680H187Q197 680 197 670V614Q197 604 187 604H147ZM399 0Q389 0 389 10V66H388Q370 31 334 11T249 -10Q169 -10 127 37T84 171V467Q84 477 94 477H128Q138 477 138 467V185Q138 42 261 42Q288 42 311 51T352 77T379 119T389 175V467Q389 477 399 477H433Q443 477 443 467V10Q443 0 433 0H399Z"  />
<glyph unicode="&#xFD;" horiz-adv-x="467" d="M82 -180Q72 -180 72 -170V-138Q72 -128 82 -128H100Q115 -128 127 -124T150 -111T170 -84T190 -39L209 10L33 467Q30 477 40 477H78Q87 477 91 467L236 84H237L378 467Q381 477 390 477H428Q438 477 435 467L240 -46Q225 -87 210 -113T179 -154T145 -174T103 -180H82ZM210 558Q199 558 204 568L281 690Q287 700 298 700H336Q341 700 342 697T341 690L253 568Q248 563 245 561T235 558H210Z"  />
<glyph unicode="&#xFE;" horiz-adv-x="531" d="M102 -180Q92 -180 92 -170V670Q92 680 102 680H136Q146 680 146 670V409H147Q164 443 198 465T292 487Q416 487 454 373Q463 344 467 312T471 238Q471 198 467 166T454 104Q416 -10 292 -10Q232 -10 198 12T147 68H146V-170Q146 -180 136 -180H102ZM281 42Q329 42 359 63T403 126Q411 149 413 177T416 238Q416 270 414 299T403 351Q389 392 359 413T281 435Q236 435 205 414T159 351Q152 331 149 304T146 238Q146 199 149 173T159 126Q173 84 204 63T281 42Z"  />
<glyph unicode="&#xFF;" horiz-adv-x="467" d="M82 -180Q72 -180 72 -170V-138Q72 -128 82 -128H100Q115 -128 127 -124T150 -111T170 -84T190 -39L209 10L33 467Q30 477 40 477H78Q87 477 91 467L236 84H237L378 467Q381 477 390 477H428Q438 477 435 467L240 -46Q225 -87 210 -113T179 -154T145 -174T103 -180H82ZM314 604Q304 604 304 614V670Q304 680 314 680H354Q364 680 364 670V614Q364 604 354 604H314ZM115 604Q105 604 105 614V670Q105 680 115 680H155Q165 680 165 670V614Q165 604 155 604H115Z"  />
<glyph unicode="&#x100;" horiz-adv-x="596" d="M269 670Q272 680 281 680H317Q326 680 329 670L565 10Q568 0 558 0H519Q508 0 506 10L446 177H150L90 10Q86 0 77 0H38Q28 0 31 10L269 670ZM427 232L300 588H297L169 232H427ZM178 800Q168 800 168 810V836Q168 846 178 846H418Q428 846 428 836V810Q428 800 418 800H178Z"  />
<glyph unicode="&#x101;" horiz-adv-x="513" d="M250 437Q206 437 179 428T130 401Q121 394 115 402L98 427Q93 435 101 441Q127 463 164 475T253 487Q299 487 332 479T386 452T417 403T427 329V10Q427 0 417 0H385Q375 0 375 10V60H374Q360 30 323 10T226 -10Q154 -10 110 25T66 131Q66 203 112 237T247 272H368Q374 272 374 278V327Q374 356 369 377T349 411T310 431T250 437ZM237 40Q299 40 336 69T374 147V220Q374 226 368 226H254Q182 226 151 203T119 132Q119 87 149 64T237 40ZM136 618Q126 618 126 628V654Q126 664 136 664H376Q386 664 386 654V628Q386 618 376 618H136Z"  />
<glyph unicode="&#x102;" horiz-adv-x="596" d="M269 670Q272 680 281 680H317Q326 680 329 670L565 10Q568 0 558 0H519Q508 0 506 10L446 177H150L90 10Q86 0 77 0H38Q28 0 31 10L269 670ZM427 232L300 588H297L169 232H427ZM297 768Q246 768 213 796T173 871Q171 881 182 881H201Q210 881 213 871Q230 812 297 812Q365 812 383 871Q386 881 394 881H413Q424 881 422 871Q415 825 382 797T297 768Z"  />
<glyph unicode="&#x103;" horiz-adv-x="513" d="M250 437Q206 437 179 428T130 401Q121 394 115 402L98 427Q93 435 101 441Q127 463 164 475T253 487Q299 487 332 479T386 452T417 403T427 329V10Q427 0 417 0H385Q375 0 375 10V60H374Q360 30 323 10T226 -10Q154 -10 110 25T66 131Q66 203 112 237T247 272H368Q374 272 374 278V327Q374 356 369 377T349 411T310 431T250 437ZM237 40Q299 40 336 69T374 147V220Q374 226 368 226H254Q182 226 151 203T119 132Q119 87 149 64T237 40ZM256 570Q205 570 172 599T132 674Q130 684 141 684H160Q169 684 172 674Q189 614 256 614Q324 614 342 674Q345 684 353 684H372Q383 684 381 674Q374 628 341 599T256 570Z"  />
<glyph unicode="&#x104;" horiz-adv-x="596" d="M446 178H150L90 10Q86 0 77 0H39Q28 0 31 10L269 670Q272 680 281 680H317Q326 680 329 670L565 10Q567 4 561 -1Q533 -21 517 -35T492 -60T481 -80T478 -97Q478 -125 507 -125Q520 -125 535 -116Q543 -111 548 -119L559 -140Q562 -147 555 -153Q545 -161 530 -166T499 -172Q467 -172 448 -154T429 -104Q429 -79 446 -54T508 4L446 178ZM167 231H428L300 588H297L167 231Z"  />
<glyph unicode="&#x105;" horiz-adv-x="513" d="M375 60H374Q360 30 323 10T226 -10Q154 -10 110 25T66 131Q66 203 112 237T247 272H368Q374 272 374 278V327Q374 356 369 377T349 411T310 431T250 437Q206 437 179 428T130 401Q121 394 115 402L98 427Q93 435 101 441Q127 463 164 475T253 487Q299 487 332 479T386 452T417 403T427 329V10Q427 4 422 0Q396 -19 380 -33T355 -59T343 -80T339 -97Q339 -125 368 -125Q381 -125 396 -116Q404 -111 409 -119L420 -140Q423 -147 416 -153Q406 -161 391 -166T360 -172Q328 -172 309 -155T290 -106Q290 -81 307 -54T375 9V60ZM237 40Q299 40 336 69T374 147V220Q374 226 368 226H254Q182 226 151 203T119 132Q119 87 149 64T237 40Z"  />
<glyph unicode="&#x106;" horiz-adv-x="556" d="M83 142Q79 155 76 170T70 209T67 263T65 340Q65 385 66 416T70 471T75 509T83 538Q109 615 163 652T298 690Q368 690 421 659T503 564Q507 555 500 551L467 535Q459 530 454 539Q431 583 394 609T298 636Q235 636 197 608T138 523Q135 513 132 499T127 464T124 413T123 340Q123 297 124 267T127 216T132 181T138 157Q158 101 196 73T298 44Q356 44 393 70T454 141Q459 150 467 145L500 129Q507 125 503 116Q474 53 421 22T298 -10Q217 -10 163 27T83 142ZM262 764Q257 764 256 766T258 774L340 878Q347 888 358 888H398Q403 888 404 885T402 878L306 773Q301 767 298 766T288 764H262Z"  />
<glyph unicode="&#x107;" horiz-adv-x="470" d="M223 558Q212 558 217 568L294 690Q300 700 311 700H349Q354 700 355 697T354 690L266 568Q261 563 258 561T248 558H223ZM60 238Q60 281 64 310T75 363Q94 422 140 454T253 487Q310 487 349 464T414 397Q419 389 411 384L383 366Q375 361 370 370Q349 403 322 419T253 435Q206 435 174 413T128 345Q121 325 118 300T115 238Q115 201 118 177T128 132Q142 87 174 65T253 42Q295 42 322 58T370 107Q375 116 383 111L411 93Q419 88 414 80Q388 36 349 13T253 -10Q187 -10 141 22T75 114Q68 137 64 166T60 238Z"  />
<glyph unicode="&#x108;" horiz-adv-x="556" d="M83 142Q79 155 76 170T70 209T67 263T65 340Q65 385 66 416T70 471T75 509T83 538Q109 615 163 652T298 690Q368 690 421 659T503 564Q507 555 500 551L467 535Q459 530 454 539Q431 583 394 609T298 636Q235 636 197 608T138 523Q135 513 132 499T127 464T124 413T123 340Q123 297 124 267T127 216T132 181T138 157Q158 101 196 73T298 44Q356 44 393 70T454 141Q459 150 467 145L500 129Q507 125 503 116Q474 53 421 22T298 -10Q217 -10 163 27T83 142ZM384 754Q374 754 367 764L296 849H294L224 764Q215 754 207 754H182Q177 754 176 757T178 764L268 887Q274 896 284 896H307Q316 896 322 887L413 764Q416 760 415 757T409 754H384Z"  />
<glyph unicode="&#x109;" horiz-adv-x="470" d="M342 558Q332 558 325 568L254 653H252L182 568Q173 558 165 558H140Q135 558 134 561T136 568L226 691Q232 700 242 700H265Q274 700 280 691L371 568Q374 564 373 561T367 558H342ZM60 238Q60 281 64 310T75 363Q94 422 140 454T253 487Q310 487 349 464T414 397Q419 389 411 384L383 366Q375 361 370 370Q349 403 322 419T253 435Q206 435 174 413T128 345Q121 325 118 300T115 238Q115 201 118 177T128 132Q142 87 174 65T253 42Q295 42 322 58T370 107Q375 116 383 111L411 93Q419 88 414 80Q388 36 349 13T253 -10Q187 -10 141 22T75 114Q68 137 64 166T60 238Z"  />
<glyph unicode="&#x10A;" horiz-adv-x="556" d="M273 786Q263 786 263 796V852Q263 862 273 862H317Q327 862 327 852V796Q327 786 317 786H273ZM83 142Q79 155 76 170T70 209T67 263T65 340Q65 385 66 416T70 471T75 509T83 538Q109 615 163 652T298 690Q368 690 421 659T503 564Q507 555 500 551L467 535Q459 530 454 539Q431 583 394 609T298 636Q235 636 197 608T138 523Q135 513 132 499T127 464T124 413T123 340Q123 297 124 267T127 216T132 181T138 157Q158 101 196 73T298 44Q356 44 393 70T454 141Q459 150 467 145L500 129Q507 125 503 116Q474 53 421 22T298 -10Q217 -10 163 27T83 142Z"  />
<glyph unicode="&#x10B;" horiz-adv-x="470" d="M60 238Q60 281 64 310T75 363Q94 422 140 454T253 487Q310 487 349 464T414 397Q419 389 411 384L383 366Q375 361 370 370Q349 403 322 419T253 435Q206 435 174 413T128 345Q121 325 118 300T115 238Q115 201 118 177T128 132Q142 87 174 65T253 42Q295 42 322 58T370 107Q375 116 383 111L411 93Q419 88 414 80Q388 36 349 13T253 -10Q187 -10 141 22T75 114Q68 137 64 166T60 238ZM230 604Q220 604 220 614V670Q220 680 230 680H274Q284 680 284 670V614Q284 604 274 604H230Z"  />
<glyph unicode="&#x10C;" horiz-adv-x="556" d="M83 142Q79 155 76 170T70 209T67 263T65 340Q65 385 66 416T70 471T75 509T83 538Q109 615 163 652T298 690Q368 690 421 659T503 564Q507 555 500 551L467 535Q459 530 454 539Q431 583 394 609T298 636Q235 636 197 608T138 523Q135 513 132 499T127 464T124 413T123 340Q123 297 124 267T127 216T132 181T138 157Q158 101 196 73T298 44Q356 44 393 70T454 141Q459 150 467 145L500 129Q507 125 503 116Q474 53 421 22T298 -10Q217 -10 163 27T83 142ZM284 754Q274 754 268 763L178 885Q175 889 176 892T182 895H207Q215 895 224 885L294 800H296L367 885Q372 891 375 893T384 895H409Q414 895 415 892T413 885L322 763Q316 754 307 754H284Z"  />
<glyph unicode="&#x10D;" horiz-adv-x="470" d="M241 558Q231 558 225 567L135 689Q132 693 133 696T139 699H164Q172 699 181 689L251 604H253L324 689Q329 695 332 697T341 699H366Q371 699 372 696T370 689L279 567Q273 558 264 558H241ZM60 238Q60 281 64 310T75 363Q94 422 140 454T253 487Q310 487 349 464T414 397Q419 389 411 384L383 366Q375 361 370 370Q349 403 322 419T253 435Q206 435 174 413T128 345Q121 325 118 300T115 238Q115 201 118 177T128 132Q142 87 174 65T253 42Q295 42 322 58T370 107Q375 116 383 111L411 93Q419 88 414 80Q388 36 349 13T253 -10Q187 -10 141 22T75 114Q68 137 64 166T60 238Z"  />
<glyph unicode="&#x10E;" horiz-adv-x="620" d="M286 754Q276 754 270 763L180 885Q177 889 178 892T184 895H209Q217 895 226 885L296 800H298L369 885Q374 891 377 893T386 895H411Q416 895 417 892T415 885L324 763Q318 754 309 754H286ZM94 670Q94 680 104 680H317Q489 680 534 542Q539 527 542 511T548 473T552 418T553 340Q553 293 552 262T549 208T543 169T534 138Q489 0 317 0H104Q94 0 94 10V670ZM151 60Q151 54 157 54H309Q375 54 418 78T479 157Q483 169 486 183T491 217T494 267T495 340Q495 383 494 412T491 462T486 497T479 523Q461 577 418 601T309 626H157Q151 626 151 620V60Z"  />
<glyph unicode="&#x10F;" horiz-adv-x="531" d="M505 535Q496 535 496 545V670Q496 680 506 680H543Q553 680 553 670V622Q553 611 548 601L516 544Q511 535 505 535ZM395 0Q385 0 385 10V68H384Q367 34 333 12T239 -10Q113 -10 77 104Q67 133 64 165T60 238Q60 279 63 311T77 373Q113 487 239 487Q299 487 333 465T384 409H385V670Q385 680 395 680H429Q439 680 439 670V10Q439 0 429 0H395ZM250 42Q295 42 326 63T372 126Q379 146 382 172T385 238Q385 277 382 304T372 351Q358 393 327 414T250 435Q203 435 173 414T128 351Q120 328 118 299T115 238Q115 206 117 178T128 126Q142 85 172 64T250 42Z"  />
<glyph unicode="&#x110;" horiz-adv-x="620" d="M104 0Q94 0 94 10V314Q94 320 88 320H48Q38 320 38 330V360Q38 370 48 370H88Q94 370 94 376V670Q94 680 104 680H317Q489 680 534 542Q539 527 542 511T548 473T552 418T553 340Q553 293 552 262T549 208T543 169T534 138Q489 0 317 0H104ZM309 54Q375 54 418 78T479 157Q483 169 486 183T491 217T494 267T495 340Q495 383 494 412T491 462T486 497T479 523Q461 577 418 601T309 626H157Q151 626 151 620V376Q151 370 157 370H287Q297 370 297 360V330Q297 320 287 320H157Q151 320 151 314V60Q151 54 157 54H309Z"  />
<glyph unicode="&#x111;" horiz-adv-x="531" d="M395 0Q385 0 385 10V68H384Q367 34 333 12T239 -10Q113 -10 77 104Q67 133 64 165T60 238Q60 279 63 311T77 373Q113 487 239 487Q299 487 333 465T384 409H385V557Q385 563 379 563H248Q238 563 238 573V599Q238 609 248 609H379Q385 609 385 615V670Q385 680 395 680H429Q439 680 439 670V615Q439 609 445 609H475Q485 609 485 599V573Q485 563 475 563H445Q439 563 439 557V10Q439 0 429 0H395ZM250 42Q295 42 326 63T372 126Q379 146 382 172T385 238Q385 277 382 304T372 351Q358 393 327 414T250 435Q203 435 173 414T128 351Q120 328 118 299T115 238Q115 206 117 178T128 126Q142 85 172 64T250 42Z"  />
<glyph unicode="&#x112;" horiz-adv-x="556" d="M170 800Q160 800 160 810V836Q160 846 170 846H410Q420 846 420 836V810Q420 800 410 800H170ZM94 670Q94 680 104 680H493Q503 680 503 670V636Q503 626 493 626H157Q151 626 151 620V378Q151 372 157 372H446Q456 372 456 362V328Q456 318 446 318H157Q151 318 151 312V60Q151 54 157 54H493Q503 54 503 44V10Q503 0 493 0H104Q94 0 94 10V670Z"  />
<glyph unicode="&#x113;" horiz-adv-x="502" d="M257 -10Q187 -10 141 22T74 116Q67 138 64 165T60 239Q60 284 63 312T74 363Q94 423 140 455T251 487Q316 487 362 455T429 363Q437 340 440 313T443 236Q443 226 432 226H121Q115 226 115 219Q115 189 117 171T125 135Q142 87 176 65T260 42Q307 42 339 59T393 103Q399 111 407 105L430 84Q437 78 431 70Q405 35 361 13T257 -10ZM382 272Q388 272 388 278Q388 300 386 316T379 347Q365 392 332 414T251 437Q204 437 171 415T124 347Q119 333 117 317T115 278Q115 272 121 272H382ZM130 618Q120 618 120 628V654Q120 664 130 664H370Q380 664 380 654V628Q380 618 370 618H130Z"  />
<glyph unicode="&#x114;" horiz-adv-x="556" d="M295 768Q244 768 211 796T171 871Q169 881 180 881H199Q208 881 211 871Q228 812 295 812Q363 812 381 871Q384 881 392 881H411Q422 881 420 871Q413 825 380 797T295 768ZM94 670Q94 680 104 680H493Q503 680 503 670V636Q503 626 493 626H157Q151 626 151 620V378Q151 372 157 372H446Q456 372 456 362V328Q456 318 446 318H157Q151 318 151 312V60Q151 54 157 54H493Q503 54 503 44V10Q503 0 493 0H104Q94 0 94 10V670Z"  />
<glyph unicode="&#x115;" horiz-adv-x="502" d="M257 -10Q187 -10 141 22T74 116Q67 138 64 165T60 239Q60 284 63 312T74 363Q94 423 140 455T251 487Q316 487 362 455T429 363Q437 340 440 313T443 236Q443 226 432 226H121Q115 226 115 219Q115 189 117 171T125 135Q142 87 176 65T260 42Q307 42 339 59T393 103Q399 111 407 105L430 84Q437 78 431 70Q405 35 361 13T257 -10ZM382 272Q388 272 388 278Q388 300 386 316T379 347Q365 392 332 414T251 437Q204 437 171 415T124 347Q119 333 117 317T115 278Q115 272 121 272H382ZM250 570Q199 570 166 599T126 674Q124 684 135 684H154Q163 684 166 674Q183 614 250 614Q318 614 336 674Q339 684 347 684H366Q377 684 375 674Q368 628 335 599T250 570Z"  />
<glyph unicode="&#x116;" horiz-adv-x="556" d="M276 786Q266 786 266 796V852Q266 862 276 862H320Q330 862 330 852V796Q330 786 320 786H276ZM94 670Q94 680 104 680H493Q503 680 503 670V636Q503 626 493 626H157Q151 626 151 620V378Q151 372 157 372H446Q456 372 456 362V328Q456 318 446 318H157Q151 318 151 312V60Q151 54 157 54H493Q503 54 503 44V10Q503 0 493 0H104Q94 0 94 10V670Z"  />
<glyph unicode="&#x117;" horiz-adv-x="502" d="M257 -10Q187 -10 141 22T74 116Q67 138 64 165T60 239Q60 284 63 312T74 363Q94 423 140 455T251 487Q316 487 362 455T429 363Q437 340 440 313T443 236Q443 226 432 226H121Q115 226 115 219Q115 189 117 171T125 135Q142 87 176 65T260 42Q307 42 339 59T393 103Q399 111 407 105L430 84Q437 78 431 70Q405 35 361 13T257 -10ZM382 272Q388 272 388 278Q388 300 386 316T379 347Q365 392 332 414T251 437Q204 437 171 415T124 347Q119 333 117 317T115 278Q115 272 121 272H382ZM228 604Q218 604 218 614V670Q218 680 228 680H272Q282 680 282 670V614Q282 604 272 604H228Z"  />
<glyph unicode="&#x118;" horiz-adv-x="556" d="M485 0Q459 -19 443 -33T417 -59T405 -80T402 -97Q402 -125 431 -125Q444 -125 459 -116Q467 -111 472 -119L483 -140Q486 -147 479 -153Q469 -161 454 -166T423 -172Q391 -172 372 -154T353 -104Q353 -79 368 -55T425 0H104Q94 0 94 10V670Q94 680 104 680H493Q503 680 503 670V636Q503 626 493 626H157Q151 626 151 620V378Q151 372 157 372H446Q456 372 456 362V328Q456 318 446 318H157Q151 318 151 312V60Q151 54 157 54H493Q503 54 503 44V10Q503 0 493 0H485Z"  />
<glyph unicode="&#x119;" horiz-adv-x="502" d="M332 -172Q300 -172 281 -154T262 -104Q262 -81 274 -58T312 -4Q286 -10 257 -10Q187 -10 141 22T74 116Q67 138 64 165T60 239Q60 284 63 312T74 363Q94 423 140 455T251 487Q316 487 362 455T429 363Q437 340 440 313T443 236Q443 226 432 226H121Q115 226 115 219Q115 189 117 171T125 135Q142 87 176 65T260 42Q307 42 339 59T393 103Q399 111 407 105L430 84Q437 78 431 70Q418 53 397 35Q368 5 351 -16T325 -52T314 -77T311 -97Q311 -125 340 -125Q353 -125 368 -116Q376 -111 381 -119L392 -140Q395 -147 388 -153Q378 -161 363 -166T332 -172ZM382 272Q388 272 388 278Q388 300 386 316T379 347Q365 392 332 414T251 437Q204 437 171 415T124 347Q119 333 117 317T115 278Q115 272 121 272H382Z"  />
<glyph unicode="&#x11A;" horiz-adv-x="556" d="M286 754Q276 754 270 763L180 885Q177 889 178 892T184 895H209Q217 895 226 885L296 800H298L369 885Q374 891 377 893T386 895H411Q416 895 417 892T415 885L324 763Q318 754 309 754H286ZM94 670Q94 680 104 680H493Q503 680 503 670V636Q503 626 493 626H157Q151 626 151 620V378Q151 372 157 372H446Q456 372 456 362V328Q456 318 446 318H157Q151 318 151 312V60Q151 54 157 54H493Q503 54 503 44V10Q503 0 493 0H104Q94 0 94 10V670Z"  />
<glyph unicode="&#x11B;" horiz-adv-x="502" d="M239 558Q229 558 223 567L133 689Q130 693 131 696T137 699H162Q170 699 179 689L249 604H251L322 689Q327 695 330 697T339 699H364Q369 699 370 696T368 689L277 567Q271 558 262 558H239ZM257 -10Q187 -10 141 22T74 116Q67 138 64 165T60 239Q60 284 63 312T74 363Q94 423 140 455T251 487Q316 487 362 455T429 363Q437 340 440 313T443 236Q443 226 432 226H121Q115 226 115 219Q115 189 117 171T125 135Q142 87 176 65T260 42Q307 42 339 59T393 103Q399 111 407 105L430 84Q437 78 431 70Q405 35 361 13T257 -10ZM382 272Q388 272 388 278Q388 300 386 316T379 347Q365 392 332 414T251 437Q204 437 171 415T124 347Q119 333 117 317T115 278Q115 272 121 272H382Z"  />
<glyph unicode="&#x11C;" horiz-adv-x="609" d="M84 143Q80 156 77 171T71 210T67 264T65 340Q65 384 66 415T70 470T76 508T84 537Q109 613 165 651T306 690Q348 690 381 681T441 654T487 614T519 564Q523 555 515 551L483 535Q474 532 470 539Q444 586 405 611T305 636Q177 636 139 521Q136 511 133 498T128 463T124 412T123 340Q123 298 124 268T127 217T133 183T139 159Q177 44 305 44Q367 44 409 72T471 157Q478 177 482 207T487 287Q487 293 481 293H327Q317 293 317 303V336Q317 346 327 346H534Q544 346 544 336V295Q544 244 539 206T526 144Q502 68 445 29T306 -10Q222 -10 166 28T84 143ZM393 754Q383 754 376 764L305 849H303L233 764Q224 754 216 754H191Q186 754 185 757T187 764L277 887Q283 896 293 896H316Q325 896 331 887L422 764Q425 760 424 757T418 754H393Z"  />
<glyph unicode="&#x11D;" horiz-adv-x="522" d="M339 558Q329 558 322 568L251 653H249L179 568Q170 558 162 558H137Q132 558 131 561T133 568L223 691Q229 700 239 700H262Q271 700 277 691L368 568Q371 564 370 561T364 558H339ZM239 -190Q187 -190 144 -170T81 -121Q76 -113 83 -107L108 -85Q116 -79 122 -87Q167 -138 240 -138Q304 -138 340 -105T376 7V76H375Q358 41 325 20T234 -2Q174 -2 134 27T75 112Q67 138 63 168T59 242Q59 285 63 315T75 372Q93 427 133 457T234 487Q292 487 325 466T375 409H376V467Q376 477 386 477H420Q430 477 430 467V9Q430 -91 380 -140T239 -190ZM245 49Q287 49 318 68T364 133Q371 153 373 178T376 242Q376 280 374 305T364 351Q349 396 318 415T245 435Q156 435 128 352Q120 331 117 305T114 242Q114 171 128 133Q155 49 245 49Z"  />
<glyph unicode="&#x11E;" horiz-adv-x="609" d="M304 768Q253 768 220 796T180 871Q178 881 189 881H208Q217 881 220 871Q237 812 304 812Q372 812 390 871Q393 881 401 881H420Q431 881 429 871Q422 825 389 797T304 768ZM84 143Q80 156 77 171T71 210T67 264T65 340Q65 384 66 415T70 470T76 508T84 537Q109 613 165 651T306 690Q348 690 381 681T441 654T487 614T519 564Q523 555 515 551L483 535Q474 532 470 539Q444 586 405 611T305 636Q177 636 139 521Q136 511 133 498T128 463T124 412T123 340Q123 298 124 268T127 217T133 183T139 159Q177 44 305 44Q367 44 409 72T471 157Q478 177 482 207T487 287Q487 293 481 293H327Q317 293 317 303V336Q317 346 327 346H534Q544 346 544 336V295Q544 244 539 206T526 144Q502 68 445 29T306 -10Q222 -10 166 28T84 143Z"  />
<glyph unicode="&#x11F;" horiz-adv-x="522" d="M239 -190Q187 -190 144 -170T81 -121Q76 -113 83 -107L108 -85Q116 -79 122 -87Q167 -138 240 -138Q304 -138 340 -105T376 7V76H375Q358 41 325 20T234 -2Q174 -2 134 27T75 112Q67 138 63 168T59 242Q59 285 63 315T75 372Q93 427 133 457T234 487Q292 487 325 466T375 409H376V467Q376 477 386 477H420Q430 477 430 467V9Q430 -91 380 -140T239 -190ZM245 49Q287 49 318 68T364 133Q371 153 373 178T376 242Q376 280 374 305T364 351Q349 396 318 415T245 435Q156 435 128 352Q120 331 117 305T114 242Q114 171 128 133Q155 49 245 49ZM253 570Q202 570 169 599T129 674Q127 684 138 684H157Q166 684 169 674Q186 614 253 614Q321 614 339 674Q342 684 350 684H369Q380 684 378 674Q371 628 338 599T253 570Z"  />
<glyph unicode="&#x120;" horiz-adv-x="609" d="M282 786Q272 786 272 796V852Q272 862 282 862H326Q336 862 336 852V796Q336 786 326 786H282ZM84 143Q80 156 77 171T71 210T67 264T65 340Q65 384 66 415T70 470T76 508T84 537Q109 613 165 651T306 690Q348 690 381 681T441 654T487 614T519 564Q523 555 515 551L483 535Q474 532 470 539Q444 586 405 611T305 636Q177 636 139 521Q136 511 133 498T128 463T124 412T123 340Q123 298 124 268T127 217T133 183T139 159Q177 44 305 44Q367 44 409 72T471 157Q478 177 482 207T487 287Q487 293 481 293H327Q317 293 317 303V336Q317 346 327 346H534Q544 346 544 336V295Q544 244 539 206T526 144Q502 68 445 29T306 -10Q222 -10 166 28T84 143Z"  />
<glyph unicode="&#x121;" horiz-adv-x="522" d="M239 -190Q187 -190 144 -170T81 -121Q76 -113 83 -107L108 -85Q116 -79 122 -87Q167 -138 240 -138Q304 -138 340 -105T376 7V76H375Q358 41 325 20T234 -2Q174 -2 134 27T75 112Q67 138 63 168T59 242Q59 285 63 315T75 372Q93 427 133 457T234 487Q292 487 325 466T375 409H376V467Q376 477 386 477H420Q430 477 430 467V9Q430 -91 380 -140T239 -190ZM245 49Q287 49 318 68T364 133Q371 153 373 178T376 242Q376 280 374 305T364 351Q349 396 318 415T245 435Q156 435 128 352Q120 331 117 305T114 242Q114 171 128 133Q155 49 245 49ZM231 604Q221 604 221 614V670Q221 680 231 680H275Q285 680 285 670V614Q285 604 275 604H231Z"  />
<glyph unicode="&#x122;" horiz-adv-x="609" d="M285 -195Q276 -195 276 -186V-66Q276 -56 286 -56H323Q333 -56 333 -66V-108Q333 -116 332 -120T328 -130L296 -187Q292 -195 285 -195ZM84 143Q80 156 77 171T71 210T67 264T65 340Q65 384 66 415T70 470T76 508T84 537Q109 613 165 651T306 690Q348 690 381 681T441 654T487 614T519 564Q523 555 515 551L483 535Q474 532 470 539Q444 586 405 611T305 636Q177 636 139 521Q136 511 133 498T128 463T124 412T123 340Q123 298 124 268T127 217T133 183T139 159Q177 44 305 44Q367 44 409 72T471 157Q478 177 482 207T487 287Q487 293 481 293H327Q317 293 317 303V336Q317 346 327 346H534Q544 346 544 336V295Q544 244 539 206T526 144Q502 68 445 29T306 -10Q222 -10 166 28T84 143Z"  />
<glyph unicode="&#x123;" horiz-adv-x="522" d="M233 572Q223 572 223 582V628Q223 636 224 640T228 650L260 707Q264 715 271 715Q280 715 280 706V582Q280 572 270 572H233ZM239 -190Q187 -190 144 -170T81 -121Q76 -113 83 -107L108 -85Q116 -79 122 -87Q167 -138 240 -138Q304 -138 340 -105T376 7V76H375Q358 41 325 20T234 -2Q174 -2 134 27T75 112Q67 138 63 168T59 242Q59 285 63 315T75 372Q93 427 133 457T234 487Q292 487 325 466T375 409H376V467Q376 477 386 477H420Q430 477 430 467V9Q430 -91 380 -140T239 -190ZM245 49Q287 49 318 68T364 133Q371 153 373 178T376 242Q376 280 374 305T364 351Q349 396 318 415T245 435Q156 435 128 352Q120 331 117 305T114 242Q114 171 128 133Q155 49 245 49Z"  />
<glyph unicode="&#x124;" horiz-adv-x="650" d="M94 670Q94 680 104 680H141Q151 680 151 670V378Q151 372 157 372H493Q499 372 499 378V670Q499 680 509 680H546Q556 680 556 670V10Q556 0 546 0H509Q499 0 499 10V312Q499 318 493 318H157Q151 318 151 312V10Q151 0 141 0H104Q94 0 94 10V670ZM413 754Q403 754 396 764L325 849H323L253 764Q244 754 236 754H211Q206 754 205 757T207 764L297 887Q303 896 313 896H336Q345 896 351 887L442 764Q445 760 444 757T438 754H413Z"  />
<glyph unicode="&#x125;" horiz-adv-x="541" d="M411 0Q401 0 401 10V292Q401 435 276 435Q221 435 184 400T146 302V10Q146 0 136 0H102Q92 0 92 10V670Q92 680 102 680H136Q146 680 146 670V410H147Q165 445 201 466T288 487Q368 487 411 440T455 305V10Q455 0 445 0H411ZM364 754Q354 754 347 764L276 849H274L204 764Q195 754 187 754H162Q157 754 156 757T158 764L248 887Q254 896 264 896H287Q296 896 302 887L393 764Q396 760 395 757T389 754H364Z"  />
<glyph unicode="&#x126;" horiz-adv-x="650" d="M509 0Q499 0 499 10V312Q499 318 493 318H157Q151 318 151 312V10Q151 0 141 0H104Q94 0 94 10V493Q94 499 88 499H48Q38 499 38 509V537Q38 547 48 547H88Q94 547 94 553V670Q94 680 104 680H141Q151 680 151 670V553Q151 547 157 547H493Q499 547 499 553V670Q499 680 509 680H546Q556 680 556 670V553Q556 547 562 547H602Q612 547 612 537V509Q612 499 602 499H562Q556 499 556 493V10Q556 0 546 0H509ZM493 372Q499 372 499 378V493Q499 499 493 499H157Q151 499 151 493V378Q151 372 157 372H493Z"  />
<glyph unicode="&#x127;" horiz-adv-x="541" d="M411 0Q401 0 401 10V292Q401 435 276 435Q221 435 184 400T146 302V10Q146 0 136 0H102Q92 0 92 10V557Q92 563 86 563H56Q46 563 46 573V599Q46 609 56 609H86Q92 609 92 615V670Q92 680 102 680H136Q146 680 146 670V615Q146 609 152 609H283Q293 609 293 599V573Q293 563 283 563H152Q146 563 146 557V410H147Q165 445 201 466T288 487Q368 487 411 440T455 305V10Q455 0 445 0H411Z"  />
<glyph unicode="&#x128;" horiz-adv-x="245" d="M94 670Q94 680 104 680H141Q151 680 151 670V10Q151 0 141 0H104Q94 0 94 10V670ZM178 782Q160 782 146 788T118 803Q106 811 95 816T69 821Q52 821 39 812T11 788Q2 781 2 791V821Q2 828 10 836Q22 850 37 858T71 866Q89 866 103 860T131 846Q143 838 154 833T180 828Q197 828 211 837T239 861Q242 864 244 863T247 858V828Q247 823 246 820T240 812Q227 799 212 791T178 782Z"  />
<glyph unicode="&#x129;" horiz-adv-x="238" d="M102 0Q92 0 92 10V467Q92 477 102 477H136Q146 477 146 467V10Q146 0 136 0H102ZM174 596Q156 596 142 602T114 617Q102 625 91 630T65 635Q48 635 35 626T7 602Q-2 595 -2 605V635Q-2 642 6 650Q18 664 33 672T67 680Q85 680 99 674T127 660Q139 652 150 647T176 642Q193 642 207 651T235 675Q238 678 240 677T243 672V642Q243 637 242 634T236 626Q223 613 208 605T174 596Z"  />
<glyph unicode="&#x12A;" horiz-adv-x="245" d="M94 670Q94 680 104 680H141Q151 680 151 670V10Q151 0 141 0H104Q94 0 94 10V670ZM4 800Q-6 800 -6 810V836Q-6 846 4 846H244Q254 846 254 836V810Q254 800 244 800H4Z"  />
<glyph unicode="&#x12B;" horiz-adv-x="238" d="M102 0Q92 0 92 10V467Q92 477 102 477H136Q146 477 146 467V10Q146 0 136 0H102ZM1 618Q-9 618 -9 628V654Q-9 664 1 664H241Q251 664 251 654V628Q251 618 241 618H1Z"  />
<glyph unicode="&#x12C;" horiz-adv-x="245" d="M94 670Q94 680 104 680H141Q151 680 151 670V10Q151 0 141 0H104Q94 0 94 10V670ZM124 768Q73 768 40 796T0 871Q-2 881 9 881H28Q37 881 40 871Q57 812 124 812Q192 812 210 871Q213 881 221 881H240Q251 881 249 871Q242 825 209 797T124 768Z"  />
<glyph unicode="&#x12D;" horiz-adv-x="238" d="M102 0Q92 0 92 10V467Q92 477 102 477H136Q146 477 146 467V10Q146 0 136 0H102ZM120 570Q69 570 36 599T-4 674Q-6 684 5 684H24Q33 684 36 674Q53 614 120 614Q188 614 206 674Q209 684 217 684H236Q247 684 245 674Q238 628 205 599T120 570Z"  />
<glyph unicode="&#x12E;" horiz-adv-x="245" d="M34 -104Q34 -81 48 -56T94 2V670Q94 680 104 680H141Q151 680 151 670V10Q151 5 147 1Q127 -21 115 -36T95 -61T86 -80T83 -97Q83 -125 112 -125Q125 -125 140 -116Q148 -111 153 -119L164 -140Q167 -147 160 -153Q150 -161 135 -166T104 -172Q72 -172 53 -154T34 -104Z"  />
<glyph unicode="&#x12F;" horiz-adv-x="238" d="M97 604Q87 604 87 614V670Q87 680 97 680H141Q151 680 151 670V614Q151 604 141 604H97ZM99 -172Q67 -172 48 -154T29 -104Q29 -92 32 -81T42 -57T61 -30T92 4V467Q92 477 102 477H136Q146 477 146 467V10Q146 5 142 1Q121 -20 109 -35T89 -61T80 -80T78 -97Q78 -125 107 -125Q120 -125 135 -116Q143 -111 148 -119L159 -140Q162 -147 155 -153Q145 -161 130 -166T99 -172Z"  />
<glyph unicode="&#x130;" horiz-adv-x="245" d="M94 670Q94 680 104 680H141Q151 680 151 670V10Q151 0 141 0H104Q94 0 94 10V670ZM102 786Q92 786 92 796V852Q92 862 102 862H146Q156 862 156 852V796Q156 786 146 786H102Z"  />
<glyph unicode="&#x131;" horiz-adv-x="238" d="M102 0Q92 0 92 10V467Q92 477 102 477H136Q146 477 146 467V10Q146 0 136 0H102Z"  />
<glyph unicode="&#x132;" horiz-adv-x="719" d="M94 670Q94 680 104 680H141Q151 680 151 670V10Q151 0 141 0H104Q94 0 94 10V670ZM285 46Q277 53 284 60L311 85Q318 92 326 85Q344 70 372 57T433 44Q498 44 536 81T574 204V670Q574 680 584 680H621Q631 680 631 670V204Q631 94 577 42T432 -10Q387 -10 348 6T285 46Z"  />
<glyph unicode="&#x133;" horiz-adv-x="476" d="M97 604Q87 604 87 614V670Q87 680 97 680H141Q151 680 151 670V614Q151 604 141 604H97ZM102 0Q92 0 92 10V467Q92 477 102 477H136Q146 477 146 467V10Q146 0 136 0H102ZM335 604Q325 604 325 614V670Q325 680 335 680H379Q389 680 389 670V614Q389 604 379 604H335ZM250 -180Q240 -180 240 -170V-138Q240 -128 250 -128H259Q299 -128 314 -114T330 -55V467Q330 477 340 477H374Q384 477 384 467V-54Q384 -124 356 -152T261 -180H250Z"  />
<glyph unicode="&#x134;" horiz-adv-x="474" d="M40 46Q32 53 39 60L66 85Q73 92 81 85Q99 70 127 57T188 44Q253 44 291 81T329 204V670Q329 680 339 680H376Q386 680 386 670V204Q386 94 332 42T187 -10Q142 -10 103 6T40 46ZM444 754Q434 754 427 764L356 849H354L284 764Q275 754 267 754H242Q237 754 236 757T238 764L328 887Q334 896 344 896H367Q376 896 382 887L473 764Q476 760 475 757T469 754H444Z"  />
<glyph unicode="&#x135;" horiz-adv-x="238" d="M12 -180Q2 -180 2 -170V-138Q2 -128 12 -128H21Q61 -128 76 -114T92 -55V467Q92 477 102 477H136Q146 477 146 467V-54Q146 -124 118 -152T23 -180H12ZM209 558Q199 558 192 568L121 653H119L49 568Q40 558 32 558H7Q2 558 1 561T3 568L93 691Q99 700 109 700H132Q141 700 147 691L238 568Q241 564 240 561T234 558H209Z"  />
<glyph unicode="&#x136;" horiz-adv-x="597" d="M280 -195Q271 -195 271 -186V-66Q271 -56 281 -56H318Q328 -56 328 -66V-108Q328 -116 327 -120T323 -130L291 -187Q287 -195 280 -195ZM94 670Q94 680 104 680H141Q151 680 151 670V278L475 671Q484 680 492 680H539Q544 680 545 677T543 669L328 412L560 11Q563 6 562 3T555 0H510Q501 0 495 9L290 366L151 200V10Q151 0 141 0H104Q94 0 94 10V670Z"  />
<glyph unicode="&#x137;" horiz-adv-x="500" d="M232 -195Q223 -195 223 -186V-66Q223 -56 233 -56H270Q280 -56 280 -66V-108Q280 -116 279 -120T275 -130L243 -187Q239 -195 232 -195ZM415 0Q406 0 400 10L248 257L146 137V10Q146 0 136 0H102Q92 0 92 10V670Q92 680 102 680H136Q146 680 146 670V212L362 467Q367 472 370 474T379 477H420Q425 477 426 474T425 467L284 300L462 10Q464 6 463 3T456 0H415Z"  />
<glyph unicode="&#x138;" horiz-adv-x="500" d="M415 0Q406 0 400 10L248 257L146 137V10Q146 0 136 0H102Q92 0 92 10V467Q92 477 102 477H136Q146 477 146 467V212L362 467Q367 472 370 474T379 477H420Q425 477 426 474T425 467L284 300L462 10Q464 6 463 3T456 0H415Z"  />
<glyph unicode="&#x139;" horiz-adv-x="530" d="M127 764Q122 764 121 766T123 774L205 878Q212 888 223 888H263Q268 888 269 885T267 878L171 773Q166 767 163 766T153 764H127ZM94 670Q94 680 104 680H141Q151 680 151 670V60Q151 54 157 54H493Q503 54 503 44V10Q503 0 493 0H104Q94 0 94 10V670Z"  />
<glyph unicode="&#x13A;" horiz-adv-x="262" d="M108 764Q103 764 102 766T104 774L186 878Q193 888 204 888H244Q249 888 250 885T248 878L152 773Q147 767 144 766T134 764H108ZM190 -3Q136 -3 114 23T91 109V670Q91 680 101 680H135Q145 680 145 670V111Q145 76 157 63T196 49H213Q223 49 223 39V7Q223 -3 213 -3H190Z"  />
<glyph unicode="&#x13B;" horiz-adv-x="530" d="M281 -195Q272 -195 272 -186V-66Q272 -56 282 -56H319Q329 -56 329 -66V-108Q329 -116 328 -120T324 -130L292 -187Q288 -195 281 -195ZM94 670Q94 680 104 680H141Q151 680 151 670V60Q151 54 157 54H493Q503 54 503 44V10Q503 0 493 0H104Q94 0 94 10V670Z"  />
<glyph unicode="&#x13C;" horiz-adv-x="262" d="M140 -195Q131 -195 131 -186V-66Q131 -56 141 -56H178Q188 -56 188 -66V-108Q188 -116 187 -120T183 -130L151 -187Q147 -195 140 -195ZM190 -3Q136 -3 114 23T91 109V670Q91 680 101 680H135Q145 680 145 670V111Q145 76 157 63T196 49H213Q223 49 223 39V7Q223 -3 213 -3H190Z"  />
<glyph unicode="&#x13D;" horiz-adv-x="530" d="M253 535Q244 535 244 545V670Q244 680 254 680H291Q301 680 301 670V622Q301 611 296 601L264 544Q259 535 253 535ZM94 670Q94 680 104 680H141Q151 680 151 670V60Q151 54 157 54H493Q503 54 503 44V10Q503 0 493 0H104Q94 0 94 10V670Z"  />
<glyph unicode="&#x13E;" horiz-adv-x="262" d="M211 535Q202 535 202 545V670Q202 680 212 680H249Q259 680 259 670V622Q259 611 254 601L222 544Q217 535 211 535ZM190 -3Q136 -3 114 23T91 109V670Q91 680 101 680H135Q145 680 145 670V111Q145 76 157 63T196 49H213Q223 49 223 39V7Q223 -3 213 -3H190Z"  />
<glyph unicode="&#x13F;" horiz-adv-x="530" d="M94 670Q94 680 104 680H141Q151 680 151 670V60Q151 54 157 54H493Q503 54 503 44V10Q503 0 493 0H104Q94 0 94 10V670ZM363 283Q353 283 353 293V360Q353 370 363 370H412Q422 370 422 360V293Q422 283 412 283H363Z"  />
<glyph unicode="&#x140;" horiz-adv-x="295" d="M190 -3Q136 -3 114 23T91 109V670Q91 680 101 680H135Q145 680 145 670V111Q145 76 157 63T196 49H213Q223 49 223 39V7Q223 -3 213 -3H190ZM241 286Q231 286 231 296V363Q231 373 241 373H290Q300 373 300 363V296Q300 286 290 286H241Z"  />
<glyph unicode="&#x141;" horiz-adv-x="530" d="M104 0Q94 0 94 10V291L37 262Q27 257 27 268V304Q27 313 37 318L94 347V670Q94 680 104 680H141Q151 680 151 670V376L309 457Q319 462 319 451V415Q319 406 309 401L151 320V60Q151 54 157 54H493Q503 54 503 44V10Q503 0 493 0H104Z"  />
<glyph unicode="&#x142;" horiz-adv-x="262" d="M145 347V111Q145 76 157 63T196 49H213Q223 49 223 39V7Q223 -3 213 -3H190Q136 -3 114 23T91 109V322L52 302Q42 297 42 308V341Q42 350 52 355L91 375V670Q91 680 101 680H135Q145 680 145 670V400L213 436Q223 441 223 430V397Q223 388 213 383L145 347Z"  />
<glyph unicode="&#x143;" horiz-adv-x="651" d="M285 764Q280 764 279 766T281 774L363 878Q370 888 381 888H421Q426 888 427 885T425 878L329 773Q324 767 321 766T311 764H285ZM94 670Q94 680 104 680H141Q153 680 158 670L497 111H500V670Q500 680 510 680H547Q557 680 557 670V10Q557 0 547 0H508Q497 0 491 10L155 570H151V10Q151 0 141 0H104Q94 0 94 10V670Z"  />
<glyph unicode="&#x144;" horiz-adv-x="541" d="M226 558Q215 558 220 568L297 690Q303 700 314 700H352Q357 700 358 697T357 690L269 568Q264 563 261 561T251 558H226ZM411 0Q401 0 401 10V292Q401 435 276 435Q221 435 184 400T146 302V10Q146 0 136 0H102Q92 0 92 10V467Q92 477 102 477H136Q146 477 146 467V410H147Q165 445 201 466T288 487Q368 487 411 440T455 305V10Q455 0 445 0H411Z"  />
<glyph unicode="&#x145;" horiz-adv-x="651" d="M312 -195Q303 -195 303 -186V-66Q303 -56 313 -56H350Q360 -56 360 -66V-108Q360 -116 359 -120T355 -130L323 -187Q319 -195 312 -195ZM94 670Q94 680 104 680H141Q153 680 158 670L497 111H500V670Q500 680 510 680H547Q557 680 557 670V10Q557 0 547 0H508Q497 0 491 10L155 570H151V10Q151 0 141 0H104Q94 0 94 10V670Z"  />
<glyph unicode="&#x146;" horiz-adv-x="541" d="M251 -195Q242 -195 242 -186V-66Q242 -56 252 -56H289Q299 -56 299 -66V-108Q299 -116 298 -120T294 -130L262 -187Q258 -195 251 -195ZM411 0Q401 0 401 10V292Q401 435 276 435Q221 435 184 400T146 302V10Q146 0 136 0H102Q92 0 92 10V467Q92 477 102 477H136Q146 477 146 467V410H147Q165 445 201 466T288 487Q368 487 411 440T455 305V10Q455 0 445 0H411Z"  />
<glyph unicode="&#x147;" horiz-adv-x="651" d="M314 754Q304 754 298 763L208 885Q205 889 206 892T212 895H237Q245 895 254 885L324 800H326L397 885Q402 891 405 893T414 895H439Q444 895 445 892T443 885L352 763Q346 754 337 754H314ZM94 670Q94 680 104 680H141Q153 680 158 670L497 111H500V670Q500 680 510 680H547Q557 680 557 670V10Q557 0 547 0H508Q497 0 491 10L155 570H151V10Q151 0 141 0H104Q94 0 94 10V670Z"  />
<glyph unicode="&#x148;" horiz-adv-x="541" d="M259 558Q249 558 243 567L153 689Q150 693 151 696T157 699H182Q190 699 199 689L269 604H271L342 689Q347 695 350 697T359 699H384Q389 699 390 696T388 689L297 567Q291 558 282 558H259ZM411 0Q401 0 401 10V292Q401 435 276 435Q221 435 184 400T146 302V10Q146 0 136 0H102Q92 0 92 10V467Q92 477 102 477H136Q146 477 146 467V410H147Q165 445 201 466T288 487Q368 487 411 440T455 305V10Q455 0 445 0H411Z"  />
<glyph unicode="&#x149;" horiz-adv-x="541" d="M41 535Q32 535 32 545V670Q32 680 42 680H79Q89 680 89 670V622Q89 611 84 601L52 544Q47 535 41 535ZM411 0Q401 0 401 10V292Q401 435 276 435Q221 435 184 400T146 302V10Q146 0 136 0H102Q92 0 92 10V467Q92 477 102 477H136Q146 477 146 467V410H147Q165 445 201 466T288 487Q368 487 411 440T455 305V10Q455 0 445 0H411Z"  />
<glyph unicode="&#x14A;" horiz-adv-x="651" d="M397 -180Q387 -180 387 -170V-135Q387 -125 397 -125H409Q456 -125 479 -105T502 -33V-8L155 570H151V10Q151 0 141 0H104Q94 0 94 10V670Q94 680 104 680H141Q146 680 150 679T158 670L497 112H500V670Q500 680 510 680H547Q557 680 557 670V-28Q557 -109 521 -144T411 -180H397Z"  />
<glyph unicode="&#x14B;" horiz-adv-x="541" d="M320 -180Q310 -180 310 -170V-138Q310 -128 320 -128H330Q370 -128 385 -114T401 -55V292Q401 435 276 435Q221 435 184 400T146 302V10Q146 0 136 0H102Q92 0 92 10V467Q92 477 102 477H136Q146 477 146 467V410H147Q165 445 201 466T288 487Q368 487 411 440T455 305V-54Q455 -124 426 -152T331 -180H320Z"  />
<glyph unicode="&#x14C;" horiz-adv-x="609" d="M184 800Q174 800 174 810V836Q174 846 184 846H424Q434 846 434 836V810Q434 800 424 800H184ZM305 -10Q221 -10 166 29T85 143Q80 156 77 172T71 211T67 265T65 340Q65 384 66 415T70 468T76 507T85 537Q110 612 165 651T305 690Q388 690 443 651T524 537Q528 523 532 507T538 469T542 415T544 340Q544 296 543 265T539 212T532 173T524 143Q499 68 444 29T305 -10ZM486 340Q486 381 485 411T481 462T476 497T469 521Q431 636 305 636Q178 636 140 521Q137 511 134 497T128 462T125 411T123 340Q123 299 124 269T128 218T133 183T140 159Q178 44 305 44Q431 44 469 159Q472 169 475 183T481 218T484 269T486 340Z"  />
<glyph unicode="&#x14D;" horiz-adv-x="509" d="M133 618Q123 618 123 628V654Q123 664 133 664H373Q383 664 383 654V628Q383 618 373 618H133ZM254 -10Q188 -10 142 22T76 114Q68 138 64 166T60 239Q60 282 64 310T76 363Q96 423 142 455T254 487Q320 487 366 455T433 363Q441 339 445 311T449 239Q449 195 445 167T433 114Q413 54 367 22T254 -10ZM254 42Q301 42 334 65T381 131Q388 151 391 175T394 239Q394 277 391 301T381 346Q367 389 334 412T254 435Q208 435 175 412T128 346Q121 326 118 302T115 239Q115 200 118 176T128 131Q142 88 175 65T254 42Z"  />
<glyph unicode="&#x14E;" horiz-adv-x="609" d="M304 768Q253 768 220 796T180 871Q178 881 189 881H208Q217 881 220 871Q237 812 304 812Q372 812 390 871Q393 881 401 881H420Q431 881 429 871Q422 825 389 797T304 768ZM305 -10Q221 -10 166 29T85 143Q80 156 77 172T71 211T67 265T65 340Q65 384 66 415T70 468T76 507T85 537Q110 612 165 651T305 690Q388 690 443 651T524 537Q528 523 532 507T538 469T542 415T544 340Q544 296 543 265T539 212T532 173T524 143Q499 68 444 29T305 -10ZM486 340Q486 381 485 411T481 462T476 497T469 521Q431 636 305 636Q178 636 140 521Q137 511 134 497T128 462T125 411T123 340Q123 299 124 269T128 218T133 183T140 159Q178 44 305 44Q431 44 469 159Q472 169 475 183T481 218T484 269T486 340Z"  />
<glyph unicode="&#x14F;" horiz-adv-x="509" d="M254 -10Q188 -10 142 22T76 114Q68 138 64 166T60 239Q60 282 64 310T76 363Q96 423 142 455T254 487Q320 487 366 455T433 363Q441 339 445 311T449 239Q449 195 445 167T433 114Q413 54 367 22T254 -10ZM254 42Q301 42 334 65T381 131Q388 151 391 175T394 239Q394 277 391 301T381 346Q367 389 334 412T254 435Q208 435 175 412T128 346Q121 326 118 302T115 239Q115 200 118 176T128 131Q142 88 175 65T254 42ZM253 570Q202 570 169 599T129 674Q127 684 138 684H157Q166 684 169 674Q186 614 253 614Q321 614 339 674Q342 684 350 684H369Q380 684 378 674Q371 628 338 599T253 570Z"  />
<glyph unicode="&#x150;" horiz-adv-x="609" d="M305 -10Q221 -10 166 29T85 143Q80 156 77 172T71 211T67 265T65 340Q65 384 66 415T70 468T76 507T85 537Q110 612 165 651T305 690Q388 690 443 651T524 537Q528 523 532 507T538 469T542 415T544 340Q544 296 543 265T539 212T532 173T524 143Q499 68 444 29T305 -10ZM486 340Q486 381 485 411T481 462T476 497T469 521Q431 636 305 636Q178 636 140 521Q137 511 134 497T128 462T125 411T123 340Q123 299 124 269T128 218T133 183T140 159Q178 44 305 44Q431 44 469 159Q472 169 475 183T481 218T484 269T486 340ZM351 764Q346 764 345 767T347 774L414 879Q418 884 421 886T430 889H464Q469 889 470 886T468 879L392 774Q388 769 385 767T376 764H351ZM227 764Q222 764 221 767T223 774L290 879Q296 889 306 889H339Q344 889 345 886T343 879L268 774Q261 764 252 764H227Z"  />
<glyph unicode="&#x151;" horiz-adv-x="509" d="M304 558Q294 558 299 568L366 690Q372 700 382 700H414Q419 700 420 697T419 690L343 567Q340 562 337 560T328 558H304ZM180 558Q169 558 174 568L241 690Q247 700 257 700H290Q295 700 296 697T295 690L219 567Q216 562 213 560T204 558H180ZM254 -10Q188 -10 142 22T76 114Q68 138 64 166T60 239Q60 282 64 310T76 363Q96 423 142 455T254 487Q320 487 366 455T433 363Q441 339 445 311T449 239Q449 195 445 167T433 114Q413 54 367 22T254 -10ZM254 42Q301 42 334 65T381 131Q388 151 391 175T394 239Q394 277 391 301T381 346Q367 389 334 412T254 435Q208 435 175 412T128 346Q121 326 118 302T115 239Q115 200 118 176T128 131Q142 88 175 65T254 42Z"  />
<glyph unicode="&#x152;" horiz-adv-x="949" d="M306 -10Q222 -10 167 29T86 143Q81 156 78 172T72 211T68 265T66 340Q66 384 67 415T71 468T77 507T86 537Q111 612 166 651T306 690Q367 690 413 667T486 592H487V670Q487 680 497 680H886Q896 680 896 670V636Q896 626 886 626H550Q544 626 544 620V378Q544 372 550 372H839Q849 372 849 362V328Q849 318 839 318H550Q544 318 544 312V60Q544 54 550 54H886Q896 54 896 44V10Q896 0 886 0H497Q487 0 487 10V88H486Q460 37 414 14T306 -10ZM306 44Q432 44 470 159Q473 169 476 183T482 218T485 269T487 340Q487 381 486 411T482 462T477 497T470 521Q432 636 306 636Q179 636 141 521Q138 511 135 497T129 462T126 411T124 340Q124 299 125 269T129 218T134 183T141 159Q179 44 306 44Z"  />
<glyph unicode="&#x153;" horiz-adv-x="836" d="M590 -10Q530 -10 488 14T422 90H420Q398 40 356 15T254 -10Q188 -10 142 22T76 114Q68 138 64 166T60 238Q60 282 64 310T76 363Q95 422 141 454T254 487Q312 487 355 462T420 387H421Q444 437 486 462T585 487Q650 487 696 455T762 363Q769 340 772 313T776 236Q776 226 765 226H454Q448 226 448 219Q449 189 451 171T459 135Q475 87 509 65T593 42Q641 42 674 59T727 103Q735 111 742 105L763 84Q770 78 764 70Q738 35 694 13T590 -10ZM715 272Q721 272 721 278Q721 300 719 316T712 347Q697 392 665 414T585 437Q538 437 505 415T458 347Q453 333 451 317T448 278Q448 272 454 272H715ZM254 42Q301 42 334 65T381 131Q388 151 391 175T394 239Q394 277 391 301T381 346Q367 389 334 412T254 435Q208 435 175 412T128 346Q121 326 118 302T115 239Q115 200 118 176T128 131Q142 88 175 65T254 42Z"  />
<glyph unicode="&#x154;" horiz-adv-x="615" d="M497 0Q489 0 485 9L342 304H332H157Q151 304 151 298V10Q151 0 141 0H104Q94 0 94 10V670Q94 680 104 680H332Q429 680 484 630T539 492Q539 421 503 375T400 312L548 11Q551 6 550 3T543 0H497ZM331 358Q404 358 443 392T482 492Q482 556 443 591T331 626H157Q151 626 151 620V364Q151 358 157 358H331ZM254 764Q249 764 248 766T250 774L332 878Q339 888 350 888H390Q395 888 396 885T394 878L298 773Q293 767 290 766T280 764H254Z"  />
<glyph unicode="&#x155;" horiz-adv-x="396" d="M177 558Q166 558 171 568L248 690Q254 700 265 700H303Q308 700 309 697T308 690L220 568Q215 563 212 561T202 558H177ZM102 0Q92 0 92 10V467Q92 477 102 477H136Q146 477 146 467V406H147Q161 441 192 464T275 487Q304 487 329 478T371 454Q379 449 373 441L353 413Q348 406 338 411Q321 422 303 428T262 435Q230 435 208 422T173 388T153 337T146 274V10Q146 0 136 0H102Z"  />
<glyph unicode="&#x156;" horiz-adv-x="615" d="M288 -195Q279 -195 279 -186V-66Q279 -56 289 -56H326Q336 -56 336 -66V-108Q336 -116 335 -120T331 -130L299 -187Q295 -195 288 -195ZM497 0Q489 0 485 9L342 304H332H157Q151 304 151 298V10Q151 0 141 0H104Q94 0 94 10V670Q94 680 104 680H332Q429 680 484 630T539 492Q539 421 503 375T400 312L548 11Q551 6 550 3T543 0H497ZM331 358Q404 358 443 392T482 492Q482 556 443 591T331 626H157Q151 626 151 620V364Q151 358 157 358H331Z"  />
<glyph unicode="&#x157;" horiz-adv-x="396" d="M101 -195Q92 -195 92 -186V-66Q92 -56 102 -56H139Q149 -56 149 -66V-108Q149 -116 148 -120T144 -130L112 -187Q108 -195 101 -195ZM102 0Q92 0 92 10V467Q92 477 102 477H136Q146 477 146 467V406H147Q161 441 192 464T275 487Q304 487 329 478T371 454Q379 449 373 441L353 413Q348 406 338 411Q321 422 303 428T262 435Q230 435 208 422T173 388T153 337T146 274V10Q146 0 136 0H102Z"  />
<glyph unicode="&#x158;" horiz-adv-x="615" d="M275 754Q265 754 259 763L169 885Q166 889 167 892T173 895H198Q206 895 215 885L285 800H287L358 885Q363 891 366 893T375 895H400Q405 895 406 892T404 885L313 763Q307 754 298 754H275ZM497 0Q489 0 485 9L342 304H332H157Q151 304 151 298V10Q151 0 141 0H104Q94 0 94 10V670Q94 680 104 680H332Q429 680 484 630T539 492Q539 421 503 375T400 312L548 11Q551 6 550 3T543 0H497ZM331 358Q404 358 443 392T482 492Q482 556 443 591T331 626H157Q151 626 151 620V364Q151 358 157 358H331Z"  />
<glyph unicode="&#x159;" horiz-adv-x="396" d="M212 558Q202 558 196 567L106 689Q103 693 104 696T110 699H135Q143 699 152 689L222 604H224L295 689Q300 695 303 697T312 699H337Q342 699 343 696T341 689L250 567Q244 558 235 558H212ZM102 0Q92 0 92 10V467Q92 477 102 477H136Q146 477 146 467V406H147Q161 441 192 464T275 487Q304 487 329 478T371 454Q379 449 373 441L353 413Q348 406 338 411Q321 422 303 428T262 435Q230 435 208 422T173 388T153 337T146 274V10Q146 0 136 0H102Z"  />
<glyph unicode="&#x15A;" horiz-adv-x="596" d="M290 -10Q257 -10 224 -4T162 14T108 39T65 69Q57 76 64 83L88 113Q95 121 102 114Q136 88 186 66T297 44Q379 44 426 82T473 183Q473 208 465 229T439 268T389 297T310 315L279 319Q179 332 131 378T83 499Q83 588 141 639T297 690Q354 690 405 675T491 633Q500 628 493 619L473 588Q467 581 459 586Q418 611 378 623T294 636Q221 636 181 600T140 503Q140 451 176 418T300 374L331 370Q435 356 482 310T530 187Q530 144 515 108T469 46T394 5T290 -10ZM265 764Q260 764 259 766T261 774L343 878Q350 888 361 888H401Q406 888 407 885T405 878L309 773Q304 767 301 766T291 764H265Z"  />
<glyph unicode="&#x15B;" horiz-adv-x="481" d="M212 558Q201 558 206 568L283 690Q289 700 300 700H338Q343 700 344 697T343 690L255 568Q250 563 247 561T237 558H212ZM241 -10Q209 -10 181 -4T130 12T88 33T55 57Q48 64 55 71L77 96Q83 102 91 96Q119 73 158 57T246 40Q309 40 339 65T370 132Q370 150 366 164T349 188T315 205T261 216L213 221Q146 228 110 259T74 348Q74 414 118 450T242 487Q291 487 331 474T401 441Q409 435 403 427L385 403Q380 395 371 400Q348 414 313 425T239 437Q184 437 156 415T128 352Q128 317 152 298T238 272L286 267Q356 260 390 228T424 139Q424 70 378 30T241 -10Z"  />
<glyph unicode="&#x15C;" horiz-adv-x="596" d="M290 -10Q257 -10 224 -4T162 14T108 39T65 69Q57 76 64 83L88 113Q95 121 102 114Q136 88 186 66T297 44Q379 44 426 82T473 183Q473 208 465 229T439 268T389 297T310 315L279 319Q179 332 131 378T83 499Q83 588 141 639T297 690Q354 690 405 675T491 633Q500 628 493 619L473 588Q467 581 459 586Q418 611 378 623T294 636Q221 636 181 600T140 503Q140 451 176 418T300 374L331 370Q435 356 482 310T530 187Q530 144 515 108T469 46T394 5T290 -10ZM386 754Q376 754 369 764L298 849H296L226 764Q217 754 209 754H184Q179 754 178 757T180 764L270 887Q276 896 286 896H309Q318 896 324 887L415 764Q418 760 417 757T411 754H386Z"  />
<glyph unicode="&#x15D;" horiz-adv-x="481" d="M330 558Q320 558 313 568L242 653H240L170 568Q161 558 153 558H128Q123 558 122 561T124 568L214 691Q220 700 230 700H253Q262 700 268 691L359 568Q362 564 361 561T355 558H330ZM241 -10Q209 -10 181 -4T130 12T88 33T55 57Q48 64 55 71L77 96Q83 102 91 96Q119 73 158 57T246 40Q309 40 339 65T370 132Q370 150 366 164T349 188T315 205T261 216L213 221Q146 228 110 259T74 348Q74 414 118 450T242 487Q291 487 331 474T401 441Q409 435 403 427L385 403Q380 395 371 400Q348 414 313 425T239 437Q184 437 156 415T128 352Q128 317 152 298T238 272L286 267Q356 260 390 228T424 139Q424 70 378 30T241 -10Z"  />
<glyph unicode="&#x15E;" horiz-adv-x="596" d="M235 -148Q225 -148 228 -138L278 -10Q246 -9 215 -2T157 16T106 40T65 69Q57 76 64 83L88 113Q95 121 102 114Q136 88 186 66T297 44Q379 44 426 82T473 183Q473 208 465 229T439 268T389 297T310 315L279 319Q179 332 131 378T83 499Q83 588 141 639T297 690Q354 690 405 675T491 633Q500 628 493 619L473 588Q467 581 459 586Q418 611 378 623T294 636Q221 636 181 600T140 503Q140 451 176 418T300 374L331 370Q435 356 482 310T530 187Q530 147 517 113T478 54T414 12T325 -8L282 -138Q278 -148 266 -148H235Z"  />
<glyph unicode="&#x15F;" horiz-adv-x="481" d="M181 -148Q171 -148 174 -138L224 -10Q167 -7 124 13T55 57Q48 64 55 71L77 96Q83 102 91 96Q119 73 158 57T246 40Q309 40 339 65T370 132Q370 150 366 164T349 188T315 205T261 216L213 221Q146 228 110 259T74 348Q74 414 118 450T242 487Q291 487 331 474T401 441Q409 435 403 427L385 403Q380 395 371 400Q348 414 313 425T239 437Q184 437 156 415T128 352Q128 317 152 298T238 272L286 267Q356 260 390 228T424 139Q424 78 386 38T271 -9L228 -138Q224 -148 212 -148H181Z"  />
<glyph unicode="&#x160;" horiz-adv-x="596" d="M290 -10Q257 -10 224 -4T162 14T108 39T65 69Q57 76 64 83L88 113Q95 121 102 114Q136 88 186 66T297 44Q379 44 426 82T473 183Q473 208 465 229T439 268T389 297T310 315L279 319Q179 332 131 378T83 499Q83 588 141 639T297 690Q354 690 405 675T491 633Q500 628 493 619L473 588Q467 581 459 586Q418 611 378 623T294 636Q221 636 181 600T140 503Q140 451 176 418T300 374L331 370Q435 356 482 310T530 187Q530 144 515 108T469 46T394 5T290 -10ZM286 754Q276 754 270 763L180 885Q177 889 178 892T184 895H209Q217 895 226 885L296 800H298L369 885Q374 891 377 893T386 895H411Q416 895 417 892T415 885L324 763Q318 754 309 754H286Z"  />
<glyph unicode="&#x161;" horiz-adv-x="481" d="M230 558Q220 558 214 567L124 689Q121 693 122 696T128 699H153Q161 699 170 689L240 604H242L313 689Q318 695 321 697T330 699H355Q360 699 361 696T359 689L268 567Q262 558 253 558H230ZM241 -10Q209 -10 181 -4T130 12T88 33T55 57Q48 64 55 71L77 96Q83 102 91 96Q119 73 158 57T246 40Q309 40 339 65T370 132Q370 150 366 164T349 188T315 205T261 216L213 221Q146 228 110 259T74 348Q74 414 118 450T242 487Q291 487 331 474T401 441Q409 435 403 427L385 403Q380 395 371 400Q348 414 313 425T239 437Q184 437 156 415T128 352Q128 317 152 298T238 272L286 267Q356 260 390 228T424 139Q424 70 378 30T241 -10Z"  />
<glyph unicode="&#x162;" horiz-adv-x="525" d="M243 -195Q234 -195 234 -186V-66Q234 -56 244 -56H281Q291 -56 291 -66V-108Q291 -116 290 -120T286 -130L254 -187Q250 -195 243 -195ZM244 0Q234 0 234 10V620Q234 626 228 626H32Q22 626 22 636V670Q22 680 32 680H493Q503 680 503 670V636Q503 626 493 626H297Q291 626 291 620V10Q291 0 281 0H244Z"  />
<glyph unicode="&#x163;" horiz-adv-x="311" d="M162 -195Q153 -195 153 -186V-66Q153 -56 163 -56H200Q210 -56 210 -66V-108Q210 -116 209 -120T205 -130L173 -187Q169 -195 162 -195ZM229 -3Q161 -3 133 26T105 126V423Q105 429 99 429H49Q39 429 39 439V467Q39 477 49 477H99Q105 477 105 483V620Q105 630 115 630H149Q159 630 159 620V483Q159 477 165 477H255Q265 477 265 467V439Q265 429 255 429H165Q159 429 159 423V129Q159 81 176 65T236 49H255Q265 49 265 39V7Q265 -3 255 -3H229Z"  />
<glyph unicode="&#x164;" horiz-adv-x="525" d="M251 754Q241 754 235 763L145 885Q142 889 143 892T149 895H174Q182 895 191 885L261 800H263L334 885Q339 891 342 893T351 895H376Q381 895 382 892T380 885L289 763Q283 754 274 754H251ZM244 0Q234 0 234 10V620Q234 626 228 626H32Q22 626 22 636V670Q22 680 32 680H493Q503 680 503 670V636Q503 626 493 626H297Q291 626 291 620V10Q291 0 281 0H244Z"  />
<glyph unicode="&#x165;" horiz-adv-x="311" d="M255 535Q246 535 246 545V670Q246 680 256 680H293Q303 680 303 670V622Q303 611 298 601L266 544Q261 535 255 535ZM229 -3Q161 -3 133 26T105 126V423Q105 429 99 429H49Q39 429 39 439V467Q39 477 49 477H99Q105 477 105 483V620Q105 630 115 630H149Q159 630 159 620V483Q159 477 165 477H255Q265 477 265 467V439Q265 429 255 429H165Q159 429 159 423V129Q159 81 176 65T236 49H255Q265 49 265 39V7Q265 -3 255 -3H229Z"  />
<glyph unicode="&#x166;" horiz-adv-x="525" d="M244 0Q234 0 234 10V394Q234 400 228 400H123Q113 400 113 410V440Q113 450 123 450H228Q234 450 234 456V620Q234 626 228 626H32Q22 626 22 636V670Q22 680 32 680H493Q503 680 503 670V636Q503 626 493 626H297Q291 626 291 620V456Q291 450 297 450H402Q412 450 412 440V410Q412 400 402 400H297Q291 400 291 394V10Q291 0 281 0H244Z"  />
<glyph unicode="&#x167;" horiz-adv-x="311" d="M229 -3Q161 -3 133 26T105 126V295Q105 301 99 301H59Q49 301 49 311V337Q49 347 59 347H99Q105 347 105 353V423Q105 429 99 429H49Q39 429 39 439V467Q39 477 49 477H99Q105 477 105 483V620Q105 630 115 630H149Q159 630 159 620V483Q159 477 165 477H255Q265 477 265 467V439Q265 429 255 429H165Q159 429 159 423V353Q159 347 165 347H242Q252 347 252 337V311Q252 301 242 301H165Q159 301 159 295V129Q159 81 176 65T236 49H255Q265 49 265 39V7Q265 -3 255 -3H229Z"  />
<glyph unicode="&#x168;" horiz-adv-x="635" d="M371 782Q353 782 339 788T311 803Q299 811 288 816T262 821Q245 821 232 812T204 788Q195 781 195 791V821Q195 828 203 836Q215 850 230 858T264 866Q282 866 296 860T324 846Q336 838 347 833T373 828Q390 828 404 837T432 861Q435 864 437 863T440 858V828Q440 823 439 820T433 812Q420 799 405 791T371 782ZM144 234Q144 137 190 91T317 44Q399 44 445 90T491 234V670Q491 680 501 680H538Q548 680 548 670V235Q548 173 532 127T485 51T413 5T317 -10Q212 -10 150 50T87 235V670Q87 680 97 680H134Q144 680 144 670V234Z"  />
<glyph unicode="&#x169;" horiz-adv-x="535" d="M399 0Q389 0 389 10V66H388Q370 31 334 11T249 -10Q169 -10 127 37T84 171V467Q84 477 94 477H128Q138 477 138 467V185Q138 42 261 42Q288 42 311 51T352 77T379 119T389 175V467Q389 477 399 477H433Q443 477 443 467V10Q443 0 433 0H399ZM320 596Q302 596 288 602T260 617Q248 625 237 630T211 635Q194 635 181 626T153 602Q144 595 144 605V635Q144 642 152 650Q164 664 179 672T213 680Q231 680 245 674T273 660Q285 652 296 647T322 642Q339 642 353 651T381 675Q384 678 386 677T389 672V642Q389 637 388 634T382 626Q369 613 354 605T320 596Z"  />
<glyph unicode="&#x16A;" horiz-adv-x="635" d="M197 800Q187 800 187 810V836Q187 846 197 846H437Q447 846 447 836V810Q447 800 437 800H197ZM144 234Q144 137 190 91T317 44Q399 44 445 90T491 234V670Q491 680 501 680H538Q548 680 548 670V235Q548 173 532 127T485 51T413 5T317 -10Q212 -10 150 50T87 235V670Q87 680 97 680H134Q144 680 144 670V234Z"  />
<glyph unicode="&#x16B;" horiz-adv-x="535" d="M399 0Q389 0 389 10V66H388Q370 31 334 11T249 -10Q169 -10 127 37T84 171V467Q84 477 94 477H128Q138 477 138 467V185Q138 42 261 42Q288 42 311 51T352 77T379 119T389 175V467Q389 477 399 477H433Q443 477 443 467V10Q443 0 433 0H399ZM146 618Q136 618 136 628V654Q136 664 146 664H386Q396 664 396 654V628Q396 618 386 618H146Z"  />
<glyph unicode="&#x16C;" horiz-adv-x="635" d="M317 768Q266 768 233 796T193 871Q191 881 202 881H221Q230 881 233 871Q250 812 317 812Q385 812 403 871Q406 881 414 881H433Q444 881 442 871Q435 825 402 797T317 768ZM144 234Q144 137 190 91T317 44Q399 44 445 90T491 234V670Q491 680 501 680H538Q548 680 548 670V235Q548 173 532 127T485 51T413 5T317 -10Q212 -10 150 50T87 235V670Q87 680 97 680H134Q144 680 144 670V234Z"  />
<glyph unicode="&#x16D;" horiz-adv-x="535" d="M399 0Q389 0 389 10V66H388Q370 31 334 11T249 -10Q169 -10 127 37T84 171V467Q84 477 94 477H128Q138 477 138 467V185Q138 42 261 42Q288 42 311 51T352 77T379 119T389 175V467Q389 477 399 477H433Q443 477 443 467V10Q443 0 433 0H399ZM266 570Q215 570 182 599T142 674Q140 684 151 684H170Q179 684 182 674Q199 614 266 614Q334 614 352 674Q355 684 363 684H382Q393 684 391 674Q384 628 351 599T266 570Z"  />
<glyph unicode="&#x16E;" horiz-adv-x="635" d="M144 234Q144 137 190 91T317 44Q399 44 445 90T491 234V670Q491 680 501 680H538Q548 680 548 670V235Q548 173 532 127T485 51T413 5T317 -10Q212 -10 150 50T87 235V670Q87 680 97 680H134Q144 680 144 670V234ZM405 826Q405 788 380 763T317 738Q279 738 254 763T229 826Q229 864 254 889T317 914Q355 914 380 889T405 826ZM370 826Q370 850 356 866T317 882Q293 882 279 866T264 826Q264 802 278 786T317 770Q341 770 355 786T370 826Z"  />
<glyph unicode="&#x16F;" horiz-adv-x="535" d="M354 629Q354 591 329 566T266 541Q228 541 203 566T178 629Q178 667 203 692T266 717Q304 717 329 692T354 629ZM319 629Q319 653 305 669T266 685Q242 685 228 669T213 629Q213 605 227 589T266 573Q290 573 304 589T319 629ZM399 0Q389 0 389 10V66H388Q370 31 334 11T249 -10Q169 -10 127 37T84 171V467Q84 477 94 477H128Q138 477 138 467V185Q138 42 261 42Q288 42 311 51T352 77T379 119T389 175V467Q389 477 399 477H433Q443 477 443 467V10Q443 0 433 0H399Z"  />
<glyph unicode="&#x170;" horiz-adv-x="635" d="M144 234Q144 137 190 91T317 44Q399 44 445 90T491 234V670Q491 680 501 680H538Q548 680 548 670V235Q548 173 532 127T485 51T413 5T317 -10Q212 -10 150 50T87 235V670Q87 680 97 680H134Q144 680 144 670V234ZM361 764Q356 764 355 767T357 774L424 879Q428 884 431 886T440 889H474Q479 889 480 886T478 879L402 774Q398 769 395 767T386 764H361ZM237 764Q232 764 231 767T233 774L300 879Q306 889 316 889H349Q354 889 355 886T353 879L278 774Q271 764 262 764H237Z"  />
<glyph unicode="&#x171;" horiz-adv-x="535" d="M399 0Q389 0 389 10V66H388Q370 31 334 11T249 -10Q169 -10 127 37T84 171V467Q84 477 94 477H128Q138 477 138 467V185Q138 42 261 42Q288 42 311 51T352 77T379 119T389 175V467Q389 477 399 477H433Q443 477 443 467V10Q443 0 433 0H399ZM306 558Q296 558 301 568L368 690Q374 700 384 700H416Q421 700 422 697T421 690L345 567Q342 562 339 560T330 558H306ZM182 558Q171 558 176 568L243 690Q249 700 259 700H292Q297 700 298 697T297 690L221 567Q218 562 215 560T206 558H182Z"  />
<glyph unicode="&#x172;" horiz-adv-x="635" d="M325 -172Q293 -172 274 -154T255 -104Q255 -84 266 -62T304 -10Q204 -6 146 54T87 235V670Q87 680 97 680H134Q144 680 144 670V234Q144 137 190 91T317 44Q399 44 445 90T491 234V670Q491 680 501 680H538Q548 680 548 670V235Q548 123 497 64T358 -7Q341 -26 331 -39T314 -63T306 -82T304 -97Q304 -125 333 -125Q346 -125 361 -116Q369 -111 374 -119L385 -140Q388 -147 381 -153Q371 -161 356 -166T325 -172Z"  />
<glyph unicode="&#x173;" horiz-adv-x="535" d="M376 -172Q344 -172 325 -154T306 -104Q306 -79 322 -54T389 7V66H388Q370 31 334 11T249 -10Q169 -10 127 37T84 171V467Q84 477 94 477H128Q138 477 138 467V185Q138 42 261 42Q288 42 311 51T352 77T379 119T389 175V467Q389 477 399 477H433Q443 477 443 467V10Q443 4 438 0Q412 -19 396 -33T370 -59T358 -80T355 -97Q355 -125 384 -125Q397 -125 412 -116Q420 -111 425 -119L436 -140Q439 -147 432 -153Q422 -161 407 -166T376 -172Z"  />
<glyph unicode="&#x174;" horiz-adv-x="817" d="M580 0Q572 0 569 10L410 567H408L248 10Q245 0 237 0H205Q196 0 193 10L32 669Q29 680 40 680H76Q88 680 89 670L223 110H225L382 670Q385 680 394 680H424Q433 680 436 670L595 110H597L728 670Q730 680 741 680H777Q788 680 785 669L624 10Q622 0 613 0H580ZM497 754Q487 754 480 764L409 849H407L337 764Q328 754 320 754H295Q290 754 289 757T291 764L381 887Q387 896 397 896H420Q429 896 435 887L526 764Q529 760 528 757T522 754H497Z"  />
<glyph unicode="&#x175;" horiz-adv-x="736" d="M456 558Q446 558 439 568L368 653H366L296 568Q287 558 279 558H254Q249 558 248 561T250 568L340 691Q346 700 356 700H379Q388 700 394 691L485 568Q488 564 487 561T481 558H456ZM505 0Q496 0 493 10L369 391H368L242 10Q239 0 230 0H200Q191 0 188 10L39 467Q36 477 46 477H82Q91 477 95 467L217 86H218L342 467Q345 477 354 477H383Q392 477 395 467L521 86H522L641 467Q645 477 654 477H690Q700 477 697 467L548 10Q545 0 536 0H505Z"  />
<glyph unicode="&#x176;" horiz-adv-x="515" d="M239 0Q229 0 229 10V279L25 669Q23 673 25 676T33 680H72Q82 680 87 670L258 345H261L429 670Q434 680 444 680H482Q488 680 490 677T490 669L286 279V10Q286 0 276 0H239ZM346 754Q336 754 329 764L258 849H256L186 764Q177 754 169 754H144Q139 754 138 757T140 764L230 887Q236 896 246 896H269Q278 896 284 887L375 764Q378 760 377 757T371 754H346Z"  />
<glyph unicode="&#x177;" horiz-adv-x="467" d="M82 -180Q72 -180 72 -170V-138Q72 -128 82 -128H100Q115 -128 127 -124T150 -111T170 -84T190 -39L209 10L33 467Q30 477 40 477H78Q87 477 91 467L236 84H237L378 467Q381 477 390 477H428Q438 477 435 467L240 -46Q225 -87 210 -113T179 -154T145 -174T103 -180H82ZM323 558Q313 558 306 568L235 653H233L163 568Q154 558 146 558H121Q116 558 115 561T117 568L207 691Q213 700 223 700H246Q255 700 261 691L352 568Q355 564 354 561T348 558H323Z"  />
<glyph unicode="&#x178;" horiz-adv-x="515" d="M239 0Q229 0 229 10V279L25 669Q23 673 25 676T33 680H72Q82 680 87 670L258 345H261L429 670Q434 680 444 680H482Q488 680 490 677T490 669L286 279V10Q286 0 276 0H239ZM338 786Q328 786 328 796V852Q328 862 338 862H377Q387 862 387 852V796Q387 786 377 786H338ZM138 786Q128 786 128 796V852Q128 862 138 862H177Q187 862 187 852V796Q187 786 177 786H138Z"  />
<glyph unicode="&#x179;" horiz-adv-x="540" d="M63 0Q53 0 53 10V43Q53 50 58 58L419 625V626H76Q66 626 66 636V670Q66 680 76 680H476Q486 680 486 670V637Q486 629 481 622L120 55V54H476Q486 54 486 44V10Q486 0 476 0H63ZM232 764Q227 764 226 766T228 774L310 878Q317 888 328 888H368Q373 888 374 885T372 878L276 773Q271 767 268 766T258 764H232Z"  />
<glyph unicode="&#x17A;" horiz-adv-x="467" d="M205 558Q194 558 199 568L276 690Q282 700 293 700H331Q336 700 337 697T336 690L248 568Q243 563 240 561T230 558H205ZM68 0Q58 0 58 10V40Q58 47 63 53L346 424V425H81Q71 425 71 435V467Q71 477 81 477H401Q411 477 411 467V435Q411 428 406 422L124 53V51H401Q411 51 411 41V10Q411 0 401 0H68Z"  />
<glyph unicode="&#x17B;" horiz-adv-x="540" d="M248 786Q238 786 238 796V852Q238 862 248 862H292Q302 862 302 852V796Q302 786 292 786H248ZM63 0Q53 0 53 10V43Q53 50 58 58L419 625V626H76Q66 626 66 636V670Q66 680 76 680H476Q486 680 486 670V637Q486 629 481 622L120 55V54H476Q486 54 486 44V10Q486 0 476 0H63Z"  />
<glyph unicode="&#x17C;" horiz-adv-x="467" d="M68 0Q58 0 58 10V40Q58 47 63 53L346 424V425H81Q71 425 71 435V467Q71 477 81 477H401Q411 477 411 467V435Q411 428 406 422L124 53V51H401Q411 51 411 41V10Q411 0 401 0H68ZM214 604Q204 604 204 614V670Q204 680 214 680H258Q268 680 268 670V614Q268 604 258 604H214Z"  />
<glyph unicode="&#x17D;" horiz-adv-x="540" d="M259 754Q249 754 243 763L153 885Q150 889 151 892T157 895H182Q190 895 199 885L269 800H271L342 885Q347 891 350 893T359 895H384Q389 895 390 892T388 885L297 763Q291 754 282 754H259ZM63 0Q53 0 53 10V43Q53 50 58 58L419 625V626H76Q66 626 66 636V670Q66 680 76 680H476Q486 680 486 670V637Q486 629 481 622L120 55V54H476Q486 54 486 44V10Q486 0 476 0H63Z"  />
<glyph unicode="&#x17E;" horiz-adv-x="467" d="M223 558Q213 558 207 567L117 689Q114 693 115 696T121 699H146Q154 699 163 689L233 604H235L306 689Q311 695 314 697T323 699H348Q353 699 354 696T352 689L261 567Q255 558 246 558H223ZM68 0Q58 0 58 10V40Q58 47 63 53L346 424V425H81Q71 425 71 435V467Q71 477 81 477H401Q411 477 411 467V435Q411 428 406 422L124 53V51H401Q411 51 411 41V10Q411 0 401 0H68Z"  />
<glyph unicode="&#x192;" horiz-adv-x="532" d="M308 348L249 -37Q243 -77 232 -104T204 -148T162 -172T103 -180H82Q72 -180 72 -170V-139Q72 -129 82 -129H105Q146 -129 166 -111T195 -40L254 348H168Q158 348 158 358V385Q158 395 168 395H262L284 538Q290 577 300 604T328 648T370 672T429 680H450Q460 680 460 670V639Q460 629 450 629H426Q385 629 365 610T338 540L315 395H415Q425 395 425 385V358Q425 348 415 348H308Z"  />
<glyph unicode="&#x1FA;" horiz-adv-x="596" d="M283 787Q278 787 277 790T281 797L364 878Q374 888 385 888H424Q429 888 430 885T427 878L331 796Q319 787 309 787H283ZM387 671Q387 647 377 628T349 597L565 10Q568 0 557 0H519Q509 0 506 10L445 177H151L90 10Q86 0 77 0H39Q28 0 31 10L248 598Q231 609 221 628T211 671Q211 709 236 734T299 759Q337 759 362 734T387 671ZM352 671Q352 695 338 711T299 727Q275 727 261 711T246 671Q246 647 260 631T299 615Q323 615 337 631T352 671ZM171 232H425L300 572H297L171 232Z"  />
<glyph unicode="&#x1FB;" horiz-adv-x="513" d="M242 765Q237 765 236 768T238 775L319 878Q326 888 337 888H376Q381 888 382 885T381 878L286 774Q281 768 277 767T268 765H242ZM250 437Q206 437 179 428T130 401Q121 394 115 402L98 427Q93 435 101 441Q127 463 164 475T253 487Q299 487 332 479T386 452T417 403T427 329V10Q427 0 417 0H385Q375 0 375 10V60H374Q360 30 323 10T226 -10Q154 -10 110 25T66 131Q66 203 112 237T247 272H368Q374 272 374 278V327Q374 356 369 377T349 411T310 431T250 437ZM237 40Q299 40 336 69T374 147V220Q374 226 368 226H254Q182 226 151 203T119 132Q119 87 149 64T237 40ZM346 629Q346 591 321 566T258 541Q220 541 195 566T170 629Q170 667 195 692T258 717Q296 717 321 692T346 629ZM311 629Q311 653 297 669T258 685Q234 685 220 669T205 629Q205 605 219 589T258 573Q282 573 296 589T311 629Z"  />
<glyph unicode="&#x1FC;" horiz-adv-x="941" d="M502 764Q497 764 496 766T498 774L580 878Q587 888 598 888H638Q643 888 644 885T642 878L546 773Q541 767 538 766T528 764H502ZM489 0Q479 0 479 10V171Q479 177 473 177H200L96 10Q91 0 82 0H38Q33 0 32 3T32 10L439 671Q445 680 454 680H878Q888 680 888 670V636Q888 626 878 626H542Q536 626 536 620V378Q536 372 542 372H831Q841 372 841 362V328Q841 318 831 318H542Q536 318 536 312V60Q536 54 542 54H878Q888 54 888 44V10Q888 0 878 0H489ZM234 232H473Q479 232 479 238V625H477L234 232Z"  />
<glyph unicode="&#x1FD;" horiz-adv-x="814" d="M401 558Q390 558 395 568L472 690Q478 700 489 700H527Q532 700 533 697T532 690L444 568Q439 563 436 561T426 558H401ZM250 437Q206 437 179 428T130 401Q121 394 115 402L98 427Q93 435 101 441Q127 463 164 475T253 487Q318 487 357 469T410 407H412Q459 487 563 487Q628 487 674 455T741 363Q749 340 752 313T755 236Q755 226 744 226H433Q427 226 427 219Q427 189 429 171T437 135Q454 87 488 65T572 42Q619 42 651 59T705 103Q711 111 719 105L742 84Q749 78 743 70Q717 35 673 13T569 -10Q504 -10 464 16T402 83H401Q382 38 339 14T226 -10Q154 -10 110 25T66 131Q66 203 112 237T247 272H368Q374 272 374 278V327Q374 356 369 377T349 411T310 431T250 437ZM694 272Q700 272 700 278Q700 300 698 316T691 347Q677 392 644 414T563 437Q516 437 483 415T436 347Q431 333 429 317T427 278Q427 272 433 272H694ZM237 40Q299 40 336 69T374 147V220Q374 226 368 226H254Q182 226 151 203T119 132Q119 87 149 64T237 40Z"  />
<glyph unicode="&#x1FE;" horiz-adv-x="609" d="M305 -10Q213 -10 154 38L121 -20Q116 -30 106 -30H82Q71 -30 76 -20L125 66Q100 99 85 143Q80 156 77 172T71 211T67 265T65 340Q65 384 66 415T70 468T76 507T85 537Q110 612 165 651T305 690Q396 690 455 642L488 700Q493 710 503 710H527Q538 710 533 700L483 613Q509 581 524 537Q528 523 532 507T538 469T542 415T544 340Q544 296 543 265T539 212T532 173T524 143Q499 68 444 29T305 -10ZM140 159Q146 139 157 121L426 592Q380 636 305 636Q178 636 140 521Q137 511 134 497T128 462T125 411T123 340Q123 299 124 269T128 218T133 183T140 159ZM486 340Q486 381 485 411T481 462T476 497T469 521Q465 531 461 540T452 558L183 87Q227 44 305 44Q431 44 469 159Q472 169 475 183T481 218T484 269T486 340ZM274 764Q269 764 268 766T270 774L352 878Q359 888 370 888H410Q415 888 416 885T414 878L318 773Q313 767 310 766T300 764H274Z"  />
<glyph unicode="&#x1FF;" horiz-adv-x="509" d="M254 -10Q182 -10 134 29L101 -20Q94 -30 84 -30H67Q62 -30 61 -27T62 -20L109 52Q87 80 76 114Q68 138 64 166T60 239Q60 282 64 310T76 363Q96 423 142 455T254 487Q325 487 375 448L408 497Q415 507 425 507H442Q447 507 448 504T447 497L399 424Q420 400 433 363Q441 339 445 311T449 239Q449 195 445 167T433 114Q413 54 367 22T254 -10ZM128 131Q134 114 142 100L345 403Q310 435 254 435Q208 435 175 412T128 346Q121 326 118 302T115 239Q115 200 118 176T128 131ZM254 42Q301 42 334 65T381 131Q388 151 391 175T394 239Q394 277 391 301T381 346Q378 354 375 361T367 377L164 74Q199 42 254 42ZM227 558Q216 558 221 568L298 690Q304 700 315 700H353Q358 700 359 697T358 690L270 568Q265 563 262 561T252 558H227Z"  />
<glyph unicode="&#x218;" horiz-adv-x="596" d="M279 -195Q270 -195 270 -186V-66Q270 -56 280 -56H317Q327 -56 327 -66V-108Q327 -116 326 -120T322 -130L290 -187Q286 -195 279 -195ZM290 -10Q257 -10 224 -4T162 14T108 39T65 69Q57 76 64 83L88 113Q95 121 102 114Q136 88 186 66T297 44Q379 44 426 82T473 183Q473 208 465 229T439 268T389 297T310 315L279 319Q179 332 131 378T83 499Q83 588 141 639T297 690Q354 690 405 675T491 633Q500 628 493 619L473 588Q467 581 459 586Q418 611 378 623T294 636Q221 636 181 600T140 503Q140 451 176 418T300 374L331 370Q435 356 482 310T530 187Q530 144 515 108T469 46T394 5T290 -10Z"  />
<glyph unicode="&#x219;" horiz-adv-x="481" d="M220 -195Q211 -195 211 -186V-66Q211 -56 221 -56H258Q268 -56 268 -66V-108Q268 -116 267 -120T263 -130L231 -187Q227 -195 220 -195ZM241 -10Q209 -10 181 -4T130 12T88 33T55 57Q48 64 55 71L77 96Q83 102 91 96Q119 73 158 57T246 40Q309 40 339 65T370 132Q370 150 366 164T349 188T315 205T261 216L213 221Q146 228 110 259T74 348Q74 414 118 450T242 487Q291 487 331 474T401 441Q409 435 403 427L385 403Q380 395 371 400Q348 414 313 425T239 437Q184 437 156 415T128 352Q128 317 152 298T238 272L286 267Q356 260 390 228T424 139Q424 70 378 30T241 -10Z"  />
<glyph unicode="&#x21A;" horiz-adv-x="525" d="M243 -195Q234 -195 234 -186V-66Q234 -56 244 -56H281Q291 -56 291 -66V-108Q291 -116 290 -120T286 -130L254 -187Q250 -195 243 -195ZM244 0Q234 0 234 10V620Q234 626 228 626H32Q22 626 22 636V670Q22 680 32 680H493Q503 680 503 670V636Q503 626 493 626H297Q291 626 291 620V10Q291 0 281 0H244Z"  />
<glyph unicode="&#x21B;" horiz-adv-x="311" d="M162 -195Q153 -195 153 -186V-66Q153 -56 163 -56H200Q210 -56 210 -66V-108Q210 -116 209 -120T205 -130L173 -187Q169 -195 162 -195ZM229 -3Q161 -3 133 26T105 126V423Q105 429 99 429H49Q39 429 39 439V467Q39 477 49 477H99Q105 477 105 483V620Q105 630 115 630H149Q159 630 159 620V483Q159 477 165 477H255Q265 477 265 467V439Q265 429 255 429H165Q159 429 159 423V129Q159 81 176 65T236 49H255Q265 49 265 39V7Q265 -3 255 -3H229Z"  />
<glyph unicode="&#x237;" horiz-adv-x="238" d="M12 -180Q2 -180 2 -170V-138Q2 -128 12 -128H21Q61 -128 76 -114T92 -55V467Q92 477 102 477H136Q146 477 146 467V-54Q146 -124 118 -152T23 -180H12Z"  />
<glyph unicode="&#x2C6;" horiz-adv-x="421" d="M299 558Q289 558 282 568L211 653H209L139 568Q130 558 122 558H97Q92 558 91 561T93 568L183 691Q189 700 199 700H222Q231 700 237 691L328 568Q331 564 330 561T324 558H299Z"  />
<glyph unicode="&#x2C7;" horiz-adv-x="421" d="M199 558Q189 558 183 567L93 689Q90 693 91 696T97 699H122Q130 699 139 689L209 604H211L282 689Q287 695 290 697T299 699H324Q329 699 330 696T328 689L237 567Q231 558 222 558H199Z"  />
<glyph unicode="&#x2C9;" horiz-adv-x="421" d="M88 800Q78 800 78 810V836Q78 846 88 846H332Q342 846 342 836V810Q342 800 332 800H88Z"  />
<glyph unicode="&#x2D8;" horiz-adv-x="421" d="M210 570Q159 570 126 599T86 674Q84 684 95 684H114Q123 684 126 674Q143 614 210 614Q278 614 296 674Q299 684 307 684H326Q337 684 335 674Q328 628 295 599T210 570Z"  />
<glyph unicode="&#x2D9;" horiz-adv-x="421" d="M188 604Q178 604 178 614V670Q178 680 188 680H232Q242 680 242 670V614Q242 604 232 604H188Z"  />
<glyph unicode="&#x2DA;" horiz-adv-x="421" d="M298 629Q298 591 273 566T210 541Q172 541 147 566T122 629Q122 667 147 692T210 717Q248 717 273 692T298 629ZM263 629Q263 653 249 669T210 685Q186 685 172 669T157 629Q157 605 171 589T210 573Q234 573 248 589T263 629Z"  />
<glyph unicode="&#x2DB;" horiz-adv-x="421" d="M210 -172Q178 -172 159 -154T140 -104Q140 -79 155 -55T212 0Q220 6 225 8T236 10H270Q275 10 275 6T272 0Q246 -19 230 -33T204 -59T192 -80T189 -97Q189 -125 218 -125Q231 -125 246 -116Q254 -111 259 -119L270 -140Q273 -147 266 -153Q256 -161 241 -166T210 -172Z"  />
<glyph unicode="&#x2DC;" horiz-adv-x="421" d="M263 596Q245 596 231 602T203 617Q191 625 180 630T154 635Q137 635 124 626T96 602Q87 595 87 605V635Q87 642 95 650Q107 664 122 672T156 680Q174 680 188 674T216 660Q228 652 239 647T265 642Q282 642 296 651T324 675Q327 678 329 677T332 672V642Q332 637 331 634T325 626Q312 613 297 605T263 596Z"  />
<glyph unicode="&#x2DD;" horiz-adv-x="421" d="M219 558Q209 558 214 568L281 690Q287 700 297 700H329Q334 700 335 697T334 690L258 567Q255 562 252 560T243 558H219ZM95 558Q84 558 89 568L156 690Q162 700 172 700H205Q210 700 211 697T210 690L134 567Q131 562 128 560T119 558H95Z"  />
<glyph unicode="&#x394;" horiz-adv-x="596" d="M39 0Q28 0 31 10L269 670Q272 680 281 680H317Q325 680 328 670L565 10Q568 0 557 0H39ZM485 51Q491 51 490 57L300 588H297L105 57Q103 51 111 51H485Z"  />
<glyph unicode="&#x3A9;" horiz-adv-x="612" d="M355 0Q345 0 345 10V46Q345 55 355 58Q394 72 420 92T461 144T483 223T489 340Q489 382 488 412T484 463T478 497T471 521Q433 636 306 636Q179 636 141 521Q138 511 135 498T129 463T125 412T123 340Q123 271 129 224T150 144T192 92T257 58Q267 55 267 46V10Q267 0 257 0H83Q73 0 73 10V44Q73 54 83 54H170V56Q141 72 122 93T89 147T71 227T65 340Q65 384 66 415T71 469T77 507T85 536Q110 614 166 652T306 690Q389 690 445 652T527 536Q531 523 534 508T541 470T545 416T547 340Q547 274 541 227T523 148T490 94T442 56V54H529Q539 54 539 44V10Q539 0 529 0H355Z"  />
<glyph unicode="&#x3BC;" horiz-adv-x="544" d="M407 0Q397 0 397 10V67H396Q380 32 345 11T262 -10Q222 -10 194 2T148 41H146V-170Q146 -180 136 -180H102Q92 -180 92 -170V467Q92 477 102 477H136Q146 477 146 467V175Q146 110 177 76T269 42Q324 42 360 77T397 175V467Q397 477 407 477H442Q452 477 452 467V10Q452 0 442 0H407Z"  />
<glyph unicode="&#x3C0;" horiz-adv-x="561" d="M473 -6Q431 -6 414 14T397 78V419Q397 425 391 425H169Q163 425 163 419V10Q163 0 153 0H118Q108 0 108 10V419Q108 425 101 425H64Q54 425 54 435V467Q54 477 64 477H496Q506 477 506 467V435Q506 425 496 425H458Q452 425 452 419V79Q452 61 458 54T478 46H484Q494 46 494 36V4Q494 -6 484 -6H473Z"  />
<glyph unicode="&#x1E80;" horiz-adv-x="817" d="M397 764Q391 764 388 765T379 773L283 878Q280 882 281 885T287 888H327Q338 888 345 878L427 774Q431 769 430 767T423 764H397ZM580 0Q572 0 569 10L410 567H408L248 10Q245 0 237 0H205Q196 0 193 10L32 669Q29 680 40 680H76Q88 680 89 670L223 110H225L382 670Q385 680 394 680H424Q433 680 436 670L595 110H597L728 670Q730 680 741 680H777Q788 680 785 669L624 10Q622 0 613 0H580Z"  />
<glyph unicode="&#x1E81;" horiz-adv-x="736" d="M505 0Q496 0 493 10L369 391H368L242 10Q239 0 230 0H200Q191 0 188 10L39 467Q36 477 46 477H82Q91 477 95 467L217 86H218L342 467Q345 477 354 477H383Q392 477 395 467L521 86H522L641 467Q645 477 654 477H690Q700 477 697 467L548 10Q545 0 536 0H505ZM353 558Q347 558 344 560T335 568L247 690Q244 694 245 697T252 700H290Q300 700 306 690L383 568Q386 563 385 561T378 558H353Z"  />
<glyph unicode="&#x1E82;" horiz-adv-x="817" d="M395 764Q390 764 389 766T391 774L473 878Q480 888 491 888H531Q536 888 537 885T535 878L439 773Q434 767 431 766T421 764H395ZM580 0Q572 0 569 10L410 567H408L248 10Q245 0 237 0H205Q196 0 193 10L32 669Q29 680 40 680H76Q88 680 89 670L223 110H225L382 670Q385 680 394 680H424Q433 680 436 670L595 110H597L728 670Q730 680 741 680H777Q788 680 785 669L624 10Q622 0 613 0H580Z"  />
<glyph unicode="&#x1E83;" horiz-adv-x="736" d="M356 558Q345 558 350 568L427 690Q433 700 444 700H482Q487 700 488 697T487 690L399 568Q394 563 391 561T381 558H356ZM505 0Q496 0 493 10L369 391H368L242 10Q239 0 230 0H200Q191 0 188 10L39 467Q36 477 46 477H82Q91 477 95 467L217 86H218L342 467Q345 477 354 477H383Q392 477 395 467L521 86H522L641 467Q645 477 654 477H690Q700 477 697 467L548 10Q545 0 536 0H505Z"  />
<glyph unicode="&#x1E84;" horiz-adv-x="817" d="M488 786Q478 786 478 796V852Q478 862 488 862H527Q537 862 537 852V796Q537 786 527 786H488ZM288 786Q278 786 278 796V852Q278 862 288 862H327Q337 862 337 852V796Q337 786 327 786H288ZM580 0Q572 0 569 10L410 567H408L248 10Q245 0 237 0H205Q196 0 193 10L32 669Q29 680 40 680H76Q88 680 89 670L223 110H225L382 670Q385 680 394 680H424Q433 680 436 670L595 110H597L728 670Q730 680 741 680H777Q788 680 785 669L624 10Q622 0 613 0H580Z"  />
<glyph unicode="&#x1E85;" horiz-adv-x="736" d="M447 604Q437 604 437 614V670Q437 680 447 680H487Q497 680 497 670V614Q497 604 487 604H447ZM248 604Q238 604 238 614V670Q238 680 248 680H288Q298 680 298 670V614Q298 604 288 604H248ZM505 0Q496 0 493 10L369 391H368L242 10Q239 0 230 0H200Q191 0 188 10L39 467Q36 477 46 477H82Q91 477 95 467L217 86H218L342 467Q345 477 354 477H383Q392 477 395 467L521 86H522L641 467Q645 477 654 477H690Q700 477 697 467L548 10Q545 0 536 0H505Z"  />
<glyph unicode="&#x1EF2;" horiz-adv-x="515" d="M239 0Q229 0 229 10V279L25 669Q23 673 25 676T33 680H72Q82 680 87 670L258 345H261L429 670Q434 680 444 680H482Q488 680 490 677T490 669L286 279V10Q286 0 276 0H239ZM257 764Q251 764 248 765T239 773L143 878Q140 882 141 885T147 888H187Q198 888 205 878L287 774Q291 769 290 767T283 764H257Z"  />
<glyph unicode="&#x1EF3;" horiz-adv-x="467" d="M82 -180Q72 -180 72 -170V-138Q72 -128 82 -128H100Q115 -128 127 -124T150 -111T170 -84T190 -39L209 10L33 467Q30 477 40 477H78Q87 477 91 467L236 84H237L378 467Q381 477 390 477H428Q438 477 435 467L240 -46Q225 -87 210 -113T179 -154T145 -174T103 -180H82ZM246 558Q240 558 237 560T228 568L140 690Q137 694 138 697T145 700H183Q193 700 199 690L276 568Q279 563 278 561T271 558H246Z"  />
<glyph unicode="&#x2013;" horiz-adv-x="504" d="M37 242Q27 242 27 252V281Q27 291 37 291H467Q477 291 477 281V252Q477 242 467 242H37Z"  />
<glyph unicode="&#x2014;" horiz-adv-x="830" d="M37 242Q27 242 27 252V281Q27 291 37 291H793Q803 291 803 281V252Q803 242 793 242H37Z"  />
<glyph unicode="&#x2018;" horiz-adv-x="207" d="M124 681Q133 681 133 671V531Q133 521 123 521H84Q74 521 74 531V600Q74 614 79 622L113 674Q118 681 124 681Z"  />
<glyph unicode="&#x2019;" horiz-adv-x="207" d="M83 520Q74 520 74 530V670Q74 680 84 680H123Q133 680 133 670V601Q133 586 128 579L94 527Q89 520 83 520Z"  />
<glyph unicode="&#x201A;" horiz-adv-x="207" d="M83 -83Q74 -83 74 -73V67Q74 77 84 77H123Q133 77 133 67V-2Q133 -17 128 -24L94 -76Q89 -83 83 -83Z"  />
<glyph unicode="&#x201C;" horiz-adv-x="346" d="M263 681Q272 681 272 671V531Q272 521 262 521H223Q213 521 213 531V600Q213 614 218 622L252 674Q257 681 263 681ZM124 681Q133 681 133 671V531Q133 521 123 521H84Q74 521 74 531V600Q74 614 79 622L113 674Q118 681 124 681Z"  />
<glyph unicode="&#x201D;" horiz-adv-x="346" d="M222 520Q213 520 213 530V670Q213 680 223 680H262Q272 680 272 670V601Q272 586 267 579L233 527Q228 520 222 520ZM83 520Q74 520 74 530V670Q74 680 84 680H123Q133 680 133 670V601Q133 586 128 579L94 527Q89 520 83 520Z"  />
<glyph unicode="&#x201E;" horiz-adv-x="346" d="M222 -56Q213 -56 213 -46V94Q213 104 223 104H262Q272 104 272 94V25Q272 10 267 3L233 -49Q228 -56 222 -56ZM83 -56Q74 -56 74 -46V94Q74 104 84 104H123Q133 104 133 94V25Q133 10 128 3L94 -49Q89 -56 83 -56Z"  />
<glyph unicode="&#x2020;" horiz-adv-x="447" d="M207 -180Q197 -180 197 -170V374Q197 380 191 380H54Q44 380 44 390V419Q44 429 54 429H191Q197 429 197 435V670Q197 680 207 680H240Q250 680 250 670V435Q250 429 256 429H393Q403 429 403 419V390Q403 380 393 380H256Q250 380 250 374V-170Q250 -180 240 -180H207Z"  />
<glyph unicode="&#x2021;" horiz-adv-x="447" d="M207 -180Q197 -180 197 -170V38Q197 44 191 44H54Q44 44 44 54V83Q44 93 54 93H191Q197 93 197 99V403Q197 409 191 409H54Q44 409 44 419V448Q44 458 54 458H191Q197 458 197 464V670Q197 680 207 680H240Q250 680 250 670V464Q250 458 256 458H393Q403 458 403 448V419Q403 409 393 409H256Q250 409 250 403V99Q250 93 256 93H393Q403 93 403 83V54Q403 44 393 44H256Q250 44 250 38V-170Q250 -180 240 -180H207Z"  />
<glyph unicode="&#x2022;" horiz-adv-x="423" d="M211 192Q187 192 166 200T130 224T106 261T97 308Q97 333 105 354T129 391T166 415T211 424Q261 424 293 392T326 308Q326 257 294 225T211 192Z"  />
<glyph unicode="&#x2026;" horiz-adv-x="657" d="M523 0Q513 0 513 10V77Q513 87 523 87H572Q582 87 582 77V10Q582 0 572 0H523ZM304 0Q294 0 294 10V77Q294 87 304 87H353Q363 87 363 77V10Q363 0 353 0H304ZM85 0Q75 0 75 10V77Q75 87 85 87H134Q144 87 144 77V10Q144 0 134 0H85Z"  />
<glyph unicode="&#x2030;" horiz-adv-x="1073" d="M170 -10Q159 -10 164 0L558 680Q564 690 572 690H599Q610 690 605 680L211 0Q205 -10 197 -10H170ZM205 330Q163 330 135 349T96 404Q94 410 93 416T91 434T89 463T88 509Q88 537 88 554T90 583T93 601T96 614Q107 649 135 668T205 688Q246 688 274 669T313 614Q314 608 315 601T318 583T320 555T321 509Q321 481 321 464T319 435T316 417T313 404Q302 369 274 350T205 330ZM205 371Q229 371 245 381T269 414Q271 419 272 424T274 440T275 466T276 509Q276 536 276 552T275 578T273 593T269 604Q262 626 246 636T205 647Q153 647 140 604Q138 599 137 594T135 578T134 552T133 509Q133 482 133 466T134 440T136 425T140 414Q153 371 205 371ZM869 -8Q828 -8 800 11T761 66Q759 72 758 78T755 96T754 125T753 171Q753 199 753 216T755 245T757 263T761 276Q772 311 800 330T869 350Q910 350 938 331T977 276Q979 270 980 263T983 245T984 217T985 171Q985 143 985 125T983 96T981 79T977 66Q966 31 938 12T869 -8ZM566 -8Q525 -8 497 11T458 66Q456 72 455 78T452 96T451 125T450 171Q450 199 450 216T452 245T454 263T458 276Q469 311 497 330T566 350Q607 350 635 331T674 276Q676 270 677 263T680 245T681 217T682 171Q682 143 682 125T680 96T678 79T674 66Q663 31 635 12T566 -8ZM869 33Q919 33 934 76Q935 81 936 86T939 101T940 127T941 171Q941 198 941 214T939 240T937 255T934 265Q919 308 869 308Q819 308 804 265Q802 260 801 255T799 240T798 214T797 171Q797 144 797 128T799 102T801 87T804 76Q819 33 869 33ZM566 33Q616 33 631 76Q632 81 633 86T636 101T637 127T638 171Q638 198 638 214T636 240T634 255T631 265Q616 308 566 308Q516 308 501 265Q499 260 498 255T496 240T495 214T494 171Q494 144 494 128T496 102T498 87T501 76Q516 33 566 33Z"  />
<glyph unicode="&#x2039;" horiz-adv-x="326" d="M69 257Q62 264 69 271L240 447Q243 450 246 449T250 443V398Q250 392 249 389T243 380L132 268Q128 264 132 260L243 148Q250 141 250 130V85Q250 80 247 79T240 81L69 257Z"  />
<glyph unicode="&#x203A;" horiz-adv-x="326" d="M86 81Q83 78 80 79T76 85V130Q76 141 83 148L194 260Q198 264 194 268L83 380Q78 385 77 388T76 398V443Q76 448 79 449T86 447L257 271Q264 264 257 257L86 81Z"  />
<glyph unicode="&#x2044;" horiz-adv-x="151" d="M-139 -10Q-150 -10 -145 0L249 680Q255 690 263 690H290Q301 690 296 680L-98 0Q-104 -10 -112 -10H-139Z"  />
<glyph unicode="&#x2070;" horiz-adv-x="331" d="M166 423Q121 423 92 444T49 503Q47 510 46 518T43 541T41 578T40 633Q40 666 40 688T42 724T45 747T49 763Q62 801 91 822T166 843Q211 843 240 822T282 763Q284 756 286 748T289 725T290 688T291 633Q291 600 291 578T289 542T286 519T282 503Q270 465 241 444T166 423ZM166 466Q221 466 238 516Q239 521 240 528T242 548T243 581T244 633Q244 664 244 684T243 717T241 737T238 750Q221 800 166 800Q111 800 94 750Q92 745 91 738T89 718T88 685T87 633Q87 601 87 581T89 548T91 528T94 516Q111 466 166 466Z"  />
<glyph unicode="&#x2074;" horiz-adv-x="331" d="M215 430Q205 430 205 440V500Q205 506 199 506H38Q28 506 28 516V538Q28 546 32 554L165 826Q169 836 178 836H207Q212 836 213 833T213 826L80 550V549H199Q205 549 205 555V653Q205 663 215 663H240Q250 663 250 653V555Q250 549 256 549H292Q302 549 302 539V516Q302 506 292 506H256Q250 506 250 500V440Q250 430 240 430H215Z"  />
<glyph unicode="&#x2075;" horiz-adv-x="331" d="M170 423Q118 423 90 446T53 503Q50 513 59 516L83 525Q92 528 95 520Q104 496 121 482T171 467Q225 467 239 512Q241 520 242 530T244 561Q244 581 243 591T239 610Q225 654 172 654Q145 654 130 644T107 617Q102 608 95 608H69Q59 608 59 618V826Q59 836 69 836H273Q283 836 283 826V803Q283 793 273 793H110Q104 793 104 787V667H105Q113 678 131 687T179 697Q261 697 283 629Q287 618 288 603T290 561Q290 535 288 521T282 495Q257 423 170 423Z"  />
<glyph unicode="&#x2076;" horiz-adv-x="331" d="M166 423Q109 423 74 457T38 548Q38 572 45 595T66 643L168 827Q174 836 182 836H212Q217 836 218 833T218 826L126 661L127 660Q144 672 174 672Q227 672 260 638T294 548Q294 491 259 457T166 423ZM166 466Q203 466 225 488T248 548Q248 584 226 606T166 629Q129 629 107 607T84 548Q84 511 106 489T166 466Z"  />
<glyph unicode="&#x2077;" horiz-adv-x="331" d="M99 430Q94 430 93 433T93 441L242 792V793H102Q96 793 96 787V745Q96 735 86 735H60Q50 735 50 745V826Q50 836 60 836H281Q291 836 291 826V798Q291 791 288 785L140 438Q136 430 127 430H99Z"  />
<glyph unicode="&#x2078;" horiz-adv-x="331" d="M166 423Q109 423 73 456T36 543Q36 581 54 606T98 643V645Q77 656 62 678T46 731Q46 779 79 811T166 843Q219 843 252 811T285 731Q285 700 270 678T233 645V643Q259 632 277 607T296 543Q296 489 260 456T166 423ZM166 663Q197 663 218 682T239 731Q239 761 218 780T166 800Q135 800 114 781T92 731Q92 702 113 683T166 663ZM166 466Q203 466 226 487T250 544Q250 579 227 600T166 622Q129 622 106 601T82 544Q82 509 105 488T166 466Z"  />
<glyph unicode="&#x2079;" horiz-adv-x="331" d="M119 430Q114 430 113 433T113 440L205 605L204 606Q189 594 158 594Q105 594 72 628T38 718Q38 775 73 809T166 843Q223 843 258 809T294 718Q294 694 287 671T265 623L163 439Q158 430 150 430H119ZM166 637Q203 637 225 659T248 718Q248 755 226 777T166 800Q129 800 107 778T84 718Q84 682 106 660T166 637Z"  />
<glyph unicode="&#x2080;" horiz-adv-x="331" d="M166 -162Q121 -162 92 -141T49 -82Q47 -75 46 -67T43 -44T41 -7T40 48Q40 81 40 103T42 139T45 162T49 178Q62 216 91 237T166 258Q211 258 240 237T282 178Q284 171 286 163T289 140T290 103T291 48Q291 15 291 -7T289 -43T286 -66T282 -82Q270 -120 241 -141T166 -162ZM166 -119Q221 -119 238 -69Q239 -64 240 -57T242 -37T243 -4T244 48Q244 79 244 99T243 132T241 152T238 165Q221 215 166 215Q111 215 94 165Q92 160 91 153T89 133T88 100T87 48Q87 16 87 -4T89 -37T91 -57T94 -69Q111 -119 166 -119Z"  />
<glyph unicode="&#x2081;" horiz-adv-x="331" d="M170 -155Q160 -155 160 -145V194H159L90 147Q86 145 83 146T80 152V184Q80 194 87 198L155 245Q164 251 171 251H196Q206 251 206 241V-145Q206 -155 196 -155H170Z"  />
<glyph unicode="&#x2082;" horiz-adv-x="331" d="M53 -155Q43 -155 43 -145V-122Q43 -116 49 -108L205 73Q221 91 230 109T239 147Q239 176 220 195T169 215Q139 215 120 199T94 155Q92 145 82 147L59 152Q49 154 50 164Q53 182 62 198T87 228T122 250T169 258Q225 258 255 226T285 147Q285 119 274 96T241 46L104 -110V-112H278Q288 -112 288 -122V-145Q288 -155 278 -155H53Z"  />
<glyph unicode="&#x2083;" horiz-adv-x="331" d="M166 -162Q115 -162 84 -139T41 -79Q38 -70 47 -67L72 -60Q80 -57 84 -66Q93 -87 113 -103T165 -119Q201 -119 222 -98T244 -43Q244 -10 222 12T163 34H145Q135 34 135 44V67Q135 77 145 77H160Q194 77 214 96T235 147Q235 177 216 196T162 215Q130 215 114 201T89 168Q86 159 78 160L55 166Q45 168 47 177Q55 209 83 233T163 258Q218 258 249 228T281 149Q281 117 266 95T229 59V58Q239 54 250 46T270 25T284 -4T290 -42Q290 -95 256 -128T166 -162Z"  />
<glyph unicode="&#x2084;" horiz-adv-x="331" d="M215 -155Q205 -155 205 -145V-85Q205 -79 199 -79H38Q28 -79 28 -69V-47Q28 -39 32 -31L165 241Q169 251 178 251H207Q212 251 213 248T213 241L80 -35V-36H199Q205 -36 205 -30V68Q205 78 215 78H240Q250 78 250 68V-30Q250 -36 256 -36H292Q302 -36 302 -46V-69Q302 -79 292 -79H256Q250 -79 250 -85V-145Q250 -155 240 -155H215Z"  />
<glyph unicode="&#x2085;" horiz-adv-x="331" d="M170 -162Q118 -162 90 -139T53 -82Q50 -72 59 -69L83 -60Q92 -57 95 -65Q104 -89 121 -103T171 -118Q225 -118 239 -73Q241 -65 242 -55T244 -24Q244 -4 243 6T239 25Q225 69 172 69Q145 69 130 59T107 32Q102 23 95 23H69Q59 23 59 33V241Q59 251 69 251H273Q283 251 283 241V218Q283 208 273 208H110Q104 208 104 202V82H105Q113 93 131 102T179 112Q261 112 283 44Q287 33 288 18T290 -24Q290 -50 288 -64T282 -90Q257 -162 170 -162Z"  />
<glyph unicode="&#x2086;" horiz-adv-x="331" d="M166 -162Q109 -162 74 -128T38 -37Q38 -13 45 10T66 58L168 242Q174 251 182 251H212Q217 251 218 248T218 241L126 76L127 75Q144 87 174 87Q227 87 260 53T294 -37Q294 -94 259 -128T166 -162ZM166 -119Q203 -119 225 -97T248 -37Q248 -1 226 21T166 44Q129 44 107 22T84 -37Q84 -74 106 -96T166 -119Z"  />
<glyph unicode="&#x2087;" horiz-adv-x="331" d="M99 -155Q94 -155 93 -152T93 -144L242 207V208H102Q96 208 96 202V160Q96 150 86 150H60Q50 150 50 160V241Q50 251 60 251H281Q291 251 291 241V213Q291 206 288 200L140 -147Q136 -155 127 -155H99Z"  />
<glyph unicode="&#x2088;" horiz-adv-x="331" d="M166 -162Q109 -162 73 -129T36 -42Q36 -4 54 21T98 58V60Q77 71 62 93T46 146Q46 194 79 226T166 258Q219 258 252 226T285 146Q285 115 270 93T233 60V58Q259 47 277 22T296 -42Q296 -96 260 -129T166 -162ZM166 78Q197 78 218 97T239 146Q239 176 218 195T166 215Q135 215 114 196T92 146Q92 117 113 98T166 78ZM166 -119Q203 -119 226 -98T250 -41Q250 -6 227 15T166 37Q129 37 106 16T82 -41Q82 -76 105 -97T166 -119Z"  />
<glyph unicode="&#x2089;" horiz-adv-x="331" d="M119 -155Q114 -155 113 -152T113 -145L205 20L204 21Q189 9 158 9Q105 9 72 43T38 133Q38 190 73 224T166 258Q223 258 258 224T294 133Q294 109 287 86T265 38L163 -146Q158 -155 150 -155H119ZM166 52Q203 52 225 74T248 133Q248 170 226 192T166 215Q129 215 107 193T84 133Q84 97 106 75T166 52Z"  />
<glyph unicode="&#x20AC;" horiz-adv-x="532" d="M302 -10Q233 -10 188 23T122 117Q119 128 117 139T113 166T110 202T109 253Q109 259 103 259H56Q46 259 46 269V294Q46 304 56 304H103Q109 304 109 310V376Q109 382 103 382H56Q46 382 46 392V417Q46 427 56 427H103Q109 427 109 433Q109 458 110 477T112 512T116 539T122 563Q142 624 187 657T302 690Q337 690 365 681T415 655T452 618T478 574Q483 565 473 561L446 546Q438 543 433 552Q413 590 383 614T302 638Q205 638 176 550Q169 532 167 507T164 433Q164 427 170 427H383Q388 427 390 424T391 416L383 392Q380 382 371 382H170Q164 382 164 376V310Q164 304 170 304H353Q358 304 360 301T361 293L353 269Q350 259 341 259H170Q164 259 164 253Q164 224 164 205T166 172T170 149T176 130Q205 42 302 42Q352 42 382 66T433 128Q438 137 446 134L473 119Q483 115 478 106Q468 83 453 62T416 25T366 0T302 -10Z"  />
<glyph unicode="&#x2113;" horiz-adv-x="371" d="M83 211Q75 206 69 213L53 236Q47 243 54 250L116 303V514Q116 606 143 648T221 690Q263 690 289 658T315 565Q315 530 308 497T283 429T238 358T170 280V103Q170 71 182 57T218 42Q250 42 279 71Q286 78 293 70L308 49Q314 42 307 35Q287 14 263 2T210 -10Q161 -10 139 19T116 104V239L83 211ZM170 349Q223 409 244 459T266 565Q266 601 254 621T221 642Q210 642 201 637T185 617T174 578T170 517V349Z"  />
<glyph unicode="&#x2122;" horiz-adv-x="817" d="M734 286Q724 286 724 296V579H722L610 350Q606 342 598 342H579Q571 342 567 350L455 579H453V296Q453 286 443 286H421Q411 286 411 296V670Q411 680 421 680H444Q452 680 457 671L588 397H591L720 671Q724 680 732 680H756Q766 680 766 670V296Q766 286 756 286H734ZM177 286Q167 286 167 296V633Q167 639 161 639H51Q41 639 41 649V670Q41 680 51 680H327Q337 680 337 670V649Q337 639 327 639H217Q211 639 211 633V296Q211 286 201 286H177Z"  />
<glyph unicode="&#x2126;" horiz-adv-x="612" d="M355 0Q345 0 345 10V46Q345 55 355 58Q394 72 420 92T461 144T483 223T489 340Q489 382 488 412T484 463T478 497T471 521Q433 636 306 636Q179 636 141 521Q138 511 135 498T129 463T125 412T123 340Q123 271 129 224T150 144T192 92T257 58Q267 55 267 46V10Q267 0 257 0H83Q73 0 73 10V44Q73 54 83 54H170V56Q141 72 122 93T89 147T71 227T65 340Q65 384 66 415T71 469T77 507T85 536Q110 614 166 652T306 690Q389 690 445 652T527 536Q531 523 534 508T541 470T545 416T547 340Q547 274 541 227T523 148T490 94T442 56V54H529Q539 54 539 44V10Q539 0 529 0H355Z"  />
<glyph unicode="&#x212E;" horiz-adv-x="643" d="M320 -10Q267 -10 225 9T152 62T106 141T89 239Q89 291 105 336T152 415T224 468T320 487Q372 487 415 469T489 418T537 340T554 239H191V75Q244 24 320 24Q377 24 418 49T493 132L526 111Q484 48 438 19T320 -10ZM452 402Q394 457 320 457Q243 457 191 402V272H452V402Z"  />
<glyph unicode="&#x2153;" horiz-adv-x="868" d="M188 274Q178 274 178 284V623H177L108 576Q104 574 101 575T98 581V613Q98 623 105 627L173 674Q182 680 189 680H214Q224 680 224 670V284Q224 274 214 274H188ZM185 -10Q174 -10 179 0L573 680Q579 690 587 690H614Q625 690 620 680L226 0Q220 -10 212 -10H185ZM646 -6Q595 -6 564 17T521 77Q518 86 527 89L552 96Q560 99 564 90Q573 69 593 53T645 37Q681 37 702 58T724 113Q724 146 702 168T643 190H625Q615 190 615 200V223Q615 233 625 233H640Q674 233 694 252T715 303Q715 333 696 352T642 371Q610 371 594 357T569 324Q566 315 558 316L535 322Q525 324 527 333Q535 365 563 389T643 414Q698 414 729 384T761 305Q761 273 746 251T709 215V214Q719 210 730 202T750 181T764 152T770 114Q770 61 736 28T646 -6Z"  />
<glyph unicode="&#x2154;" horiz-adv-x="963" d="M107 274Q97 274 97 284V307Q97 313 103 321L259 502Q275 520 284 538T293 576Q293 605 274 624T223 644Q193 644 174 628T148 584Q146 574 136 576L113 581Q103 583 104 593Q107 611 116 627T141 657T176 679T223 687Q279 687 309 655T339 576Q339 548 328 525T295 475L158 319V317H332Q342 317 342 307V284Q342 274 332 274H107ZM280 -10Q269 -10 274 0L668 680Q674 690 682 690H709Q720 690 715 680L321 0Q315 -10 307 -10H280ZM741 -6Q690 -6 659 17T616 77Q613 86 622 89L647 96Q655 99 659 90Q668 69 688 53T740 37Q776 37 797 58T819 113Q819 146 797 168T738 190H720Q710 190 710 200V223Q710 233 720 233H735Q769 233 789 252T810 303Q810 333 791 352T737 371Q705 371 689 357T664 324Q661 315 653 316L630 322Q620 324 622 333Q630 365 658 389T738 414Q793 414 824 384T856 305Q856 273 841 251T804 215V214Q814 210 825 202T845 181T859 152T865 114Q865 61 831 28T741 -6Z"  />
<glyph unicode="&#x215B;" horiz-adv-x="869" d="M188 274Q178 274 178 284V623H177L108 576Q104 574 101 575T98 581V613Q98 623 105 627L173 674Q182 680 189 680H214Q224 680 224 670V284Q224 274 214 274H188ZM642 -6Q585 -6 549 27T512 114Q512 152 530 177T574 214V216Q553 227 538 249T522 302Q522 350 555 382T642 414Q695 414 728 382T761 302Q761 271 746 249T709 216V214Q735 203 753 178T772 114Q772 60 736 27T642 -6ZM642 234Q673 234 694 253T715 302Q715 332 694 351T642 371Q611 371 590 352T568 302Q568 273 589 254T642 234ZM642 37Q679 37 702 58T726 115Q726 150 703 171T642 193Q605 193 582 172T558 115Q558 80 581 59T642 37ZM185 -10Q174 -10 179 0L573 680Q579 690 587 690H614Q625 690 620 680L226 0Q220 -10 212 -10H185Z"  />
<glyph unicode="&#x215C;" horiz-adv-x="938" d="M711 -6Q654 -6 618 27T581 114Q581 152 599 177T643 214V216Q622 227 607 249T591 302Q591 350 624 382T711 414Q764 414 797 382T830 302Q830 271 815 249T778 216V214Q804 203 822 178T841 114Q841 60 805 27T711 -6ZM711 234Q742 234 763 253T784 302Q784 332 763 351T711 371Q680 371 659 352T637 302Q637 273 658 254T711 234ZM711 37Q748 37 771 58T795 115Q795 150 772 171T711 193Q674 193 651 172T627 115Q627 80 650 59T711 37ZM254 -10Q243 -10 248 0L642 680Q648 690 656 690H683Q694 690 689 680L295 0Q289 -10 281 -10H254ZM223 267Q172 267 141 290T98 350Q95 359 104 362L129 369Q137 372 141 363Q150 342 170 326T222 310Q258 310 279 331T301 386Q301 419 279 441T220 463H202Q192 463 192 473V496Q192 506 202 506H217Q251 506 271 525T292 576Q292 606 273 625T219 644Q187 644 171 630T146 597Q143 588 135 589L112 595Q102 597 104 606Q112 638 140 662T220 687Q275 687 306 657T338 578Q338 546 323 524T286 488V487Q296 483 307 475T327 454T341 425T347 387Q347 334 313 301T223 267Z"  />
<glyph unicode="&#x215D;" horiz-adv-x="930" d="M703 -6Q646 -6 610 27T573 114Q573 152 591 177T635 214V216Q614 227 599 249T583 302Q583 350 616 382T703 414Q756 414 789 382T822 302Q822 271 807 249T770 216V214Q796 203 814 178T833 114Q833 60 797 27T703 -6ZM703 234Q734 234 755 253T776 302Q776 332 755 351T703 371Q672 371 651 352T629 302Q629 273 650 254T703 234ZM703 37Q740 37 763 58T787 115Q787 150 764 171T703 193Q666 193 643 172T619 115Q619 80 642 59T703 37ZM246 -10Q235 -10 240 0L634 680Q640 690 648 690H675Q686 690 681 680L287 0Q281 -10 273 -10H246ZM215 267Q163 267 135 290T98 347Q95 357 104 360L128 369Q137 372 140 364Q149 340 166 326T216 311Q270 311 284 356Q286 364 287 374T289 405Q289 425 288 435T284 454Q270 498 217 498Q190 498 175 488T152 461Q147 452 140 452H114Q104 452 104 462V670Q104 680 114 680H318Q328 680 328 670V647Q328 637 318 637H155Q149 637 149 631V511H150Q158 522 176 531T224 541Q306 541 328 473Q332 462 333 447T335 405Q335 379 333 365T327 339Q302 267 215 267Z"  />
<glyph unicode="&#x215E;" horiz-adv-x="856" d="M629 -6Q572 -6 536 27T499 114Q499 152 517 177T561 214V216Q540 227 525 249T509 302Q509 350 542 382T629 414Q682 414 715 382T748 302Q748 271 733 249T696 216V214Q722 203 740 178T759 114Q759 60 723 27T629 -6ZM629 234Q660 234 681 253T702 302Q702 332 681 351T629 371Q598 371 577 352T555 302Q555 273 576 254T629 234ZM629 37Q666 37 689 58T713 115Q713 150 690 171T629 193Q592 193 569 172T545 115Q545 80 568 59T629 37ZM145 274Q140 274 139 277T139 285L288 636V637H148Q142 637 142 631V589Q142 579 132 579H106Q96 579 96 589V670Q96 680 106 680H327Q337 680 337 670V642Q337 635 334 629L186 282Q182 274 173 274H145ZM172 -10Q161 -10 166 0L560 680Q566 690 574 690H601Q612 690 607 680L213 0Q207 -10 199 -10H172Z"  />
<glyph unicode="&#x2202;" horiz-adv-x="537" d="M250 -10Q206 -10 171 6T111 50T73 117T60 202Q60 248 74 286T115 353T176 398T255 414Q360 414 424 328H425Q426 392 417 449T385 548T329 615T247 640Q215 640 187 629T130 595Q122 590 117 598L101 623Q96 631 104 637Q133 660 169 675T248 690Q308 690 351 663T422 590T463 481T477 350Q477 266 463 199T421 86T350 15T250 -10ZM254 42Q330 42 371 102T421 273Q391 318 351 341T264 365Q193 365 154 321T114 202Q114 130 151 86T254 42Z"  />
<glyph unicode="&#x2206;" horiz-adv-x="596" d="M39 0Q28 0 31 10L269 670Q272 680 281 680H317Q325 680 328 670L565 10Q568 0 557 0H39ZM485 51Q491 51 490 57L300 588H297L105 57Q103 51 111 51H485Z"  />
<glyph unicode="&#x220F;" horiz-adv-x="637" d="M501 -180Q491 -180 491 -170V679Q491 685 485 685H152Q146 685 146 679V-170Q146 -180 136 -180H99Q89 -180 89 -170V730Q89 740 99 740H538Q548 740 548 730V-170Q548 -180 538 -180H501Z"  />
<glyph unicode="&#x2211;" horiz-adv-x="531" d="M71 -180Q61 -180 61 -170V-139Q61 -134 63 -130L258 322L68 684Q65 690 65 695V730Q65 740 75 740H464Q474 740 474 730V695Q474 685 464 685H131L317 333Q320 326 317 319L125 -125H474Q484 -125 484 -135V-170Q484 -180 474 -180H71Z"  />
<glyph unicode="&#x2212;" horiz-adv-x="532" d="M76 251Q66 251 66 261V291Q66 301 76 301H456Q466 301 466 291V261Q466 251 456 251H76Z"  />
<glyph unicode="&#x2215;" horiz-adv-x="151" d="M-139 -10Q-150 -10 -145 0L249 680Q255 690 263 690H290Q301 690 296 680L-98 0Q-104 -10 -112 -10H-139Z"  />
<glyph unicode="&#x2219;" horiz-adv-x="219" d="M85 222Q75 222 75 232V299Q75 309 85 309H134Q144 309 144 299V232Q144 222 134 222H85Z"  />
<glyph unicode="&#x221A;" horiz-adv-x="616" d="M304 -180Q295 -180 292 -170L145 129Q142 135 136 132L64 98Q54 93 51 102L39 128Q34 137 43 141L158 198Q168 203 172 194L312 -97H315L546 730Q549 740 558 740H588Q599 740 596 730L345 -170Q342 -180 333 -180H304Z"  />
<glyph unicode="&#x221E;" horiz-adv-x="769" d="M570 89Q520 89 477 118T384 210Q335 150 292 120T198 89Q165 89 138 100T90 133T59 183T47 247Q47 282 58 311T89 360T137 392T199 404Q248 404 290 374T384 283Q437 347 479 375T569 404Q602 404 630 393T679 362T710 312T722 247Q722 212 711 183T680 133T631 101T570 89ZM568 134Q593 134 613 143T648 169T669 205T677 248Q677 295 649 327T568 360Q531 360 497 334T413 246Q439 214 459 193T498 159T532 140T568 134ZM200 134Q237 134 272 161T355 247Q306 308 272 334T200 360Q148 360 120 328T92 248Q92 199 122 167T200 134Z"  />
<glyph unicode="&#x222B;" horiz-adv-x="382" d="M94 -180Q89 -180 79 -180T63 -178Q53 -176 53 -168V-137Q53 -125 63 -127Q70 -128 76 -128T88 -128Q126 -128 145 -103T164 -15V562Q164 658 194 698T289 741Q294 741 303 741T319 739Q329 737 329 729V697Q329 692 327 689T319 687Q312 689 306 689T294 689Q256 689 237 663T218 576V-1Q218 -97 188 -137T94 -180Z"  />
<glyph unicode="&#x2248;" horiz-adv-x="532" d="M351 312Q320 312 297 324T253 351Q236 363 218 373T179 383Q153 383 135 370T98 326Q93 318 84 324L64 337Q57 342 61 351Q80 388 111 409T180 430Q212 430 235 418T278 391Q295 379 313 369T352 359Q378 359 396 373T433 416Q438 425 448 418L467 406Q475 401 470 392Q451 355 420 334T351 312ZM351 122Q320 122 297 134T253 161Q236 173 218 183T179 193Q153 193 135 180T98 136Q93 128 84 134L64 147Q57 152 61 161Q80 198 111 219T180 240Q212 240 235 228T278 201Q295 189 313 179T352 169Q378 169 396 183T433 226Q438 235 448 228L467 216Q475 211 470 202Q451 165 420 144T351 122Z"  />
<glyph unicode="&#x2260;" horiz-adv-x="532" d="M222 154L165 52Q159 42 150 42H121Q116 42 115 45T116 53L172 154H76Q66 154 66 164V194Q66 204 76 204H200L281 348H76Q66 348 66 358V388Q66 398 76 398H309L367 500Q373 510 381 510H411Q416 510 417 507T416 499L359 398H456Q466 398 466 388V358Q466 348 456 348H331L250 204H456Q466 204 466 194V164Q466 154 456 154H222Z"  />
<glyph unicode="&#x2264;" horiz-adv-x="532" d="M76 283Q66 287 66 296V322Q66 331 76 335L456 490Q466 493 466 483V449Q466 440 456 436L140 310V308L456 183Q466 179 466 170V135Q466 125 456 128L76 283ZM76 0Q66 0 66 10V40Q66 50 76 50H456Q466 50 466 40V10Q466 0 456 0H76Z"  />
<glyph unicode="&#x2265;" horiz-adv-x="532" d="M76 128Q66 125 66 135V170Q66 179 76 183L392 308V310L76 436Q66 440 66 449V483Q66 493 76 490L456 335Q466 331 466 322V296Q466 287 456 283L76 128ZM76 0Q66 0 66 10V40Q66 50 76 50H456Q466 50 466 40V10Q466 0 456 0H76Z"  />
<glyph unicode="&#x25CA;" horiz-adv-x="556" d="M262 -52Q255 -52 250 -42L71 322Q68 329 71 336L250 700Q255 710 262 710H294Q301 710 306 700L485 336Q488 329 485 322L306 -42Q301 -52 294 -52H262ZM432 329L279 642H277L125 329L278 16H280L432 329Z"  />
<glyph unicode="&#xF8FF;" horiz-adv-x="470" d="M10 0Q0 0 0 10V670Q0 680 10 680H460Q470 680 470 670V10Q470 0 460 0H10ZM425 37Q431 37 431 43V637Q431 643 425 643H45Q39 643 39 637V43Q39 37 45 37H425ZM215 224Q205 224 205 234V258Q205 281 210 295T227 325L264 373Q287 400 294 416T301 453Q301 485 281 504T229 523Q167 523 152 456Q150 447 140 448L119 452Q109 454 111 463Q119 507 150 534T230 562Q281 562 311 531T342 453Q342 424 333 404T304 359L267 311Q254 295 251 285T247 256V234Q247 224 237 224H215ZM210 113Q200 113 200 123V162Q200 172 210 172H241Q251 172 251 162V123Q251 113 241 113H210Z"  />
<glyph unicode="&#xFB00;" horiz-adv-x="616" d="M118 0Q108 0 108 10V423Q108 429 102 429H51Q41 429 41 439V467Q41 477 51 477H102Q108 477 108 483V534Q108 577 115 605T138 649T179 673T241 680H269Q279 680 279 670V638Q279 628 269 628H248Q221 628 204 625T178 612T165 585T162 541V483Q162 477 168 477H269Q279 477 279 467V439Q279 429 269 429H168Q162 429 162 423V10Q162 0 152 0H118ZM426 0Q416 0 416 10V423Q416 429 410 429H359Q349 429 349 439V467Q349 477 359 477H410Q416 477 416 483V534Q416 577 423 605T446 649T487 673T549 680H577Q587 680 587 670V638Q587 628 577 628H556Q529 628 512 625T486 612T473 585T470 541V483Q470 477 476 477H577Q587 477 587 467V439Q587 429 577 429H476Q470 429 470 423V10Q470 0 460 0H426Z"  />
<glyph unicode="&#xFB01;" horiz-adv-x="546" d="M118 0Q108 0 108 10V423Q108 429 102 429H51Q41 429 41 439V467Q41 477 51 477H102Q108 477 108 483V534Q108 577 115 605T138 649T179 673T241 680H269Q279 680 279 670V638Q279 628 269 628H248Q221 628 204 625T178 612T165 585T162 541V483Q162 477 168 477H269Q279 477 279 467V439Q279 429 269 429H168Q162 429 162 423V10Q162 0 152 0H118ZM405 604Q395 604 395 614V670Q395 680 405 680H449Q459 680 459 670V614Q459 604 449 604H405ZM410 0Q400 0 400 10V467Q400 477 410 477H444Q454 477 454 467V10Q454 0 444 0H410Z"  />
<glyph unicode="&#xFB02;" horiz-adv-x="570" d="M118 0Q108 0 108 10V423Q108 429 102 429H51Q41 429 41 439V467Q41 477 51 477H102Q108 477 108 483V534Q108 577 115 605T138 649T179 673T241 680H269Q279 680 279 670V638Q279 628 269 628H248Q221 628 204 625T178 612T165 585T162 541V483Q162 477 168 477H269Q279 477 279 467V439Q279 429 269 429H168Q162 429 162 423V10Q162 0 152 0H118ZM498 -3Q444 -3 422 23T399 109V670Q399 680 409 680H443Q453 680 453 670V111Q453 76 465 63T504 49H521Q531 49 531 39V7Q531 -3 521 -3H498Z"  />
<glyph unicode="&#xFB03;" horiz-adv-x="854" d="M118 0Q108 0 108 10V423Q108 429 102 429H51Q41 429 41 439V467Q41 477 51 477H102Q108 477 108 483V534Q108 577 115 605T138 649T179 673T241 680H269Q279 680 279 670V638Q279 628 269 628H248Q221 628 204 625T178 612T165 585T162 541V483Q162 477 168 477H269Q279 477 279 467V439Q279 429 269 429H168Q162 429 162 423V10Q162 0 152 0H118ZM426 0Q416 0 416 10V423Q416 429 410 429H359Q349 429 349 439V467Q349 477 359 477H410Q416 477 416 483V534Q416 577 423 605T446 649T487 673T549 680H577Q587 680 587 670V638Q587 628 577 628H556Q529 628 512 625T486 612T473 585T470 541V483Q470 477 476 477H577Q587 477 587 467V439Q587 429 577 429H476Q470 429 470 423V10Q470 0 460 0H426ZM713 604Q703 604 703 614V670Q703 680 713 680H757Q767 680 767 670V614Q767 604 757 604H713ZM718 0Q708 0 708 10V467Q708 477 718 477H752Q762 477 762 467V10Q762 0 752 0H718Z"  />
<glyph unicode="&#xFB04;" horiz-adv-x="878" d="M118 0Q108 0 108 10V423Q108 429 102 429H51Q41 429 41 439V467Q41 477 51 477H102Q108 477 108 483V534Q108 577 115 605T138 649T179 673T241 680H269Q279 680 279 670V638Q279 628 269 628H248Q221 628 204 625T178 612T165 585T162 541V483Q162 477 168 477H269Q279 477 279 467V439Q279 429 269 429H168Q162 429 162 423V10Q162 0 152 0H118ZM426 0Q416 0 416 10V423Q416 429 410 429H359Q349 429 349 439V467Q349 477 359 477H410Q416 477 416 483V534Q416 577 423 605T446 649T487 673T549 680H577Q587 680 587 670V638Q587 628 577 628H556Q529 628 512 625T486 612T473 585T470 541V483Q470 477 476 477H577Q587 477 587 467V439Q587 429 577 429H476Q470 429 470 423V10Q470 0 460 0H426ZM806 -3Q752 -3 730 23T707 109V670Q707 680 717 680H751Q761 680 761 670V111Q761 76 773 63T812 49H829Q839 49 839 39V7Q839 -3 829 -3H806Z"  />

</font>
</defs>
</svg>
